<svg width="810" height="149" viewBox="0 0 810 149" fill="none" xmlns="http://www.w3.org/2000/svg">
<path d="M808.388 39.4346C797.931 37.9685 792.819 20.4119 785.28 18.9578C777.441 17.444 768.512 23.2724 758.078 23.2724C743.504 23.2724 739.662 18.046 732.975 20.8827C729.043 22.5513 726.526 35.4775 714.049 35.9781C708.026 36.2165 700.427 31.5502 690.965 31.2462C682.731 30.9781 675.27 33.3499 668.636 33.1533C660.06 32.897 652.905 27.4739 646.582 27.2474C637.251 26.9137 630.701 22.4381 624.966 21.9196C614.844 21.0078 609.187 26.0376 603.584 23.2546C599.736 21.3416 591.778 14.0412 581.956 13.5585C575.579 13.2426 567.507 12.8552 559.591 13.2009C552.747 13.4989 545.376 18.04 537.915 18.8564C530.861 19.6312 522.974 18.4452 515.801 19.7146C508.628 20.984 502.533 28.4274 495.659 30.2093C488.03 32.1878 482.355 42.6706 476.74 43.0937C468.776 43.6837 461.998 33.1294 456.382 31.723C449.724 30.0543 443.504 29.0531 437.08 26.6395C431.536 24.5537 426.4 17.4262 418.724 16.3356C410.477 15.1616 401.159 10.2569 394.573 11.2462C386.662 12.4321 381.526 25.3702 374.976 27.4024C367.551 29.7027 360.264 33.9399 353.042 33.9399C345.354 33.9399 336.454 21.8481 327.363 22.6109C319.92 23.2367 312.04 37.1104 302.787 35.5788C295.583 34.3869 287.385 30.7397 278.666 26.9435C272.277 24.1664 266.968 19.6073 261.005 17.4262C254.275 14.9589 249.019 8.18299 243.032 6.75867C235.739 5.02445 227.469 -0.291418 221.614 0.0125165C214.153 0.399884 209.67 12.9267 205.224 17.6109C202.179 20.8171 193.358 24.2498 183.038 24.071C176.686 23.9578 169.471 18.6598 161.446 17.8791C154.585 17.2116 147.165 17.4262 139.644 16.5799C132.513 15.7813 125.801 8.7551 118.538 8.05188C111.149 7.3427 103.106 14.5775 96.0408 14.2319C88.328 13.8505 80.4415 2.15794 73.6996 2.53934C65.4415 3.00418 59.3288 15.9125 53.5338 18.0877C44.3528 21.5382 36.8378 22.6407 31.8458 25.6741C22.9045 31.1092 18.6197 27.6109 11.5781 27.9864C8.62365 28.1473 4.79425 31.7945 0 33.8982V169H810V39.4227C809.443 39.4942 808.897 39.5061 808.37 39.4346H808.388Z" fill="#E6DECA"/>
</svg>
