<svg xmlns="http://www.w3.org/2000/svg" fill="none" viewBox="0 0 394 34">
  <path fill="#E6DECA" d="M394 31.002c-5-.002-8.789-15.904-12.445-16.975-3.812-1.116-8.147 3.187-13.215 3.187-7.083 0-8.944-3.868-12.197-1.77-1.915 1.234-3.134 10.793-9.201 11.165-2.923.182-6.616-3.277-11.216-3.504-4.005-.2-7.625 1.561-10.851 1.407-4.169-.19-7.643-4.203-10.713-4.366-4.536-.245-7.716-3.559-10.502-3.94-4.921-.672-7.67 3.05-10.392.99-1.869-1.417-5.736-6.818-10.511-7.172-3.097-.227-7.019-.518-10.868-.263-3.327.218-6.91 3.576-10.53 4.184-3.427.572-7.258-.299-10.749.636-3.483.935-6.452 6.445-9.788 7.762-3.702 1.461-6.46 9.223-9.191 9.531-3.867.436-7.166-7.37-9.888-8.415-3.235-1.234-6.259-1.97-9.375-3.758-2.694-1.543-5.187-6.818-8.917-7.616-4.004-.863-8.531-4.494-11.739-3.768-3.849.88-6.341 10.449-9.521 11.956-3.611 1.707-7.148 4.838-10.658 4.838-3.739 0-8.065-8.941-12.482-8.379-3.619.463-7.45 10.721-11.94 9.596-3.501-.88-7.487-3.577-11.721-6.391-3.107-2.052-5.682-5.429-8.578-7.045-3.271-1.824-5.819-6.835-8.733-7.888-3.537-1.28-7.551-5.22-10.401-4.993-3.629.281-5.801 9.55-7.964 13.018-1.475 2.369-5.764 4.91-10.777 4.775-3.088-.082-6.589-4.004-10.493-4.585-3.335-.499-6.937-.336-10.593-.962-3.464-.59-6.727-5.792-10.255-6.31-3.592-.526-7.496 4.83-10.933 4.576-3.748-.281-7.578-8.932-10.85-8.651-4.014.345-6.983 9.895-9.796 11.502-4.463 2.55-8.11 3.367-10.539 5.61-4.344 4.021-6.424 1.434-9.851 1.706C4.224 20.808 3 31 0 31.002V34h394v-2.998Z"/>
</svg>
