<svg xmlns="http://www.w3.org/2000/svg" fill="none" viewBox="0 0 162 80">
  <g clip-path="url(#a)">
    <g fill="#3D3F20" clip-path="url(#b)">
      <path d="M73.304 65.8109c-.304-.0481-.8-.369-1.144-.4814-.784-.2648-1.592-.4172-2.44-.3771.064.2889.472.1043.6.1204.16.024.488.2888.728.2567l-.456.2648c-.344-.0802-.584.0481-.4.4012l-.288-.0481v-.2408c-.192-.016-.368.0081-.552.0642-.288.0883-.288.329-.592.0321l-.192.1926c.08-.1605.04-.3049.056-.4734 0-.0883.128-.1284-.096-.0963-.168.0241-.336.1284-.528.0963.088.2568.096.4172 0 .666-.376-.1525-1.024-.2728-1.408-.1204-.304.1204-.528.5296-.888.4975-.176-.1605.472-.4333.576-.3852.048-.4332-.376 0-.552.0723-.144.0641-.312.0722-.432.1283-.24.1204-.352.7222-.704.9388-.128.0803-.328.0722-.4.1284-.056.0481-.36.666-.528.8104-.176.1605-.424.1685-.64.4574-.136.1765-.12.4332-.192.4734-.2.1203-.6.2728-.744.361-.208.1284-.488.5938-.568.6499-.232.1685-.712.2167-.888.329-.136.0883-.328.4012-.64.6018-.504.3129-1.344.8826-1.84 1.1233-.192.0963-.48.1124-.56.1605-.064.0401-.064.2327-.216.3129-.152.0803-.392.0562-.512.1364-.08.0562-.072.2408-.152.3451-.168.2327-1.216.8986-1.432.7141l.144-.3852c-.152.2006-.352.0963-.528.1445-.8.1925-1.568.5215-2.384.6258v.2809l.568-.1926v.4814l-.456.0161c-.096.5536-.688.5536-1.104.7622-1.496.7382-2.872 1.6449-3.976 2.9046-.744.8505-1.28 1.8856-2.152 2.6318-.36.3129-.728.666-1.232.5777-.136-.024-.224-.1444-.312-.1685-.224-.0481-.712-.008-.864-.2327-.152-.2246.2-1.2276.36-1.4442.112-.1445.368-.1766.456-.2889.144-.1845.144-.4333.456-.6419.216-.1525.528-.0963.624-.2247.192-.2487-.048-.4493 0-.5215.008-.0161.232-.0722.336-.1926.112-.1364.144-.3851.224-.4413.048-.0321.184.0722.344-.0321.408-.2648 1.44-1.2035 1.832-1.5726.16-.1525.536-.7543.672-.8345.12-.0802.336-.0802.48-.1685.624-.3611.968-1.0271 1.648-1.1314l1.288-.8023.096.1925c.12-.2487.552-.1925.624-.2407.08-.0481.064-.2086.216-.2728.8-.337 1.704-.2487 2.592-.7462.256-.1444.624-.5536.92-.69.192-.0963.576-.1124.8-.2648.208-.1364.288-.5296.472-.7222.376-.4092 1.648-.9708 2.2-1.2918.36-.2086.496-.321.768-.5617.472-.4092 1.184-.4814 1.688-.7943.984-.6018 1.672-1.3641 2.576-2.022.248-.1765 1.36-.9789 1.52-1.0511.232-.1043.856.0481.864-.4413h.192v.1925h.096c0-.0802.032-.1925.096-.2407.144-.1043 2.104-.3931 2.344-.3851.224 0 .408.1123.6.1284.232.024.528-.1525.784.0722.104.0882.08.2487.144.337.032.0481 1.064.3611 1.168.3611.152 0 .424-.2889.696-.1685-.152.2005-.184.2246-.096.4814l.432-.0642c.144.0642.144.2888.296.337.16.0562 1.248.0241 1.488-.0161.456-.0722.976-.3931 1.32-.69l-.192-.0481c-.032-.2247.208-.329.336-.4815l.144.1926c.016-.1204.048-.2648.12-.3611.304-.345.96-.7863 1.312-1.1233.264-.2568.448-.6018.712-.8184 1.344-1.0672 3.44-.1525 4.952-.2969.504-.0481.6-.2487.888-.353.52-.1766.696-.3852 1.072-.5457.104-.0401.232.0723.384 0 1.224-.6338 3.928-1.1955 5.384-.9708.392.0561.88.361 1.264.1604l.088.1846.288-.1605c.2-.0241.24.2247.256.2327.072.0401.648-.0963.784-.0722.064.008.048.1524.136.1926.352.1845 1.4-.0482 1.792-.0723.56-.0321 1.152.1445 1.72.1685 2.392.0963 3.328-.5696 5.472-1.1795.376-.1043 1.12-.1604 1.304-.4493.696.2889 1.488-.2888 2.12-.4493.112-.0321.232.0401.32.0241.504-.1204 1.656-.4815 2.112-.4093.32.0562.304.3049.368.3531.088.0642.272-.0802.4-.0562.28.0482.544.0883.888.1284.256.0321 1.728.0401 1.896-.016.656-.2087 1.184-.4734 1.896-.5296.072 0 .04-.1685.128-.1846.128-.0321.264.0321.416-.0481.048-.0241.288-.4012.304-.4092.072-.0321.168.0481.264.0241.224-.0723.672-.2729.952-.3772.576-.2166 1.072-.5616 1.704-.6338v-.3691c.4-.0482-.096.2648.296.1925-.024-.0882.2-.353.264-.3771.208-.0802.76-.1043.88-.1605.448-.2006.632-.2728 1.12-.4011.952-.2488 1.864-.4815 2.848-.7944.904-.2808 2.04-.5938 3.04-.7623.032 0 .168-.345.536-.1845l-.088-.1765.656-.2006c.032-.1445-.024-.1525-.104-.2327-.792-.7863-1.816-1.6288-2.456-2.5114-.856-1.1795-1.744-2.8645-2.328-4.1724-.264-.5938-.488-1.2196-.936-1.7412-.472-.5456-1.224-.7382-1.76-1.1955-.856-.7382-1.608-1.701-2.232-2.6398-1.272-1.9257-2.84-3.5385-4.504-5.1513-1.064-1.0351-2.28-2.2787-3.44-3.1533-.512-.3852-1.28-.666-1.8-1.0672-1-.7703-1.92-1.7331-3.24-1.9979-2.136-.4413-4.384-1.2678-6.496-1.9177-1.568-.4814-2.952-1.356-4.208-2.3911-.128-.1043-.344-.7141-.496-.8826-.288-.337-.832-.4092-1.152-.6018-.272-.1604-.664-.6419-1.024-.8023-.208-.0963-.824-.1846-.928-.2648-.08-.0642-.056-.2809-.136-.3451-.136-.1123-.936-.4573-1.152-.5937-.064-.0401-.256-.2808-.272-.3691-.328.0562-.208.4012-.552.1926l-.056.1765c-.088-.1525-.28-.1444-.4-.2247-.048-.0321-.064-.1605-.128-.2006-.12-.0722-.288-.0481-.432-.1444-.208-.1284-.312-.5617-.384-.5857-.376-.0963-.304.2166-.504.2487-.152.0241-.424-.2006-.672-.0562.096-.3691-.328-.337-.592-.4894-.152-.0803.016-.2808-.456-.0883l.088-.2728c-.464-.2006-.552-.8585-1.184-.5857l-.104-.0963.048-.1846c-.264-.0802-.632-.016-.88-.1043-.104-.0401-.112-.2006-.224-.2808-.144-.0963-.112.0241-.336-.1685-.032-.0241-.624.0321-.744-.0241l.48-.1925h-.712l-.048.2888-.896-.1043c-.112.1204 0 .2488-.248.2006.008-.1845.024-.3611-.144-.4814-.184.2246-.488.2006-.736.3129-.576.2487-.952.4012-1.424.7141-.04.0241-.168-.0882-.264-.0321-.096.0642-.304.4012-.192.5296-.256-.016-.344-.0562-.44.1926l-.272-.0883c-.264.2487-.88.7141-1.224.8746-.144.0642-.368.0401-.432.0883-.064.0481-.096.3931-.256.4573l-.056-.1765h-.136c-.224.0722-.376.3932-.448.4493-.024.0161-.272-.0963-.488.0321-.264.1525-.16.5055-.64.2728v.2809H73l.048.1925-.096.0803-.176-.0722c-.128.2888-.44.0802-.352.4734l-.272-.0883c.016.3129-.56.3851-.632.4573-.12.1124-.104.2568-.176.3611-.056.0803-.304.1444-.256.4173l-.336-.1766c-.168.2728-.552.4253-.528.7543l-.28-.1926c-.008.2808-.384.2407-.288.5777l-.32-.1043c-.064.0401-.256.3611-.272.3691-.072.0321-.184-.0562-.264-.0241-.16.0642-.248.3611-.376.4654-.064.0481-.488.1123-.592.1605-.096.0401-.128.2728-.416.2327-.136-.0161-.184-.2969-.328.0401l.192.0963c-.288.0401-.832.1203-.904-.1926l-.472.2006h-4.44l.48.0883c.024.1604-.344.1123-.44.1043-.232-.0241-.04-.2648-.328-.2006l.096.3851-.36-.0481c.152-.2889-.144-.1525-.176.0481h-.36l-.104-.1926-.432.1926.288.1926c-.232.0401-.592-.0562-.792 0-.104.024-.08.2086-.2.2648-.112.0481-.848-.1284-.72.4092l-.384-.1926.048.1926c-.312-.2086-.48.0963-.704.1364-.112.0241-.24-.0642-.328-.0401-.136.0401-.112.2407-.224.2808-.112.0321-.664.0562-.696.0963l.096.1925c-.328.0963-.72.0321-.672.4815l-.24-.1926-.576.7623c-.096.0481.08-.4253-.28-.2809-.128.0562-.328.4092-.472.5296-.048.0401-.168.016-.224.0642-.144.1043-.032.337-.416.1685.096.3049-.368.6579-.528.9548l.048-.4814h-.384c-.032-.1525.12-.0642.192-.1605.048-.0642.168-.2808.048-.3129-.304.3209-.664.5617-.808 1.003l.288.0481v-.3851l.384.0481c-.184.2487-.264.5536-.432.8104-.096.1444-.32.2648-.376.3932-.056.1283-.032.345-.056.3691-.056.0561-.656-.0482-.568.4894l-.288-.0562c-.128.0963-.056.2969-.12.4093-.016.0321-.128.0321-.168.0882-.064.0963-.04.2488-.152.321-.232.1524-.664.024-.808.1284-.096.0722-.056.2647-.104.3209-.072.0802-.448.0722-.576.1204-.088.0321-.064.1845-.128.1845s-.168-.0883-.232-.0481c-.088.0561-.112.3049-.24.3289l-.368-.0962c-.088.3851-.328.0641-.44.1444-.048.0401-.072.1765-.16.2487-.416.321-.832.1685-.872.2006-.032.0241-.04.1846-.168.2648-.48.337-1.48.5777-1.968.8746-.448.2728-.48.329-1.016.5376-.256.0963-.504.2567-.784.3209l.384-.1925-.288-.2889.048.1926c-.576-.1364-.488.5536-1.096.3851l.096.1926c-.296.1444-.472-.0321-.76-.0963v.2889c-.592-.5296-.808.1444-1.016.1845-.104.016-.192-.1284-.288-.1525-.176-.0401-.568.0723-.792-.1283l.096.2888-.48.0963.288-.1926-.144-.2888c-.28.3771-.672.0722-1 .0401-.736-.0883-1.248.0241-1.96.1525-.392.0722-.904-.1926-1.008.3851l-.28-.0963c.048.4333-.512.3691-.384.8666-.256.0481-.136-.0642-.24-.1926-.392.3851-.544.8826-.856 1.34l-.288-.1926c-.096.2568-.272.321-.52.1926.08.345-.264.329-.432.5777l-.144-.1926c-.096.1043-.184.4413-.2.4654-.032.0401-.88-.0481-.856.3932h-.096c.056-.3611-.696-.2488-.896-.1766-.144.0482-.128.2327-.168.2568-.032.0241-.696.1043-.792.008l-.112.2006-.464-.1043-.2.3771-.192-.2888-.144.1925-.144-.2888c-.136.2166-.416.1043-.528.1524-.224.1043-.448.337-.808.329l-.112-.2006c-.488-.1043-.616.4975-.952.4734-.128-.008-.08-.3049-.232-.2728l-.088.2808.184.1043c-.376-.1283-.36.1686-.504.2247-.16.0642-.512 0-.456-.2247h-.096l-.016.2648c-.192.1284-.352.0722-.56.0161v.2888c-.224-.0561-.496-.1123-.48.1926h-.144l.048-.1926-.24.1926-.24-.1926v.3852l-.384-.1926v.4814l-.112-.1685h-.256l-.208.2648-.048-.2888c-.176.1123-.192.2888-.28.4493-.032.0562-.224-.008-.056.2166-.32-.0802-.328.2247-.392.2728-.032.0241-.168-.0962-.272-.0401-.24.1284-.368.7703-.84.5456l-.208.2728-.192-.2888-.096.5777c-.152.0241-.072-.0401-.096-.1204-.064-.2888-.312.1365-.288.313l-.144-.1926c-.28.0963-.368.337-.704.2006l-.208.5697-.376-.0963-.048.2889-.192-.2889c-.304.3129-.824.1765-.72.7623-.128-.1445-.592-.2408-.664-.0482l.192.1444c-.32.1284-.248-.2567-.424-.1845-.088.0321-.184.1845-.336.2407-.224.0722-.384-.0481-.624.3129l-.288-.1765c-.12.321-.328.2889-.624.1926-.24.9709-1.456 1.3881-2.224 1.9337-1.44799 1.019-2.81599 2.2066-4.39199 3.0651-1.264.69-2.72.8906-4.096 1.2517-.288.0722-.776.4574-1.104.1444-.072-.0722-.32-.6659-.312-.7863.048-.5135 1.752-.7944 2.248-1.003.232-.0963.72-.4814.768-.4814.28 0 .848.1605.944-.1926.072.0803.144.1926.272.1766.072 0 .888-.4414 1.008-.5216.256-.1605.568-.5055.776-.6499.224-.1605.672-.1765.856-.4895l-.288-.0963.472-.1444.016-.4654.656-.2968-.472.4332c-.032.2087.056.1525.2.1044.096-.0321.8-.4253.832-.4654.04-.0562 0-.1846.04-.2407.056-.0722.616-.1846.69599-.3049.032-.0482-.09599-.3852.192-.4815l.048.1926c.304.0963.264-.1364.304-.1605.04-.024.112.0562.152.0401.176-.0802.272-.4493.216-.6419l.288.1926v-.1926h.192v.1766l.144.008c.256-.4413.44-.3851.912-.4814l-.096-.2889.24.1926c.288-.0883.216-.2889.384-.4814l.144.2888.48-.1926-.288-.1925.384-.1926.048.2889.336-.4815.096.1926c.24.0401.312-.2648.52-.337.096-.0401.328-.016.472-.0481.272-.0642.352-.2889.728-.0883v-.4814l.672.0561.096-.4332.096.1925h.48l-.288-.1925c.2-.0562.456-.1445.488-.3772l.272.0883-.192-.3851h.384c0 .0641-.2.5295.048.4734.056-.0803.208-.1685.24-.2408.096-.2166-.232-.0722-.192-.2407.28-.016.248-.3851.576-.2888l-.056-.2809.344-.1925-.048.4734.432-.1926-.288-.1444.528-.4333.048.1926h.192c-.072-.2969.496-.1926.576-.2889.064-.0722-.192-.3771.048-.4734.176-.0722.168.4092.328.1926.016-.0161-.024-.1364.064-.2006.168-.1123.504.1444.512-.2808l.376.1925-.096-.2808c.256-.0883.552-.1685.472-.4814h.192c-.024.2327.072.2086.28.1925.04-.5376.328-.4814.432 0l.24-.0962c.048-.1685-.216-.0402-.192-.1445.12-.4252.808-.3691 1.224-.4974.664-.2006 1.336-.4574 2.008-.666.904-.2889 1.768-.321 2.688-.5537.328-.0802 1.016-.5616 1.096-.1444.08-.1845.44-.3209.504-.4012.016-.016-.056-.2969.048-.4333l1.312-.698-.192-.2407c.224-.0803.8-.5457.952-.5858.104-.024.168.1124.296.1043.776-.0401 1.288-.698 1.784-.7943.336-.0722.728.0401 1.016-.0241.04 0 .184-.3049.352-.2888l.192.2888c-.072-.5135.328-.2728.592-.3129.408-.0642.664-.1284 1.072-.1685.24-.0241.44-.4413.584 0 .232.0481 1.144-.3049 1.24-.2809.056.0161.016.2568.576.1846.184-.0241.28-.1364.376-.1525.2-.032.52.1124.768-.1364l.136.2167c.28.2648.104-.1284.192-.1765.472-.0161.688-.4895 1.152-.4253l-.048.4814c.256-.0963.328-.8425.424-.9067.16-.1043.416-.0962.592-.1765.792-.345 1.624-1.0912 2.304-1.3319.344-.1204.384-.1204.76-.2889.152-.0642.792-.2487.816-.2808.056-.0642-.032-.329.152-.4734.184-.1444.784-.2167.968-.3691.08-.0642.096-.2086.16-.2648.192-.1765.44.0241.368-.4894.048-.0803.608-.1445.728-.2327.12-.0883.336-.5617.48-.6901l-.168-.2407 1.24-.674-.192-.1444.44-.2327-.056-.2808.28-.1043.048.3851c.072-.0963.248-.1926.288-.2889.088-.1765-.096-.3129.04-.4332.248-.1445.896.1043.672-.5216l.384.0963c-.04-.5777.44-.337.704-.3771.032 0 .216-.3691.536-.4413.32-.0722.4.2567.632-.2247.16-.0481.336.0963.456.0722.136-.0241.224-.2648.344-.3209.152-.0722.36 0 .456-.0722.392-.2809.768-.1525 1.272-.2167.136-.016.272-.1123.424-.1364.424-.0642 1.048.1685.616-.4814l.368.2006.064.2728c.072-.321.264-.1364.472-.1926 1.208-.3209 2.344-.3691 3.624-.3851h2.52c.12-.5938.744-.4092 1.04-.5376.176-.0722.36-.5216.792-.4173l-.096-.1845.568-.2006-.096-.2808c.16.008.248-.1525.328-.2006.232-.1124 0 .3129.24.2888v-.3771l.768-.1043-.048-.1926h-.528l.856-.2888c.088-.2969-.192-.0963-.192-.2889.248-.0882.672-.1685.88-.2888.144-.0803.224-.4253.552-.3852l-.096-.2888.384-.0963.096.2888c.024-.1043-.08-.345.072-.3851.416-.1043.576-.6579 1.072-.5777l-.048-.2889.144.2167c.192.2648.176-.0803.248-.2086.304-.5697.256-.313.656-.2969.056 0 .04-.1364.128-.1846.184-.1043.504-.2968.688-.2006l-.096-.2888c.344.0963.696-.008.96-.2407.088-.0722-.008-.2086.088-.2809.248-.1765.744-.3049 1.056-.337l-.192-.2888c.632.0561.984-.5697 1.616-.4895v-.2808c.36.1364.488-.0481.728-.0963.424-.0882.32.2086.376.1846.152-.0642.312-.3049.616-.337.176-.0161.28.1444.44.1444.144 0 .304-.1605.48-.1846 1.112-.1685 2.408.2969 3.608.0883l.104.1926.344-.0883-.192.2889c.344.0401.56.016.88.2006.152.0882 0 .2888.456.0882.08.2648-.168.1765-.24.2809-.232.3289.216.353.456.4894.056.0321.048.1444.136.1846.664.2647.592-.1124.976-.2408.448-.1524.84.4012 1.2.6259l.096-.1926.24.2407-.424.0482-.048.1926c.4.1685 1.136.5616 1.552.4653.136-.0321.232-.1685.384-.1524.16.016.36.1765.544.1685l-.48.4734c.144 0 .232.1203.352.1605.168.0481.68.1765.888.2728.168.0802.312.3691.6.4493.168.0481.296-.0562.448.0241l-.096.1925c.352.5537.736.4012 1.176.5296.08.0241.056.1605.136.1846.216.0641.912.0962 1.064.2086.088.0722.016.2968.072.3691.096.1283.352.2006.488.3129.064.0481.08.1926.168.2568.16.1283.464.1364.568.3771.024.0642-.04.1765-.032.1845.04.0241.176-.016.248.0321.16.1043.392.7061.448.7542.04.0321.728.2408.944.3772.256.1524.32.4092.344.4252.368.337 1.376.7222 1.856 1.019.176.1124.32.3531.448.4093.472.2246 1.232.3129 1.736.4653 1.352.4012 2.448.8746 3.848 1.1234 1.568.2728 3.736 2.1343 5.168 3.041.232.1524.656.2648.832.4092.176.1444.16.4573.488.5456.36-.4895 1.008-.1123 1.512-.2808.136-.0482.12-.2568.216-.2809.16-.0401.416.0241.632-.016.136-.0241 1.032-.3691.928-.4574-.32.0081-.544.1445-.856 0 .072-.3049.4-.1765.504-.2246.512-.2006.616-.3531 1.256-.3932.192-.016.472.2006.432-.1444h.096l.192.1925-.096-.2888c.312-.0963.632-.2167.936-.3531.12-.0561.112-.1685.136-.1925.16-.1204 3.392-.7783 3.856-.8586.568-.0963.4-.0802.816-.2567.456-.1926.536 0 1.096-.3531.136-.0882 1.792.0562 2.08.0963.312.0481.648.3771.904.4253 1.032.1925 1.728.2327 2.776.674 1.48.6258 3.008 1.4282 4.464 2.1263.512.2487 1.096.5536 1.672.4814.264-.0321.248-.2487.32-.2648.136-.0321.584.0321.608 0l-.096-.1926.432.0963-.048-.1926c.36-.0481.656.2087.984 0 .08-.0481.056-.1925.248-.2487 1.28-.337 3.856-.353 5.12.0482.44.1444.656.2246 1.096.3289 1.064.2648 2.664 1.8936 3.632 2.5837 1.448 1.027 2.88 1.8535 4.6 2.2787 1.392.3451 2.88.666 4.224 1.2196.384.1605.752.4975 1.192.5778.064.4092-.456.016-.664.0962.144.2729 1.088.4093.624.7703-.328.2488-1.248-.2728-1.632-.3851-3.232-.8987-5.344-1.0912-8.28-2.9849-1.12-.7221-2.312-2.038-3.408-2.6077-2.496-1.2918-5.032-.6981-7.648-.2246-1.304.2326-1.16.7622-2.664.1364-2.424-1.003-4.696-2.5035-7.304-3.1052-.216-.0482-.456-.0081-.696-.0642-.344-.0723-.664-.3932-.904-.4333-1.08-.1926-2.328.5697-3.36.7382-2.824.4573-5.6 1.3319-8.4 1.9176-.248.0482-1.032.2006-1.024-.0722l-.44.0883c-.064.2247.064.1605.12.2166.296.2648.48.5376.88.5457 0 .4974.168.337.424.5375.648.4975 1.392 1.0592 1.952 1.677.168.1846.248.5055.368.6339.12.1284.44.2166.6.4012.752.8986.736 1.0591 1.792 1.7251.384.2407.664.9147.928 1.2758.216.2969.448.6258.624 1.019.176.3932.264.4333.52.7221.296.329.696.9147 1.008 1.1956.48.4333 1.448.8104 1.984 1.1554.264.1685.64.8505.776 1.1554.44 1.011.608 1.5406 1.184 2.5435.416.7222.696 1.5486 1.352 2.0862l-.184.0562c.08.4172.584.4734.808.7542.152.1846.104.3932.232.5296.168.1765.568.3851.768.5697.216.2006 1.048 1.1394 1.208 1.1715.552.1283.648-.2729.992-.3932.088-.0321.208.016.288-.008.608-.2167 1.048-.5376 1.624-.8506.088-.0481.328.0081.432-.1524.112.2808.216.3129.52.2889v.2326l.48.1445-.096.1925c.4.0321.752.1284 1.144 0l.048.1926c.192-.345.68 0 .768-.3851l.144.2888c-.36.008-.44.4494-.768.3852l.096.1925c-.648-.1765-1.176.0723-1.808.1043v.2729c-.464-.1204-.44.1604-.6.2246-.616.2728-1.368.4654-1.952.7382-.68.3129-2.168.8345-2.68 1.1715-.056.0401-.056.2086-.176.2487-.168.0562-.424-.008-.608.0161l.096.1925c-.128.0321-.304.0482-.408.1043-.08.0402-.072.1605-.08.1685-.04.0241-.144-.0722-.224-.0642-.136 0-.2.1284-.28.1365-.56.0561-.984-.0963-1.6.0722-.616.1685-.48.2968-1.168.2567-.024 0-.104.2488-.368.313-.328.0802-.808.1123-1.144.1925-.264.0642-.64.5055-.832.0803l.288-.0963c-.328.0401-.88.024-1.176.1123-.176.0482-.176.2086-.256.2969-.072.0802-.376.1043-.12.2568h.216c-.08.0882-.08.3289-.112.361-.088.0803-1.024.2086-1.2.329-.064.0401-.064.2327-.168.2568-.088.016-.24-.1044-.376-.0883-.136.016-.216.1524-.304.1685-.104.016-.248-.1043-.304-.0642-.024.016-.048.2166-.144.2889-.128.0962-.264.0481-.368.0962-.088.0321-.056.1605-.136.1846-.856.2247-2.184.4814-2.92.9628-.216.1364-.544.4093-.728.5296-.208.1364-.784-.016-.768.337-.36-.3932-1.032-.4092-1.456-.0963-.072.0482-.072.1685-.08.1685-.048.0321-1-.0722-1.176-.0321-.24.0562-.376.3451-.6.1204-.208-.2006-.048-.329-.544-.1685l-.152-.2808h-.184l-.024.1685-.12.0321c-.28 0-1.04-.2889-1.136-.2729-.208.0241-.824.1846-1.04.2809-.496.2086-.608.1604-1.056.2969-.136.0401-.192.2166-.32.2487-.072.016-.184-.0803-.208-.0562-.032.0241-.056.2407-.2.321-.104.0561-.528-.0562-.672-.0401-.088.0962.392.1123.096.2407-.184.0802-.496.0481-.752.1123-.392.0963-.648.3932-1.024.5055-.632.1845-1.32.1444-1.96.2568-.272.0481-.52.3209-.608-.0562-.2.4493-.272.2166-.576.2407-.688.0481-1.256.0401-1.888.0802-.32.0241-.8.2247-.88-.1283-.416.5697-.528.1123-.568.1123-.256-.0321-.76.1685-.72-.4012l-.176.0802-.016-.1685h-.192c.016.2408-.096.2006-.288.1926l.288-.3851c-.208.0882-.544-.0241-.704 0-.032 0-.128.1284-.472.2166-.232.0642-.336.1926-.64.0722v.2889l-.24-.0963.048-.2889c-.408-.024-.976-.3209-1.376-.1765-.144.0482-.12.2809-.208.2809-.072 0-.168-.0803-.28-.0803-.4.008-.792 0-1.192.0803l-.152-.5778-.712.2408c0 .0722.424.2728.192.3851-.072.0321-.152-.0321-.224-.0161-.232.0562-.208.2167-.544-.0401l-.096.3852c-.192-.0081.008-.2809-.28-.1926l-.064.1926c-.4-.1445-.568.024-.896.1364-.568.1925-1.104.3209-1.72.5697-.136.0561-.256.2006-.352.2246-.192.0482-.872-.1845-1.168-.0882v-.2809l-.184.0482.04.1444-.104.0883c-.488.1364-.552-.2327-.8-.329-.312-.1204-.696-.1926-.96.0481 0-.2487-.192-.353-.432-.2888-.312.0802.152.3771.048.4814-.92-.1605-1.552.2648-2.384.4814l.192.1926c-.112.008-.28-.0401-.36.0161-.064.0401-.72.9949-.88 1.1794-.208.2408-.464.4333-.672.674-.08.0963-.056.2488-.16.337-.144.1364-.528.2087-.696.3772l.192-.3852-.48-.1926-.192.5778.384.0481c-.272.345-.736.3611-1.144.337l.288-.2889c-.36.0642-.856-.3129-1.048.0963l.672.1926h-1.384c-.168 0-.264-.2889-.288-.2889l-.52.1926c.352-.8826-.6-.1926-.672-.2888l.048-.1926c-.608.0642-.888-.1605-1-.7623.784.0803 1.52.6259 2.264.7302.616.0883 1.312-.1204 1.872-.0963.064 0 .136-.0481.2-.0642l.152.1926v-.2889c-.728-.0722-1.64.1043-2.336 0l-.088.0401Zm-39.4-28.7331c.072-.0722.192-.3691.072-.4493l-.904.9067c.216.3049.312-.1284.448-.2407.104-.0883.304-.1284.384-.2167Zm75.048 21.937-.44-.0642-.704.1605c.552-.0642.952.3129 1.528.1926l-.664-.0963.288-.1926h-.008ZM93.664 60.756c-.16-.1043-.4.2327-.512.2407-.08 0-.184-.1204-.296-.1364-.112-.0161-.224.0561-.392 0-.312-.0883-.544-.3531-.976-.2247-.048.2889.064.1525.232.1926 1.128.2407 1.776.4894 2.92.5296.28.008.584.0882.856.1444l.096-.2889c-.384.0562-.832-.1604-1.24-.2407-.168-.0321-.336.0482-.536-.0241-.168-.0561-.128-.1765-.152-.1925Zm-9.816 1.4202c-.544.2246-1.056.0321-1.576 0-.16-.0161-.28.0722-.4.0802-.168 0-.84-.4734-1.072.0241.328.1123.68.0562 1 .0963.152.016.312.1605.384.1524.064 0 .16-.1364.288-.1604.336-.0562.784.024 1.144 0 .192-.0161.28.0802.24-.1926h-.008ZM54.456 73.5619c-.2.0161-.424-.0321-.616 0-.128.0241-.216.1364-.304.1605-.272.0481-.592-.1525-.696.3209l1.072-.2166.552-.2648h-.008ZM122.768.10431s.128.48143.224-.01604h.128c.144.22466.272.1043.408.11233.336.04012.464.40921-.04.28083-.256-.06419-.616-.29688-.784.06419.328-.01605.656.04814.976.12036.424.09628.688.24071 1.056.37711.416.15246 1.352.43329 1.656.68202.104.08024.224.40922.408.49748-.384.1685-.504-.22467-.72-.43329h-.136c0 .31293-.096.12036-.248.09629l-.048.19257c.36 0 .32.337.48.52155.184.20861.68.42525.904.62585l.032.12838c-.256.20059-.104.53759.2.53759l-.096-.28885c.528-.05617.504.59375.68.98692.32.73016.864 1.2838.896 2.11827.008.28084-.184.61784-.144.91471l.192-.19257.096 1.09124.192.05616v.09629c-.52 0 .12.8104-.096 1.05111l-.288-.09628c.136.38517-.168.73817-.192 1.01097-.056.6179-.096.2809-.24.6098-.056.1204.112.5456-.24.7222.288.3931.472-.5136.616-.5216.168-.008.12.2488.08.3771-.112.4012-.16.2247-.328.4253-.096.1204-.4.6579-.552.8826-.256.3852-.432.8265-.776 1.1314l.192.0963c.048.3209-.344.3771-.536.6178-.976 1.2517-2.112 1.9177-3.448 2.7842-1.064.6981-2.896.3531-4.08.1766-.168-.0241-.992-.3691-1.064-.4734-.064-.0883.096-.2889-.088-.3852l-.144.2889c-.024-.4494-.576-.2167-.88-.3852-.096-.0481-.104-.1845-.232-.2648-.744-.4413-1.768-.5456-2.544-1.1795-.264-.2166-.344-.6178-.824-.5616.296-.5216-.336-.6018-.464-.7863-.032-.0402.056-.1685.024-.2648-.072-.2327-.32-.5296-.392-.7462-.288-.8265-.432-1.9418-.624-2.8244-.192-.88262-.08-2.77623.264-3.70699.048-.13641.256-.57771.328-.70609.056-.09629.2-.04815.296-.05617v-.09628l-.176-.04815c.08-.16047.136-.59376.208-.69807.04-.05616.168-.05616.208-.11233.04-.04814-.04-.21664.024-.36107.224-.52957.768-.6098.864-.72214.04-.04814.032-.17652.072-.24873.056-.09629.2-.17653.216-.26479.016-.09628-.112-.24071-.064-.3049.016-.01605.136-.00802.176-.08024.112-.17652.128-.40921.224-.56969.024-.04012.608-.55364.68-.60178 1.096-.85854 2.392-.97087 3.704-1.26775.608-.1364 1.184-.29688 1.76-.43329.32-.08024 1.808-.1685 2.008 0l.016.02407Zm-5.704 1.21159c-.648.08024-1.296.36107-1.72.85855l1.264-.5055.456-.36107v.00802Zm7.16 5.64874c.008-.39317-.464-.79436-.76-1.011-.128-.09628-.192-.18455-.384-.1364l1.144 1.1474Zm-.544.16047c-.104-.1685-.28-.59376-.416-.68202-.096-.05617-.528-.20059-.568 0-.024.1364.16.22467.232.34502.048.07222.032.22467.072.25676.048.04012.24.00803.36.06419.2.09629.536.66598.576.90669.4.12838-.024-.674-.096-.79435-.032-.06419-.136-.06419-.16-.09629Zm-10.504 4.12419c-.064-.0722-.056-1.67694-.056-1.95777 0-.28083-.032-.61783-.056-.89866l-.288 1.1474-.192-.19257v.4734l.288.05616-.28.20064-.016 1.5967c.416.337.368 1.1554.528 1.693.16.5376.4.7462.656 1.1635.048.0802.04.2246.072.2567.04.0401.296.0241.44.0883.216.0963.384.3289.696.4493.2.0802.456.1284.664.1444l-.384-.337.192-.0963c-.752-.4653-1.168-1.3078-1.544-2.0861-.04-.0803-.256-.8586-.36-.7382l-.096.5777c.072-.345-.064-.6981-.08-1.003 0-.1123.104-.2567.072-.3691-.032-.1203-.208-.1203-.256-.1685Zm8.752-1.98987c-.24-.04012-.168.04012-.232.19257-.064.15246-.208.7061-.256.7542-.016.0161-.136-.0802-.224.0081-.088.0882-.152.2647-.144.3851.16.1765.76-.74621.808-.86656.056-.16048.072-.30491.048-.47341Z"/>
      <path d="M86.52 49.2579c.128.1605-.352.8185-.48.987-.112.1444-.264-.0402-.096.353-.52.0481-.968.3611-1.464.4975-1.44.3931-3.68.6499-5.168.5616-2.04-.1283-3.568-1.1072-5.544-1.3319-.632-.0722-1.144.2006-1.76.329-.912.2006-1.824.5777-2.768.8585-.376.1123-.84.1284-1.248.2808-.608.2327-1.2.7302-1.816.9549-.488.1765-1.944.4092-2.264.6499-.152.1204-.368.7462-.552.9388-.136.1364-.024-.1284-.288.2728-.6.8986-1.464 1.4844-2.368 2.03-.696.4253-.936.9949-1.696 1.4603-1.312.8185-2.2.7944-3.64 1.0351-.68.1123-1.272.3932-2.016.1685-.264-.0802-.608-.3531-.816-.4172-.344-.1044-1.136-.1124-1.464-.1846-.944-.2247-1.584.0481-2.44.4734-.136.0722-.296.2407-.392.2728-.104.0321-.256-.0562-.408-.0241-.392.0723-.64.5296-.992.7382-.664.3852-1.512.4092-2.16 1.0592-.216.2166-.536.8585-.768 1.1233-.152.1765-.6.353-.792.5055l.056.2889-.272.016c-.048.2568-.568.6339-.84.8264-.312.2327-.704.4253-.984.6419-.784.5938-2.184 2.0461-3.12 2.1424-.192.016-.416-.0722-.528-.0481-.104.024-.192.1604-.272.1765-.432.1043-.952 0-1.376.2567l-.056-.2006h-.096c-.128.4494-.752.7142-1.192.7623-.136-.0722.128-.1845.176-.2086.112-.0722.264-.0963.352-.2247-.4-.329-.744.0562-1.152.1765-.112.0321-.232 0-.352.0321-1 .329-1.96.8024-2.984 1.0832.128.2247.376.1284.288.4815-.272-.1445-.6.1444-.912.1845l-.088-.1845c-.464.5536-1.16.3771-1.696.5777-.152.0561-.256.5215-.744.2808l.384-.3771h-.664l.288.1926-.664.1925v.1926l.384-.0963c0 .5135-.576.5456-.904.7623l-.064-.2728-.28-.0642v-.329l-3.376.8585-.136-.1524.088-.2327h-.28v-.4734c.304.0642.928-.3932 1.088-.3932.16 0 .24.2327.424.1926 0-.2407.312-.2728.432-.4734l.144.2889h.184c0-.0883.032-.1685.104-.2327.384-.345.776-.7382 1.336-.6339l-.048-.1926.104-.0882.84.0802.248-.4333.28.0401c.184-.4252 1.112-.4092 1.568-.4814.544-.0882 1.128-.0883 1.616-.3691.136-.0802.04-.329.456-.0882v-.2889l.576.0963-.096-.1926c.28-.1203.48-.0481.76 0l-.192-.2888.48.0962-.096-.1925 1.128-.0161c.288-.5295.592-.6258 1.152-.698.408-.0562.784-.1685 1.28-.2648.424-.0803.784-.1926 1.192-.337.128-.0401.328 0 .392-.0321.056-.0401.056-.329.136-.4413.392-.5376 1.272-1.1153 1.76-1.4924.168-.1284.136-.3772.6-.2568l-.096-.1926c.288.0321.56-.2006.736-.4172.056-.0722.024-.2167.128-.3049.096-.0803.424-.1765.544-.3691.136-.2086-.128-.3129.496-.2648v-.2728c.512.0963.408-.1043.576-.2407.216-.1765.568-.329.768-.5777.144-.1765.168-.4815.28-.5697.032-.0321.152.0241.2-.008.088-.0642.104-.2167.192-.2728.36-.2488 1.16-.4414 1.616-.7783.112-.0803.128-.2729.256-.313.144-.0481.32.0161.448-.008.088-.016-.088-.1043.392-.1444 1.072-.1043 2.136-.9308 3.44-1.003 1.448-.0802 2.784.7221 4.096.5777.144-.016.264-.1284.384-.1444.744-.0883 2-.0241 2.656-.337.248-.1204 1.704-.9147 1.84-1.0431.096-.0963.08-.2568.136-.329.04-.0561.144-.0561.352-.337.52-.698 1.92-1.1554 2.464-1.9257.24-.345.392-.8665.68-1.2356.464-.5938 1.592-.8024 2.312-1.0351 1.04-.329 1.336-.4333 2.312-.9308 1.104-.5697 3.032-1.019 4.28-1.356 1.248-.337 1.672-.5296 3-.2888 1.224.2166 2.176.6338 3.312.9869 1.76.5456 3.6.2487 5.392.1364.544-.0321 1.816.0321 2.28-.1204.144-.0481.208-.2006.32-.2487.264-.1204.544-.1284.792-.3932h-.016ZM75.928 21.3192l-.096.4814c.272.1123.12-.2889.336-.1926.096.0401.208.329.2.4333-.032.3129-.52.2888-.248.6178-.288-.0802-.44.2407-.48.4814l.288-.1925c-.04.4493-.336.6098-.76.4814l.056.2969-.248.1364.384.0963c-.248.1925-.336.5777-.504.7863-.128.1685-.672.7703-.84.9308-.064.0641-.504.4092-.568.345l.048-.1926-.232-.1043.04-.2808c-.104.1845-.504.2888-.592.4092-.312.4012.264.7221.36.1685.224-.0401.224.0481.192.2407-.072.3771-.48.345-.552.4573-.2.2809-.224.329-.568.5457-1.36.8826-2.048 1.0992-3.488 1.7491-.728.337-1.288.7944-2.144 1.003-1.664.4012-2.824 1.5566-4.352 2.1424-.456.1765-1.576.3851-1.88.698-.08.0803-.12.2006-.192.2889l.192.0481-.144.3852-.088-.1766c-.584.0241-.528.2327-.912.6099.336.1043.208.2888.24.337.424.6098 1.344 1.7491 1.856 2.3188.296.329.512.4814.952.5858.176.0401.32-.1364.4.2326l.16-.0722c.08.3852.568.4092.952.5376.352.1204.936.2568 1.24.3771.144.0562.152.2648.328.3451.784.361 2.16.4734 3.064.7382.112.032.088.2326.224.2728.44.1444.984.2326 1.416.3209.064.008.616.658.976.7221.208.0402.288-.2005.472.2327l.368-.1123c.248.3932 1.208.1364 1.728.1926.52.0561 1.12.353 1.536.6098.672.4092 1.328.9949 1.96 1.4683.024.0241.28-.1123.264.2167l.384-.1926-.096.2889.248-.1926c.6-.0802 1.112.3209 1.632.4573 1.184.321 2.04.3691 3.224.3932.744.0161 1.536.0482 2.304.2889.552.1765 2.232 1.1955 2.552 1.6529.536.7702.744 1.8535.528 2.7601-.256-.1364-.528.2488-.568.4815-.288-.0803-.072-.313-.088-.5216-.032-.5055-1.16-1.8454-1.6-2.1423-.864-.5697-2.12-.9308-3.144-1.0592-.752-.0963-1.504.0482-2.232-.2968l.096-.1846c-1.656-.4734-3.128-1.3721-4.632-2.1985-.232-.0802-.088.2086-.024.2648.312.2567 1.032.4975 1.344.7863.152.1364-.104.3691.432.3049.08.2568.056.4333.392.3691.088.2969-.336.2166-.504.1685-.144-.0401-.888-.4253-1.088-.5296-.656-.337-1.904-1.2918-2.552-1.364-.888-.0883-2.112-.0481-2.976-.3691-.24-.0883-.376-.1524-.704-.2568-.2-.0641-.28-.2888-.36-.3209-.416-.1926-1.352-.2006-1.832-.4333-.344-.1685-.104-.1444-.6-.2568-.992-.2407-1.552-.2728-2.528-.7221-1.616-.7382-3.488-1.4924-4.752-2.7923-.112-.1123-.176-.3129-.28-.3931-.104-.0803-.288-.0722-.32-.1043-.04-.0482 0-.2006-.04-.2889-.2-.4573-.76-1.0591-1.08-1.5085-.408-.5696-.48-.4493-.64-1.1795-.024-.1123-.144-.2246-.136-.3049 0-.0401.32-.7221.344-.7542.104-.1203.248-.0401.296-.0642.048-.0241-.112-.329-.048-.4734.056-.1364.272-.3691.376-.4894.432-.4895.848-.9388 1.24-1.4363.32-.4092 1.744-1.2517 2.248-1.4603.272-.1043.56-.1685.856-.1605l-1.768.8586-.144.1925c.272-.0561.4-.1685.624.0803l.336-.313-.192-.1444.264-.0722.072.1765c.608-.2006 1.128-.5937 1.696-.8826.304-.1525.736-.2568 1.016-.4092.28-.1525-.128-.1364-.096-.1926.176-.2006.408-.2648.664-.2407l-.384.1926c-.032.1123.112.1364.184.1444.384.0321.44-.4734.632-.6178.08-.0562.472-.1926.576-.2006.528-.0241.664-.1124 1.28-.337.144-.0562.312-.0401.472-.1043.352-.1284.24-.2969.392-.4654.104-.1204.392-.2086.528-.337.344 0-.096.2407-.144.1926v.0962c.336.0321.528-.3209.856-.0962-.08-.3772.176-.2809.384-.4333.16-.1204.208-.337.336-.4333.336-.2648 1.016-.3129 1.008-.8585.08.1203.592-.0482.616-.0883.072-.1364.016-.3129.144-.4413.096-.0963.472-.2167.672-.3771.872-.6901 1.48-1.9257 2.536-2.5275.136-.0803.256-.1284.416-.1043l.008-.0401Zm-4.2 20.284-1.024-.361c-.992-.6098-2.152-.9308-3.272-1.2598-.08.4413.136.2167.408.3049.776.2488 1.752.6098 2.496.9468.416.1846.528.4253 1.056.4734.096.0081.368.0562.336-.0962v-.0081Zm3.816 1.1474c-.4-.4814-1.08-.8505-1.72-.7622l1.72.7622Zm-31.128-3.0731c-.048.0562-.536.1204-.712.2006-.28.1204-.384.4975-.736.6018-.256.0722-.544-.016-.832.1685l.192.1926c-.328.024-.696.1524-1.016.1845-1.848.1525-3.592-.9388-5.312-.2567-.6.2407-.56 1.011-.76 1.5325-.264.6579-.856 1.0511-1.544 1.1314-.904.0962-1.816-.0482-2.472.4734-.272-.1445-1.168-.0241-1.416.1043-.104.0561-.264.337-.52.4653-1.424.7142-3.688 1.8856-4.896 2.8405-.152.1203-.368.4172-.48.4734-.424.1925-.816-.1525-1.152-.2889-.096-.4253.296-.8425.584-1.1394.752-.7542 3.96-2.7441 4.984-3.1373.344-.1283.768-.0882 1.072-.361l.048.2888c.256-.1043.536-.0642.792-.1203.632-.1284 1.264-.4734 1.864-.6179.536-.1283 1.816-.0963 2.008-.7622.08-.2809-.04-1.2036.4-.987 0-.3289-.072-.8585.384-.7702l-.096-.1926c.328.0241.576-.2407.856-.337.408-.1364 2.32-.3611 2.72-.2808.504.0963 1.08.4012 1.648.4974 1.896.329 2.408-.4573 3.984-1.035.304-.1124.72-.2969.896.0481-.296.1765-.072.5296-.128.6259-.064.1284-.304.1685-.376.2808-.032.0481.04.1605.032.1765h-.016Zm94.768 17.0666c.032.329.328 0 .592.0722v.2889c.336-.1926.576.1123.856.2407 2.64 1.2116 5.384 2.022 7.848 3.8755.256.337 1.048.7301 1.216 1.0992.048.1124-.032.1926-.144.1445-.224-.1044-.168-.5216-.616-.3932-.072-.0802.16-.5296-.392-.1204l-.016.4012-.168.0161c.256.2246.544.6659.896.4894l.104.0803c.088.2407.128.5055.024.7462-.32.3931-1.32-.3611-1.608-.5938-.344-.2808-.528-.337-.792-.5456-.296-.2327-.56-.5456-.824-.8024-.368-.353-.16-.1524-.616-.2888-1.808-.5537-3.496-1.8295-5.16-2.2387-.32-.0802-.688-.0481-.928-.1043-.08-.016-.088-.1926-.224-.2728-.112-.0642-1.272-.5617-1.344-.5777-.288-.0481-.496.2006-.752.2648-.504.1284-.896.0802-1.472.2407-.432.1204-1.136.2728-1.528 0-.112-.0802-.024-.3049 0-.329.056-.0481.672.0161.88-.024.528-.1124 1.336-.7623 1.968-.5697 0-.2247.504-.1766.736-.2167.312-.0561.608-.2407 1-.1444.016-.1364-.248-.1765-.344-.1846-1.264-.1444-2.568.6821-3.856.5697.08-.2808.288-.0882.48-.0963v-.2808c.048-.0561.632.1043.672-.2006l-.288-.0963c.52.1685.68-.0882 1.144-.2407.536-.1765.672-.0722 1.056-.0963.464-.024.976-.4172 1.6-.1203v.008Zm9.088 4.5655-.576-.0963v.2889l-.24-.1926c-.144.4333.392.2648.552.3049.136.0402.176.2167.36.1685-.12-.1925-.24-.2407-.096-.4734Zm-4.424-26.7512c.304.1605.888.6579 1.184.7703.336.1283.24 0 .544.2407 1.832 1.4603 4.064 3.1292 6.328 3.8755 1.28.4252 2.832.4734 4 1.0591.384.1926.76.5697 1.192.7061l.056.2969c-.192-.0321-.4.0561-.584.0481-.2-.016-1.064-.2808-1.224-.3851-.216-.1445-.184-.5537-.76-.2407-.08-.3531-.352-.4333-.488-.0402l.288.337c-.48-.0561-1.296-.6419-1.752-.5536-.088.016-.248.2407-.344.1685-.016-.0161 0-.1284-.056-.1846-.136-.1604-2.312-.6098-2.72-.7221-.408-.1123-.824-.329-1.192-.4333-.152-.0481.2.3611-.096.2889-.6-.4253-1.576-.5537-1.768-1.34l.192-.0963-.288-.0963v.329l-.192.0482c0-.321-.304-.2809-.456-.4093-.248-.2166-.544-.7622-.888-.9708-.248-.1445-.448-.0321-.632-.1204-.264-.1203-.688-.345-.952-.4894-.392-.2087-.712-.6259-1.176-.5938.144-.3049-.08-.3932-.296-.5376l.08-.3771-.256-.1444.088-.4654.568.2888c-.032-.2086.208-.2407.264-.3049.024-.0321-.048-.1283-.016-.1685.16-.2808 1.104.1044 1.344.2327l.008-.016ZM30.016 47.244l-.288.0962.192.1445-.2.4252-.472-.0882.096.1845-.24.0963-.088-.1926c-.472.0883-.36.3691-.456.4574-.368.353-1.36 1.2356-1.8 1.4924-.376.2166-.832.4734-1.208.7542-.064.0482-.104.2167-.28.3451-.664.4653-1.848.4252-2.632.6178-.344.0802-1.96.7382-2.224.9307-.32.2408-.656.6419-1.008.8987-.816.6018-1.696.9789-2.576 1.4363-.432.2246-.928.5777-1.416.8746-.256.1604-1.08.7783-1.304.8023-.072.0081-.864-.0642-.904-.0963l.216-.5456c.944-.6419 1.824-1.4122 2.768-2.0621.832-.5697 1.784-1.003 2.552-1.6529.88-.7382 2.04-1.8695 3.216-2.1343.304-.0642 1.192-.2969 1.416-.3049.208 0 .384.1043.648.0883.416-.0321 2.376-1.0512 2.76-1.332.304-.2247.736-.7302 1.12-.9147.128-.0562.464.0963.664-.0481l-.096-.1926c.24-.0482.152.0321.232.1845L30 47.2279l.016.0161Zm106.712 7.1812-.288.1926c.376 0 1.16-.2969 1.392.0963.016.0241-.176.5536-.192.5777-.04.0642-1.2.5135-1.36.5536-.944.2327-2.272.2327-3.296.4253-.672.1284-1.424.5135-2.096.674-.864.2086-1.968.2006-2.792.4573-.64.2006-2.184.8987-2.76 1.2518-.632.3931-1.152 1.1634-1.784 1.4683-1.264.6018-2.776.7703-3.864 1.677-.152-.2728-.16-.4413.048-.666l-.384.0963s.04-.3611.056-.3852c.048-.0641.712-.5215.832-.5937.888-.5135 1.992-.7783 2.864-1.2437.552-.3049 1.208-.9548 1.712-1.2517.568-.321 1.416-.345 1.952-.6259.272-.1444.688-.5536.976-.6499.208-.0642.416-.016.6-.0642.712-.1925 1.416-.4573 2.168-.4573l-.288-.1926c.592.1685.976-.016 1.528-.1926l-.192-.1925c.36.1043.648.0722.976-.1044.08-.0481.064-.1845.128-.1925.168-.0161.36.1524.632.0882.256-.0561.368-.3851.688-.1765l-.048-.1925c.184-.0161.344.0882.528.0962.16.0081.72.0161.848 0 .08-.016.048-.1604.176-.2166.288-.1204.888-.1926 1.224-.2568h.016Zm13.36 3.8274-.096.1926c.12.016.264.0401.36.1203.288.2568.792 1.4443 1.176 1.9097.72.8746 1.856 1.4523 2.768 2.2226 1.24 1.0431 2.608 2.1503 3.808 3.2656.704.658 1.2 1.2357 2.056 1.7653.328.2006.28.0401.624.4092.072.0802.376.1043.12.2567h-.216c.288 1.1635-1.424.2327-1.912-.0481-.632-.3611-.872-.7783-1.384-1.1955-.552-.4494-1.152-.8586-1.696-1.3079-1.528-1.2598-2.928-2.5436-4.408-3.8595-.448-.4011-1.648-1.9658-1.576-2.5355.04-.345.16-.024.024-.5055-.048-.1604.056-.2968.032-.4172-.024-.1204-.192-.2006-.144-.3691.192.1364.24.1846.48.0963h-.016Z"/>
      <path d="M81.848 52.8927c-.2.3932-.656.5135-1.048.6258-.488.1364-4.016.9228-4.184.7864-.312-.2488-.752-.2728-1.216-.3531-.296-.0561.112.2728-.184.1926-.064-.016-.144-.1123-.24-.0963l.192-.1926c-.352-.0481-.728.1766-1.08.0963-.064-.016-.04-.1524-.192-.2086-.208-.0802-.744-.1765-.968-.1765-.248 0-.08.0642-.048.1926-.368-.1766-.584-.0161-.904 0-.848.0561-1.4.1845-2.2.4734-.416.1524-1.848.9789-2.152.5135-.552-.8505 1.664-1.685 2.248-1.8535.856-.2568 1.696-.2648 2.56-.4012 1.08-.1685 1.64-.3851 2.776-.2568.52.0562 1.432.3451 1.848.3531.136 0 .216-.1525.264-.1525.088 0 .24.3049.4.3531.192.0561.336-.0562.464-.0401.08 0 .184.1364.376.1524 1.064.1284 2.224-.4493 3.296 0l-.008-.008ZM67.24 69.0605l-.4801.337.288.1926-.0959.2407c-.176-.1043-.44-.1284-.608-.008-.088.0642-.0561.2407-.1521.345-.0959.1043-.328.1124-.432.2407-.12-.2487-.12-.4092-.424-.4814.032.2006.0001.2648-.1839.329l.088.4333-.24-.1926c-.36.1765-.216.4333-.288.5697-.096.2006-.52.337-.336.674l-.288-.0963c.072.3129-.192.321-.288.4574-.104.1444-.176.4252-.344.4814-.096.0321-.1681-.0963-.32.0642-.224.2327-.096.4012-.152.5376-.008.024-.224.353-.24.3691-.024.016-.272-.1766-.416.1123-.072.1364.096.4573-.2.5456-.088.0241-.232-.1123-.32.0722l.08.3129c-.32.1926-.656.5376-1 .6821-.272.1123-.584-.0241-.792.345l.192.1444c-.208.0161-.3601.2086-.5281.2889-.272.1203.0881-.2648-.1839-.1926-.4.1123-.12.2407-.144.2808-.448.1043-.936.3451-1.392.3772-.664.0481-.864.032-1.5601.2487-.536.1685-.824.5055-1.432.1444.08.8746-1.0879.3852-1.6239.5777.584-.5697 1.36-.9548 2.096-1.2918 1.36-.6339 2.992-.9227 4.232-1.685 1-.6178 1.272-.9548 1.9279-1.7973.4641-.5858 1.152-1.003 1.48-1.4924.072-.1124-.008-.2247 0-.2327.04-.0321.2721-.0401.4081-.1204.36-.2086.6879-.5777 1.0239-.7863.744-.4654 1.8001-.9227 2.6641-1.019l-.016-.0081Zm81.504-13.0064s-.088.1444-.072.2166c.024.1284.648.5777.792.7222.168.1685.208.4814.52.4894-.04.1926-.408.0642-.552.2086-.112.1124-.08.4092-.168.5617l-.32.0802c-.096-.6017-.664-.8184-1.056-1.1955-.16-.1525-.192-.4012-.472-.4333l.08-.1685c-.496-.1203-.76-.5456-1.136-.7382-.552-.2808-1.184-.7622-1.712-1.1393-1.264-.9148-3.416-1.9739-4.904-2.5516-.272-.1043-.896-.337-1.152-.2728-.072.016-.048.1926-.12.1926-.176 0-.56-.1124-.728-.0723-.104.0241-.168.1605-.288.1525-.144 0-.36-.1846-.544-.1765l.192-.0963.152-.3771c.632.1283 1.248-.1204 1.888-.0963l.104-.1926.528.1926c-.192-.4413-.64-.2006-.912-.2327-.08-.008-.168-.1364-.288-.1444-.352-.0241-.704.008-1.048 0-.12 0-.352.0722-.336-.0963.248.024.472-.1043.712-.1043 1.376.024 2.752.6018 4.032 1.1393 1.744.7222 3.168 1.5807 4.704 2.6559.608.4253 1.2.9629 1.784 1.3721.088.0642.312.0963.32.1123v-.008Z"/>
      <path d="m88.432 50.2128-.096.5777c-.544-.329-.736.6178-1.048.8184-.072.0481-.224-.0642-.328-.0562-.072 0-.048.1525-.128.1926-.128.0642-.352.0802-.504.1043l.096.2889c-.296.0321-.472.2648-.744.3691-.16.0642-.376.024-.392.0401-.088.0802-.032.3049-.288.1845l-.104.329c-.736.0562-1.152.7141-1.792 1.0752-1.576.8987-3.408 2.1102-5.232 2.2226-.224.016-1.256.0321-1.44 0-.192-.0321-.224-.1765-.336-.2247-.312-.1524-1.184.2969-1.496.3049-.128 0-.2-.1364-.28-.1524-.152-.0321-.456.1444-.704-.0241 0-.4413.448-.3932.64-.5055.04-.0241.048-.2247.288-.2407.152-.0161.264.0802.408.0802l-.096-.1926c.2-.024.52-.0321.696-.1043.088-.0401.144-.3289.544-.1845l-.096.1926h.952l-.384-.1926c1.52.1444 2.944-.2487 4.288-.9227 1.832-.9228 3.6-1.9578 5.44-2.8726.144-.0722.256-.2407.456-.3209.184-.0722.376 0 .4-.0161.032-.024.072-.1925.152-.2808.36-.353.6-.3931 1.104-.4734l.024-.016ZM72.2081 30.1212c.04.2006-.104.2167-.224.3049-.152.1124-.6641.3772-.7361.5136-.072.1364.0721.1765.1921.1444.088-.4253.5359-.2086.0479.1926-.488.4011-1.04.7301-1.544 1.0832-.208.1524-.36.5697-.8.4493l.288-.3851c-.432.0481-.792.3209-.664.7622-.168 0-.3359-.016-.5039.0241-.264.0562-.4001.2247-.6401.2648l.2401-.7623c-.2.4734-.3841.2407-.6481.3049-.232.0562-.4399.1926-.7199.2407-.304.0562-.312-.2086-.488.3691-.2-.016-.328-.0802-.512.0401-.096.0642-.0241.2809-.3521.1926l-.096-.2888c0 .361-.064.4734-.448.5536-.36.0722-.728-.0802-.92-.0481-.288.0481-.8959.5536-1.1599.7381-.208-.1364-.0721-.1925-.0481-.3771l-.672-.0963.624-.8585c.16-.0802.36-.2969.52-.345.16-.0482.3201.0882.3761.0481.032-.0241.048-.2086.144-.2888.024-.0241.568-.2568.6-.2648.112-.0241.184.1524.32.1364.544-.0642.984-.6018 1.68-.6901.104-.016.2399.0803.3519.0482.2-.0482.192-.321.376-.4012.584-.2407 1.28-.3129 1.856-.5296.744-.2808 2.4401-1.1153 3.1361-1.1153.136 0 .2799.0642.4319.0482l-.0079-.0081ZM21.216 46.3132c.048.1043.064.2167.08.337.048.3049.136.2568.136.2728.016.2568-.096.5777-.288.7623-.848.8264-2.84 1.8936-3.944 2.4553-.984.4974-1.984 1.0029-3.12.8425l.192-.2889-.48-.0963.096.2889h-.192l-.192-.5216 1.864-1.011.056.1766h.136c1.576-1.2357 3.36-2.1745 5.04-3.2657.208-.1204.424-.0722.616.0401v.008Zm49.848-8.3447-.344.5697c-.616-.1525-1.248-.0562-1.88-.2087-.44-.1043-1.064-.2808-1.504-.4092-.816-.2407-1.712-1.0752-2.576-.6258 0-.1525-.016-.3531-.192-.3852-.016.4975-.456-.0962-.448-.337.048-.4734 1.288-.4894 1.64-.4252.232.0401 1.024.682 1.4.7943.392.1204 1.192.3451 1.576.4253.448.0963 1.048.0481 1.504.2166.296.1043.456.4253.816.3852h.008Zm4.768-12.5332v.2889l.192.0481c-.384.1766-.728 1.2357-.88 1.3721-.072.0642-.568.2969-.696.4012-.368.2969-.6.5777-.896.9147-.152.1765-.448.2728-.624.4253l-.096-.1926c-.192.1524-.4.1284-.48.3851l-.616-.2006c-.08-.3049.12-.2407.184-.361.48-.8746 1.48-1.4122 2.256-2.03.504-.4012.944-1.0993 1.664-1.0512h-.008ZM25.376 70.7295s-.024.1524-.096.1605c-.12 0-.248-.0883-.368-.0883-.448.0161-.848.2167-1.144.5617-.168-.1124-.064-.4253-.336-.3852.016-.2006.312 0 .48-.0401.192-.0401.176-.2327.248-.2487.424-.0722.696-.1445 1.136-.2327.104-.0241.208-.0642.28-.1444.176.2487-.072.3049-.2.4172ZM129.568 9.06687c-.688-.15245-.056-.86656-.288-1.33997.12-.02407.152.17653.168.26479.056.35304.056.72214.12 1.07518Z"/>
    </g>
  </g>
  <defs>
    <clipPath id="a">
      <path fill="#fff" d="M0 0h162v80H0z"/>
    </clipPath>
    <clipPath id="b">
      <path fill="#fff" d="M0 0h160v82.3881H0z" transform="translate(1)"/>
    </clipPath>
  </defs>
</svg>
