<svg xmlns="http://www.w3.org/2000/svg" width="200" height="103" fill="none" viewBox="0 0 200 103">
  <g fill="#3D3F20" clip-path="url(#a)">
    <path d="M90.38 82.02c-.38-.06-1-.46-1.43-.6-.98-.33-1.99-.52-3.05-.47.08.36.59.13.75.15.2.03.61.36.91.32l-.57.33c-.43-.1-.73.06-.5.5l-.36-.06v-.3c-.24-.02-.46.01-.69.08-.36.11-.36.41-.74.04l-.24.24c.1-.2.05-.38.07-.59 0-.11.16-.16-.12-.12-.21.03-.42.16-.66.12.11.32.12.52 0 .83-.47-.19-1.28-.34-1.76-.15-.38.15-.66.66-1.11.62-.22-.2.59-.54.72-.48.06-.54-.47 0-.69.09-.18.08-.39.09-.54.16-.3.15-.44.9-.88 1.17-.16.1-.41.09-.5.16-.07.06-.45.83-.66 1.01-.22.2-.53.21-.8.57-.17.22-.15.54-.24.59-.25.15-.75.34-.93.45-.26.16-.61.74-.71.81-.29.21-.89.27-1.11.41-.17.11-.41.5-.8.75-.63.39-1.68 1.1-2.3 1.4-.24.12-.6.14-.7.2-.08.05-.08.29-.27.39-.19.1-.49.07-.64.17-.1.07-.09.3-.19.43-.21.29-1.52 1.12-1.79.89l.18-.48c-.19.25-.44.12-.66.18-1 .24-1.96.65-2.98.78v.35l.71-.24v.6l-.57.02c-.12.69-.86.69-1.38.95-1.87.92-3.59 2.05-4.97 3.62-.93 1.06-1.6 2.35-2.69 3.28-.45.39-.91.83-1.54.72-.17-.03-.28-.18-.39-.21-.28-.06-.89-.01-1.08-.29-.19-.28.25-1.53.45-1.8.14-.18.46-.22.57-.36.18-.23.18-.54.57-.8.27-.19.66-.12.78-.28.24-.31-.06-.56 0-.65.01-.02.29-.09.42-.24.14-.17.18-.48.28-.55.06-.04.23.09.43-.04.51-.33 1.8-1.5 2.29-1.96.2-.19.67-.94.84-1.04.15-.1.42-.1.6-.21.78-.45 1.21-1.28 2.06-1.41l1.61-1 .12.24c.15-.31.69-.24.78-.3.1-.06.08-.26.27-.34 1-.42 2.13-.31 3.24-.93.32-.18.78-.69 1.15-.86.24-.12.72-.14 1-.33.26-.17.36-.66.59-.9.47-.51 2.06-1.21 2.75-1.61.45-.26.62-.4.96-.7.59-.51 1.48-.6 2.11-.99 1.23-.75 2.09-1.7 3.22-2.52.31-.22 1.7-1.22 1.9-1.31.29-.13 1.07.06 1.08-.55h.24v.24h.12c0-.1.04-.24.12-.3.18-.13 2.63-.49 2.93-.48.28 0 .51.14.75.16.29.03.66-.19.98.09.13.11.1.31.18.42.04.06 1.33.45 1.46.45.19 0 .53-.36.87-.21-.19.25-.23.28-.12.6l.54-.08c.18.08.18.36.37.42.2.07 1.56.03 1.86-.02.57-.09 1.22-.49 1.65-.86l-.24-.06c-.04-.28.26-.41.42-.6l.18.24c.02-.15.06-.33.15-.45.38-.43 1.2-.98 1.64-1.4.33-.32.56-.75.89-1.02 1.68-1.33 4.3-.19 6.19-.37.63-.06.75-.31 1.11-.44.65-.22.87-.48 1.34-.68.13-.05.29.09.48 0 1.53-.79 4.91-1.49 6.73-1.21.49.07 1.1.45 1.58.2l.11.23.36-.2c.25-.03.3.28.32.29.09.05.81-.12.98-.09.08.01.06.19.17.24.44.23 1.75-.06 2.24-.09.7-.04 1.44.18 2.15.21 2.99.12 4.16-.71 6.84-1.47.47-.13 1.4-.2 1.63-.56.87.36 1.86-.36 2.65-.56.14-.04.29.05.4.03.63-.15 2.07-.6 2.64-.51.4.07.38.38.46.44.11.08.34-.1.5-.07.35.06.68.11 1.11.16.32.04 2.16.05 2.37-.02.82-.26 1.48-.59 2.37-.66.09 0 .05-.21.16-.23.16-.04.33.04.52-.06.06-.03.36-.5.38-.51.09-.04.21.06.33.03.28-.09.84-.34 1.19-.47.72-.27 1.34-.7 2.13-.79v-.46c.5-.06-.12.33.37.24-.03-.11.25-.44.33-.47.26-.1.95-.13 1.1-.2.56-.25.79-.34 1.4-.5 1.19-.31 2.33-.6 3.56-.99 1.13-.35 2.55-.74 3.8-.95.04 0 .21-.43.67-.23l-.11-.22.82-.25c.04-.18-.03-.19-.13-.29-.99-.98-2.27-2.03-3.07-3.13-1.07-1.47-2.18-3.57-2.91-5.2-.33-.74-.61-1.52-1.17-2.17-.59-.68-1.53-.92-2.2-1.49-1.07-.92-2.01-2.12-2.79-3.29-1.59-2.4-3.55-4.41-5.63-6.42-1.33-1.29-2.85-2.84-4.3-3.93-.64-.48-1.6-.83-2.25-1.33-1.25-.96-2.4-2.16-4.05-2.49-2.67-.55-5.48-1.58-8.12-2.39-1.96-.6-3.69-1.69-5.26-2.98-.16-.13-.43-.89-.62-1.1-.36-.42-1.04-.51-1.44-.75-.34-.2-.83-.8-1.28-1-.26-.12-1.03-.23-1.16-.33-.1-.08-.07-.35-.17-.43-.17-.14-1.17-.57-1.44-.74-.08-.05-.32-.35-.34-.46-.41.07-.26.5-.69.24l-.07.22c-.11-.19-.35-.18-.5-.28-.06-.04-.08-.2-.16-.25-.15-.09-.36-.06-.54-.18-.26-.16-.39-.7-.48-.73-.47-.12-.38.27-.63.31-.19.03-.53-.25-.84-.07.12-.46-.41-.42-.74-.61-.19-.1.02-.35-.57-.11l.11-.34c-.58-.25-.69-1.07-1.48-.73l-.13-.12.06-.23c-.33-.1-.79-.02-1.1-.13-.13-.05-.14-.25-.28-.35-.18-.12-.14.03-.42-.21-.04-.03-.78.04-.93-.03l.6-.24h-.89l-.06.36-1.12-.13c-.14.15 0 .31-.31.25.01-.23.03-.45-.18-.6-.23.28-.61.25-.92.39-.72.31-1.19.5-1.78.89-.05.03-.21-.11-.33-.04-.12.08-.38.5-.24.66-.32-.02-.43-.07-.55.24l-.34-.11c-.33.31-1.1.89-1.53 1.09-.18.08-.46.05-.54.11-.08.06-.12.49-.32.57l-.07-.22h-.17c-.28.09-.47.49-.56.56-.03.02-.34-.12-.61.04-.33.19-.2.63-.8.34v.35H90l.06.24-.12.1-.22-.09c-.16.36-.55.1-.44.59l-.34-.11c.02.39-.7.48-.79.57-.15.14-.13.32-.22.45-.07.1-.38.18-.32.52l-.42-.22c-.21.34-.69.53-.66.94l-.35-.24c-.01.35-.48.3-.36.72l-.4-.13c-.08.05-.32.45-.34.46-.09.04-.23-.07-.33-.03-.2.08-.31.45-.47.58-.08.06-.61.14-.74.2-.12.05-.16.34-.52.29-.17-.02-.23-.37-.41.05l.24.12c-.36.05-1.04.15-1.13-.24l-.59.25h-5.55l.6.11c.03.2-.43.14-.55.13-.29-.03-.05-.33-.41-.25l.12.48-.45-.06c.19-.36-.18-.19-.22.06h-.45l-.13-.24-.54.24.36.24c-.29.05-.74-.07-.99 0-.13.03-.1.26-.25.33-.14.06-1.06-.16-.9.51l-.48-.24.06.24c-.39-.26-.6.12-.88.17-.14.03-.3-.08-.41-.05-.17.05-.14.3-.28.35-.14.04-.83.07-.87.12l.12.24c-.41.12-.9.04-.84.6l-.3-.24-.72.95c-.12.06.1-.53-.35-.35-.16.07-.41.51-.59.66-.06.05-.21.02-.28.08-.18.13-.04.42-.52.21.12.38-.46.82-.66 1.19l.06-.6h-.48c-.04-.19.15-.08.24-.2.06-.08.21-.35.06-.39-.38.4-.83.7-1.01 1.25l.36.06v-.48l.48.06c-.23.31-.33.69-.54 1.01-.12.18-.4.33-.47.49-.07.16-.04.43-.07.46-.07.07-.82-.06-.71.61l-.36-.07c-.16.12-.07.37-.15.51-.02.04-.16.04-.21.11-.08.12-.05.31-.19.4-.29.19-.83.03-1.01.16-.12.09-.07.33-.13.4-.09.1-.56.09-.72.15-.11.04-.08.23-.16.23s-.21-.11-.29-.06c-.11.07-.14.38-.3.41l-.46-.12c-.11.48-.41.08-.55.18-.06.05-.09.22-.2.31-.52.4-1.04.21-1.09.25-.04.03-.05.23-.21.33-.6.42-1.85.72-2.46 1.09-.56.34-.6.41-1.27.67-.32.12-.63.32-.98.4l.48-.24-.36-.36.06.24c-.72-.17-.61.69-1.37.48l.12.24c-.37.18-.59-.04-.95-.12v.36c-.74-.66-1.01.18-1.27.23-.13.02-.24-.16-.36-.19-.22-.05-.71.09-.99-.16l.12.36-.6.12.36-.24-.18-.36c-.35.47-.84.09-1.25.05-.92-.11-1.56.03-2.45.19-.49.09-1.13-.24-1.26.48l-.35-.12c.06.54-.64.46-.48 1.08-.32.06-.17-.08-.3-.24-.49.48-.68 1.1-1.07 1.67l-.36-.24c-.12.32-.34.4-.65.24.1.43-.33.41-.54.72l-.18-.24c-.12.13-.23.55-.25.58-.04.05-1.1-.06-1.07.49h-.12c.07-.45-.87-.31-1.12-.22-.18.06-.16.29-.21.32-.04.03-.87.13-.99.01l-.14.25-.58-.13-.25.47-.24-.36-.18.24-.18-.36c-.17.27-.52.13-.66.19-.28.13-.56.42-1.01.41l-.14-.25c-.61-.13-.77.62-1.19.59-.16-.01-.1-.38-.29-.34l-.11.35.23.13c-.47-.16-.45.21-.63.28-.2.08-.64 0-.57-.28h-.12l-.02.33c-.24.16-.44.09-.7.02v.36c-.28-.07-.62-.14-.6.24h-.18l.06-.24-.3.24-.3-.24v.48l-.48-.24v.6l-.14-.21h-.32l-.26.33-.06-.36c-.22.14-.24.36-.35.56-.04.07-.28-.01-.07.27-.4-.1-.41.28-.49.34-.04.03-.21-.12-.34-.05-.3.16-.46.96-1.05.68l-.26.34-.24-.36-.12.72c-.19.03-.09-.05-.12-.15-.08-.36-.39.17-.36.39l-.18-.24c-.35.12-.46.42-.88.25l-.26.71-.47-.12-.06.36-.24-.36c-.38.39-1.03.22-.9.95-.16-.18-.74-.3-.83-.06l.24.18c-.4.16-.31-.32-.53-.23-.11.04-.23.23-.42.3-.28.09-.48-.06-.78.39l-.36-.22c-.15.4-.41.36-.78.24-.3 1.21-1.82 1.73-2.78 2.41-1.81 1.27-3.52002 2.75-5.49002 3.82-1.58.86-3.4 1.11-5.12 1.56-.36.09-.97.57-1.38.18-.09-.09-.4-.83-.39-.98.06-.64 2.19-.99 2.81-1.25.29-.12.9-.6.96-.6.35 0 1.06.2 1.18-.24.09.1.18.24.34.22.09 0 1.11-.55 1.26-.65.32-.2.71-.63.97-.81.28-.2.84-.22 1.07-.61l-.36-.12.59-.18.02-.58.82-.37-.59.54c-.04.26.07.19.25.13.12-.04 1.00002-.53 1.04002-.58.05-.07 0-.23.05-.3.07-.09.77-.23.87-.38.04-.06-.12-.48.24-.6l.06.24c.38.12.33-.17.38-.2.05-.03.14.07.19.05.22-.1.34-.56.27-.8l.36.24v-.24h.24v.22l.18.01c.32-.55.55-.48 1.14-.6l-.12-.36.3.24c.36-.11.27-.36.48-.6l.18.36.6-.24-.36-.24.48-.24.06.36.42-.6.12.24c.3.05.39-.33.65-.42.12-.05.41-.02.59-.06.34-.08.44-.36.91-.11v-.6l.84.07.12-.54.12.24h.6l-.36-.24c.25-.07.57-.18.61-.47l.34.11-.24-.48h.48c0 .08-.25.66.06.59.07-.1.26-.21.3-.3.12-.27-.29-.09-.24-.3.35-.02.31-.48.72-.36l-.07-.35.43-.24-.06.59.54-.24-.36-.18.66-.54.06.24h.24c-.09-.37.62-.24.72-.36.08-.09-.24-.47.06-.59.22-.09.21.51.41.24.02-.02-.03-.17.08-.25.21-.14.63.18.64-.35l.47.24-.12-.35c.32-.11.69-.21.59-.6h.24c-.03.29.09.26.35.24.05-.67.41-.6.54 0l.3-.12c.06-.21-.27-.05-.24-.18.15-.53 1.01-.46 1.53-.62.83-.25 1.67-.57 2.51-.83 1.13-.36 2.21-.4 3.36-.69.41-.1 1.27-.7 1.37-.18.1-.23.55-.4.63-.5.02-.02-.07-.37.06-.54l1.64-.87-.24-.3c.28-.1 1-.68 1.19-.73.13-.03.21.14.37.13.97-.05 1.61-.87 2.23-.99.42-.09.91.05 1.27-.03.05 0 .23-.38.44-.36l.24.36c-.09-.64.41-.34.74-.39.51-.08.83-.16 1.34-.21.3-.03.55-.55.73 0 .29.06 1.43-.38 1.55-.35.07.02.02.32.72.23.23-.03.35-.17.47-.19.25-.04.65.14.96-.17l.17.27c.35.33.13-.16.24-.22.59-.02.86-.61 1.44-.53l-.06.6c.32-.12.41-1.05.53-1.13.2-.13.52-.12.74-.22.99-.43 2.03-1.36 2.88-1.66.43-.15.48-.15.95-.36.19-.08.99-.31 1.02-.35.07-.08-.04-.41.19-.59s.98-.27 1.21-.46c.1-.08.12-.26.2-.33.24-.22.55.03.46-.61.06-.1.76-.18.91-.29.15-.11.42-.7.6-.86l-.21-.3 1.55-.84-.24-.18.55-.29-.07-.35.35-.13.06.48c.09-.12.31-.24.36-.36.11-.22-.12-.39.05-.54.31-.18 1.12.13.84-.65l.48.12c-.05-.72.55-.42.88-.47.04 0 .27-.46.67-.55.4-.09.5.32.79-.28.2-.06.42.12.57.09.17-.03.28-.33.43-.4.19-.09.45 0 .57-.09.49-.35.96-.19 1.59-.27.17-.02.34-.14.53-.17.53-.08 1.31.21.77-.6l.46.25.08.34c.09-.4.33-.17.59-.24 1.51-.4 2.93-.46 4.53-.48h3.15c.15-.74.93-.51 1.3-.67.22-.09.45-.65.99-.52l-.12-.23.71-.25-.12-.35c.2.01.31-.19.41-.25.29-.14 0 .39.3.36v-.47l.96-.13-.06-.24h-.66l1.07-.36c.11-.37-.24-.12-.24-.36.31-.11.84-.21 1.1-.36.18-.1.28-.53.69-.48l-.12-.36.48-.12.12.36c.03-.13-.1-.43.09-.48.52-.13.72-.82 1.34-.72l-.06-.36.18.27c.24.33.22-.1.31-.26.38-.71.32-.39.82-.37.07 0 .05-.17.16-.23.23-.13.63-.37.86-.25l-.12-.36c.43.12.87-.01 1.2-.3.11-.09-.01-.26.11-.35.31-.22.93-.38 1.32-.42l-.24-.36c.79.07 1.23-.71 2.02-.61v-.35c.45.17.61-.06.91-.12.53-.11.4.26.47.23.19-.08.39-.38.77-.42.22-.02.35.18.55.18.18 0 .38-.2.6-.23 1.39-.21 3.01.37 4.51.11l.13.24.43-.11-.24.36c.43.05.7.02 1.1.25.19.11 0 .36.57.11.1.33-.21.22-.3.35-.29.41.27.44.57.61.07.04.06.18.17.23.83.33.74-.14 1.22-.3.56-.19 1.05.5 1.5.78l.12-.24.3.3-.53.06-.06.24c.5.21 1.42.7 1.94.58.17-.04.29-.21.48-.19.2.02.45.22.68.21l-.6.59c.18 0 .29.15.44.2.21.06.85.22 1.11.34.21.1.39.46.75.56.21.06.37-.07.56.03l-.12.24c.44.69.92.5 1.47.66.1.03.07.2.17.23.27.08 1.14.12 1.33.26.11.09.02.37.09.46.12.16.44.25.61.39.08.06.1.24.21.32.2.16.58.17.71.47.03.08-.05.22-.04.23.05.03.22-.02.31.04.2.13.49.88.56.94.05.04.91.3 1.18.47.32.19.4.51.43.53.46.42 1.72.9 2.32 1.27.22.14.4.44.56.51.59.28 1.54.39 2.17.58 1.69.5 3.06 1.09 4.81 1.4 1.96.34 4.67 2.66 6.46 3.79.29.19.82.33 1.04.51.22.18.2.57.61.68.45-.61 1.26-.14 1.89-.35.17-.06.15-.32.27-.35.2-.05.52.03.79-.02.17-.03 1.29-.46 1.16-.57-.4.01-.68.18-1.07 0 .09-.38.5-.22.63-.28.64-.25.77-.44 1.57-.49.24-.02.59.25.54-.18h.12l.24.24-.12-.36c.39-.12.79-.27 1.17-.44.15-.07.14-.21.17-.24.2-.15 4.24-.97 4.82-1.07.71-.12.5-.1 1.02-.32.57-.24.67 0 1.37-.44.17-.11 2.24.07 2.6.12.39.06.81.47 1.13.53 1.29.24 2.16.29 3.47.84 1.85.78 3.76 1.78 5.58 2.65.64.31 1.37.69 2.09.6.33-.04.31-.31.4-.33.17-.04.73.04.76 0l-.12-.24.54.12-.06-.24c.45-.06.82.26 1.23 0 .1-.06.07-.24.31-.31 1.6-.42 4.82-.44 6.4.06.55.18.82.28 1.37.41 1.33.33 3.33 2.36 4.54 3.22 1.81 1.28 3.6 2.31 5.75 2.84 1.74.43 3.6.83 5.28 1.52.48.2.94.62 1.49.72.08.51-.57.02-.83.12.18.34 1.36.51.78.96-.41.31-1.56-.34-2.04-.48-4.04-1.12-6.68-1.36-10.35-3.72-1.4-.9-2.89-2.54-4.26-3.25-3.12-1.61-6.29-.87-9.56-.28-1.63.29-1.45.95-3.33.17-3.03-1.25-5.87-3.12-9.13-3.87-.27-.06-.57-.01-.87-.08-.43-.09-.83-.49-1.13-.54-1.35-.24-2.91.71-4.2.92-3.53.57-7 1.66-10.5 2.39-.31.06-1.29.25-1.28-.09l-.55.11c-.08.28.08.2.15.27.37.33.6.67 1.1.68 0 .62.21.42.53.67.81.62 1.74 1.32 2.44 2.09.21.23.31.63.46.79.15.16.55.27.75.5.94 1.12.92 1.32 2.24 2.15.48.3.83 1.14 1.16 1.59.27.37.56.78.78 1.27.22.49.33.54.65.9.37.41.87 1.14 1.26 1.49.6.54 1.81 1.01 2.48 1.44.33.21.8 1.06.97 1.44.55 1.26.76 1.92 1.48 3.17.52.9.87 1.93 1.69 2.6l-.23.07c.1.52.73.59 1.01.94.19.23.13.49.29.66.21.22.71.48.96.71.27.25 1.31 1.42 1.51 1.46.69.16.81-.34 1.24-.49.11-.04.26.02.36-.01.76-.27 1.31-.67 2.03-1.06.11-.06.41.01.54-.19.14.35.27.39.65.36v.29l.6.18-.12.24c.5.04.94.16 1.43 0l.06.24c.24-.43.85 0 .96-.48l.18.36c-.45.01-.55.56-.96.48l.12.24c-.81-.22-1.47.09-2.26.13v.34c-.58-.15-.55.2-.75.28-.77.34-1.71.58-2.44.92-.85.39-2.71 1.04-3.35 1.46-.07.05-.07.26-.22.31-.21.07-.53-.01-.76.02l.12.24c-.16.04-.38.06-.51.13-.1.05-.09.2-.1.21-.05.03-.18-.09-.28-.08-.17 0-.25.16-.35.17-.7.07-1.23-.12-2 .09s-.6.37-1.46.32c-.03 0-.13.31-.46.39-.41.1-1.01.14-1.43.24-.33.08-.8.63-1.04.1l.36-.12c-.41.05-1.1.03-1.47.14-.22.06-.22.26-.32.37-.09.1-.47.13-.15.32h.27c-.1.11-.1.41-.14.45-.11.1-1.28.26-1.5.41-.08.05-.08.29-.21.32-.11.02-.3-.13-.47-.11-.17.02-.27.19-.38.21-.13.02-.31-.13-.38-.08-.03.02-.06.27-.18.36-.16.12-.33.06-.46.12-.11.04-.07.2-.17.23-1.07.28-2.73.6-3.65 1.2-.27.17-.68.51-.91.66-.26.17-.98-.02-.96.42-.45-.49-1.29-.51-1.82-.12-.09.06-.09.21-.1.21-.06.04-1.25-.09-1.47-.04-.3.07-.47.43-.75.15-.26-.25-.06-.41-.68-.21l-.19-.35h-.23l-.03.21-.15.04c-.35 0-1.3-.36-1.42-.34-.26.03-1.03.23-1.3.35-.62.26-.76.2-1.32.37-.17.05-.24.27-.4.31-.09.02-.23-.1-.26-.07-.04.03-.07.3-.25.4-.13.07-.66-.07-.84-.05-.11.12.49.14.12.3-.23.1-.62.06-.94.14-.49.12-.81.49-1.28.63-.79.23-1.65.18-2.45.32-.34.06-.65.4-.76-.07-.25.56-.34.27-.72.3-.86.06-1.57.05-2.36.1-.4.03-1 .28-1.1-.16-.52.71-.66.14-.71.14-.32-.04-.95.21-.9-.5l-.22.1-.02-.21h-.24c.02.3-.12.25-.36.24l.36-.48c-.26.11-.68-.03-.88 0-.04 0-.16.16-.59.27-.29.08-.42.24-.8.09v.36l-.3-.12.06-.36c-.51-.03-1.22-.4-1.72-.22-.18.06-.15.35-.26.35-.09 0-.21-.1-.35-.1-.5.01-.99 0-1.49.1l-.19-.72-.89.3c0 .09.53.34.24.48-.09.04-.19-.04-.28-.02-.29.07-.26.27-.68-.05l-.12.48c-.24-.01.01-.35-.35-.24l-.08.24c-.5-.18-.71.03-1.12.17-.71.24-1.38.4-2.15.71-.17.07-.32.25-.44.28-.24.06-1.09-.23-1.46-.11v-.35l-.23.06.05.18-.13.11c-.61.17-.69-.29-1-.41-.39-.15-.87-.24-1.2.06 0-.31-.24-.44-.54-.36-.39.1.19.47.06.6-1.15-.2-1.94.33-2.98.6l.24.24c-.14.01-.35-.05-.45.02-.08.05-.9 1.24-1.1 1.47-.26.3-.58.54-.84.84-.1.12-.07.31-.2.42-.18.17-.66.26-.87.47l.24-.48-.6-.24-.24.72.48.06c-.34.43-.92.45-1.43.42l.36-.36c-.45.08-1.07-.39-1.31.12l.84.24h-1.73c-.21 0-.33-.36-.36-.36l-.65.24c.44-1.1-.75-.24-.84-.36l.06-.24c-.76.08-1.11-.2-1.25-.95.98.1 1.9.78 2.83.91.77.11 1.64-.15 2.34-.12.08 0 .17-.06.25-.08l.19.24v-.36c-.91-.09-2.05.13-2.92 0l-.11.05ZM41.13 46.21c.09-.09.24-.46.09-.56l-1.13 1.13c.27.38.39-.16.56-.3.13-.11.38-.16.48-.27Zm93.81 27.34-.55-.08-.88.2c.69-.08 1.19.39 1.91.24l-.83-.12.36-.24h-.01Zm-19.11 2.17c-.2-.13-.5.29-.64.3-.1 0-.23-.15-.37-.17-.14-.02-.28.07-.49 0-.39-.11-.68-.44-1.22-.28-.06.36.08.19.29.24 1.41.3 2.22.61 3.65.66.35.01.73.11 1.07.18l.12-.36c-.48.07-1.04-.2-1.55-.3-.21-.04-.42.06-.67-.03-.21-.07-.16-.22-.19-.24Zm-12.27 1.77c-.68.28-1.32.04-1.97 0-.2-.02-.35.09-.5.1-.21 0-1.05-.59-1.34.03.41.14.85.07 1.25.12.19.02.39.2.48.19.08 0 .2-.17.36-.2.42-.07.98.03 1.43 0 .24-.02.35.1.3-.24h-.01ZM66.82 91.68c-.25.02-.53-.04-.77 0-.16.03-.27.17-.38.2-.34.06-.74-.19-.87.4l1.34-.27.69-.33h-.01ZM152.21.13s.16.6.28-.02h.16c.18.28.34.13.51.14.42.05.58.51-.05.35-.32-.08-.77-.37-.98.08.41-.02.82.06 1.22.15.53.12.86.29999 1.32.46999.52.19 1.69.54 2.07.85.13.1.28.51.51.62-.48.21-.63-.28-.9-.54h-.17c0 .39-.12.15-.31.12l-.06.24c.45 0 .4.42.6.65.23.26.85.53 1.13.78l.04.16c-.32.25-.13.67.25.67l-.12-.36c.66-.07.63.74.85 1.23.4.91 1.08 1.6 1.12 2.64.01.35-.23.77-.18 1.14l.24-.24.12 1.36001.24.07v.12c-.65 0 .15 1.01-.12 1.31l-.36-.12c.17.48-.21.92-.24 1.26-.07.77-.12.35-.3.76-.07.15.14.68-.3.9.36.49.59-.64.77-.65.21-.01.15.31.1.47-.14.5-.2.28-.41.53-.12.15-.5.82-.69 1.1-.32.48-.54 1.03-.97 1.41l.24.12c.06.4-.43.47-.67.77-1.22 1.56-2.64 2.39-4.31 3.47-1.33.87-3.62.44-5.1.22-.21-.03-1.24-.46-1.33-.59-.08-.11.12-.36-.11-.48l-.18.36c-.03-.56-.72-.27-1.1-.48-.12-.06-.13-.23-.29-.33-.93-.55-2.21-.68-3.18-1.47-.33-.27-.43-.77-1.03-.7.37-.65-.42-.75-.58-.98-.04-.05.07-.21.03-.33-.09-.29-.4-.66-.49-.93-.36-1.03-.54-2.42-.78-3.52s-.1-3.46001.33-4.62001c.06-.17.32-.72.41-.88.07-.12.25-.06.37-.07v-.12l-.22-.06c.1-.2.17-.74.26-.87.05-.07.21-.07.26-.14.05-.06-.05-.27.03-.45.28-.66.96-.76 1.08-.9.05-.06.04-.22.09-.31.07-.12.25-.22.27-.33.02-.12-.14-.3-.08-.38.02-.02.17-.01.22-.1.14-.22.16-.51.28-.71.03-.05.76-.69.85-.75 1.37-1.07 2.99-1.21 4.63-1.58.76-.17 1.48-.37 2.2-.54.4-.1 2.26-.21 2.51 0l.02.03Zm-7.13 1.50999c-.81.1-1.62.45-2.15 1.07l1.58-.63.57-.45v.01Zm8.95 7.04c.01-.49-.58-.99-.95-1.26-.16-.12-.24-.23-.48-.17l1.43 1.43Zm-.68.2c-.13-.21-.35-.74-.52-.85-.12-.07-.66-.25-.71 0-.03.17.2.28.29.43.06.09.04.28.09.32.06.05.3.01.45.08.25.12.67.83.72 1.13.5.16001-.03-.84-.12-.99-.04-.08-.17-.08-.2-.12ZM140.22 14.02c-.08-.09-.07-2.09-.07-2.44 0-.35-.04-.77-.07-1.12l-.36 1.43-.24-.24v.59l.36.07-.35.25-.02 1.99c.52.42.46 1.44.66 2.11.2.67.5.93.82 1.45.06.1.05.28.09.32.05.05.37.03.55.11.27.12.48.41.87.56.25.1.57.16.83.18l-.48-.42.24-.12c-.94-.58-1.46-1.63-1.93-2.6-.05-.1-.32-1.07-.45-.92l-.12.72c.09-.43-.08-.87-.1-1.25 0-.14.13-.32.09-.46-.04-.15-.26-.15-.32-.21Zm10.94-2.48c-.3-.05-.21.05-.29.24-.08.19-.26.88-.32.94-.02.02-.17-.1-.28.01-.11.11-.19.33-.18.48.2.22.95-.93 1.01-1.08.07-.2.09-.38.06-.59Z"/>
    <path d="M106.9 61.39c.16.2-.44 1.02-.6 1.23-.14.18-.33-.05-.12.44-.65.06-1.21.45-1.83.62-1.8.49-4.6001.81-6.4601.7-2.55-.16-4.46-1.38-6.93-1.66-.79-.09-1.43.25-2.2.41-1.14.25-2.28.72-3.46 1.07-.47.14-1.05.16-1.56.35-.76.29-1.5.91-2.27 1.19-.61.22-2.43.51-2.83.81-.19.15-.46.93-.69 1.17-.17.17-.03-.16-.36.34-.75 1.12-1.83 1.85-2.96 2.53-.87.53-1.17 1.24-2.12 1.82-1.64 1.02-2.75.99-4.55 1.29-.85.14-1.59.49-2.52.21-.33-.1-.76-.44-1.02-.52-.43-.13-1.42-.14-1.83-.23-1.18-.28-1.98.06-3.05.59-.17.09-.37.3-.49.34-.13.04-.32-.07-.51-.03-.49.09-.8.66-1.24.92-.83.48-1.89.51-2.7 1.32-.27.27-.67 1.07-.96 1.4-.19.22-.75.44-.99.63l.07.36-.34.02c-.06.32-.71.79-1.05 1.03-.39.29-.88.53-1.23.8-.98.74-2.73 2.55-3.9 2.67-.24.02-.52-.09-.66-.06-.13.03-.24.2-.34.22-.54.13-1.19 0-1.72.32l-.07-.25h-.12c-.16.56-.94.89-1.49.95-.17-.09.16-.23.22-.26.14-.09.33-.12.44-.28-.5-.41-.93.07-1.44.22-.14.04-.29 0-.44.04-1.25.41-2.45 1-3.73 1.35.16.28.47.16.36.6-.34-.18-.75.18-1.14.23l-.11-.23c-.58.69-1.45.47-2.12.72-.19.07-.32.65-.93.35l.48-.47h-.83l.36.24-.83.24v.24l.48-.12c0 .64-.72.68-1.13.95l-.08-.34-.35-.08v-.41l-4.22 1.07-.17-.19.11-.29h-.35v-.59c.38.08 1.16-.49 1.36-.49.2 0 .3.29.53.24 0-.3.39-.34.54-.59l.18.36h.23c0-.11.04-.21.13-.29.48-.43.97-.92 1.67-.79l-.06-.24.13-.11 1.05.1.31-.54.35.05c.23-.53 1.39-.51 1.96-.6.68-.11 1.41-.11 2.02-.46.17-.1.05-.41.57-.11v-.36l.72.12-.12-.24c.35-.15.6-.06.95 0l-.24-.36.6.12-.12-.24 1.41-.02c.36-.66.74-.78 1.44-.87.51-.07.98-.21 1.6-.33.53-.1.98-.24 1.49-.42.16-.05.41 0 .49-.04.07-.05.07-.41.17-.55.49-.67 1.59-1.39 2.2-1.86.21-.16.17-.47.75-.32l-.12-.24c.36.04.7-.25.92-.52.07-.09.03-.27.16-.38.12-.1.53-.22.68-.46.17-.26-.16-.39.62-.33v-.34c.64.12.51-.13.72-.3.27-.22.71-.41.96-.72.18-.22.21-.6.35-.71.04-.04.19.03.25-.01.11-.08.13-.27.24-.34.45-.31 1.45-.55 2.02-.97.14-.1.16-.34.32-.39.18-.06.4.02.56-.01.11-.02-.11-.13.49-.18 1.34-.13 2.67-1.16 4.3-1.25 1.81-.1 3.48.9 5.12.72.18-.02.33-.16.48-.18.93-.11 2.5-.03 3.32-.42.31-.15 2.13-1.14 2.3-1.3.12-.12.1-.32.17-.41.05-.07.18-.07.44-.42.65-.87 2.4-1.44 3.08-2.4.3-.43.49-1.08.85-1.54.58-.74 1.99-1 2.89-1.29 1.3-.41 1.67-.54 2.89-1.16 1.38-.71 3.79-1.27 5.35-1.69 1.56-.42 2.09-.66 3.75-.36 1.53.27 2.72.79 4.14 1.23 2.2.68 4.5001.31 6.7401.17.68-.04 2.27.04 2.85-.15.18-.06.26-.25.4-.31.33-.15.68-.16.99-.49h-.02ZM93.66 26.57l-.12.6c.34.14.15-.36.42-.24.12.05.26.41.25.54-.04.39-.65.36-.31.77-.36-.1-.55.3-.6.6l.36-.24c-.05.56-.42.76-.95.6l.07.37-.31.17.48.12c-.31.24-.42.72-.63.98-.16.21-.84.96-1.05 1.16-.08.08-.63.51-.71.43l.06-.24-.29-.13.05-.35c-.13.23-.63.36-.74.51-.39.5.33.9.45.21.28-.05.28.06.24.3-.09.47-.6.43-.69.57-.25.35-.28.41-.71.68-1.7 1.1-2.56 1.37-4.36 2.18-.91.42-1.61.99-2.68 1.25-2.08.5-3.53 1.94-5.44 2.67-.57.22-1.97.48-2.35.87-.1.1-.15.25-.24.36l.24.06-.18.48-.11-.22c-.73.03-.66.29-1.14.76.42.13.26.36.3.42.53.76 1.68 2.18 2.32 2.89.37.41.64.6 1.19.73.22.05.4-.17.5.29l.2-.09c.1.48.71.51 1.19.67.44.15 1.17.32 1.55.47.18.07.19.33.41.43.98.45 2.7.59 3.83.92.14.04.11.29.28.34.55.18 1.23.29 1.77.4.08.01.77.82 1.22.9.26.05.36-.25.59.29l.46-.14c.31.49 1.51.17 2.16.24.65.07 1.4.44 1.92.76.84.51 1.66 1.24 2.45 1.83.03.03.35-.14.33.27l.48-.24-.12.36.31-.24c.75-.1 1.39.4 2.04.57 1.48.4 2.55.46 4.03.49.93.02 1.92.06 2.88.36.69.22 2.79 1.49 3.19 2.06.67.96.93 2.31.66 3.44-.32-.17-.66.31-.71.6-.36-.1-.09-.39-.11-.65-.04-.63-1.45-2.3-2-2.67-1.08-.71-2.65-1.16-3.93-1.32-.94-.12-1.88.06-2.79-.37l.12-.23c-2.07-.59-3.91-1.71-5.79-2.74-.29-.1-.11.26-.03.33.39.32 1.29.62 1.68.98.19.17-.13.46.54.38.1.32.07.54.49.46.11.37-.42.27-.63.21-.18-.05-1.11-.53-1.36-.66-.82-.42-2.38-1.61-3.19-1.7-1.11-.11-2.64-.06-3.72-.46-.3-.11-.47-.19-.88-.32-.25-.08-.35-.36-.45-.4-.52-.24-1.69-.25-2.29-.54-.43-.21-.13-.18-.75-.32-1.24-.3-1.94-.34-3.16-.9-2.02-.92-4.36-1.86-5.94-3.48-.14-.14-.22-.39-.35-.49-.13-.1-.36-.09-.4-.13-.05-.06 0-.25-.05-.36-.25-.57-.95-1.32-1.35-1.88-.51-.71-.6-.56-.8-1.47-.03-.14-.18-.28-.17-.38 0-.05.4-.9.43-.94.13-.15.31-.05.37-.08s-.14-.41-.06-.59c.07-.17.34-.46.47-.61.54-.61 1.06-1.17 1.55-1.79.4-.51 2.18-1.56 2.81-1.82.34-.13.7-.21 1.07-.2l-2.21 1.07-.18.24c.34-.07.5-.21.78.1l.42-.39-.24-.18.33-.09.09.22c.76-.25 1.41-.74 2.12-1.1.38-.19.92-.32 1.27-.51s-.16-.17-.12-.24c.22-.25.51-.33.83-.3l-.48.24c-.04.14.14.17.23.18.48.04.55-.59.79-.77.1-.07.59-.24.72-.25.66-.03.83-.14 1.6-.42.18-.07.39-.05.59-.13.44-.16.3-.37.49-.58.13-.15.49-.26.66-.42.43 0-.12.3-.18.24v.12c.42.04.66-.4 1.07-.12-.1-.47.22-.35.48-.54.2-.15.26-.42.42-.54.42-.33 1.27-.39 1.26-1.07.1.15.74-.06.77-.11.09-.17.02-.39.18-.55.12-.12.59-.27.84-.47 1.09-.86 1.85-2.4 3.17-3.15.17-.1.32-.16.52-.13l.01-.05Zm-5.25 25.28-1.28-.45c-1.24-.76-2.69-1.16-4.09-1.57-.1.55.17.27.51.38.97.31 2.19.76 3.12 1.18.52.23.66.53 1.32.59.12.01.46.07.42-.12v-.01Zm4.77 1.43c-.5-.6-1.35-1.06-2.15-.95l2.15.95Zm-38.9099-3.83c-.06.07-.67.15-.89.25-.35.15-.48.62-.92.75-.32.09-.68-.02-1.04.21l.24.24c-.41.03-.87.19-1.27.23-2.31.19-4.49-1.17-6.64-.32-.75.3-.7 1.26-.95 1.91-.33.82-1.07 1.31-1.93 1.41-1.13.12-2.27-.06-3.09.59-.34-.18-1.46-.03-1.77.13-.13.07-.33.42-.65.58-1.78.89-4.61 2.35-6.12 3.54-.19.15-.46.52-.6.59-.53.24-1.02-.19-1.44-.36-.12-.53.37-1.05.73-1.42.94-.94 4.95-3.42 6.23-3.91.43-.16.96-.11 1.34-.45l.06.36c.32-.13.67-.08.99-.15.79-.16 1.58-.59 2.33-.77.67-.16 2.27-.12 2.51-.95.1-.35-.05-1.5.5-1.23 0-.41-.09-1.07.48-.96l-.12-.24c.41.03.72-.3 1.07-.42.51-.17 2.9-.45 3.4-.35.63.12 1.35.5 2.06.62 2.37.41 3.01-.57 4.98-1.29.38-.14.9-.37 1.12.06-.37.22-.09.66-.16.78-.08.16-.38.21-.47.35-.04.06.05.2.04.22h-.02ZM172.73 70.72c.04.41.41 0 .74.09v.36c.42-.24.72.14 1.07.3 3.3 1.51 6.73 2.52 9.81 4.83.32.42 1.31.91 1.52 1.37.06.14-.04.24-.18.18-.28-.13-.21-.65-.77-.49-.09-.1.2-.66-.49-.15l-.02.5-.21.02c.32.28.68.83 1.12.61l.13.1c.11.3.16.63.03.93-.4.49-1.65-.45-2.01-.74-.43-.35-.66-.42-.99-.68-.37-.29-.7-.68-1.03-1-.46-.44-.2-.19-.77-.36-2.26-.69-4.37-2.28-6.45-2.79-.4-.1-.86-.06-1.16-.13-.1-.02-.11-.24-.28-.34-.14-.08-1.59-.7-1.68-.72-.36-.06-.62.25-.94.33-.63.16-1.12.1-1.84.3-.54.15-1.42.34-1.91 0-.14-.1-.03-.38 0-.41.07-.06.84.02 1.1-.03.66-.14 1.67-.95 2.46-.71 0-.28.63-.22.92-.27.39-.07.76-.3 1.25-.18.02-.17-.31-.22-.43-.23-1.58-.18-3.21.85-4.82.71.1-.35.36-.11.6-.12v-.35c.06-.07.79.13.84-.25l-.36-.12c.65.21.85-.11 1.43-.3.67-.22.84-.09 1.32-.12.58-.03 1.22-.52 2-.15v.01Zm11.36 5.69-.72-.12v.36l-.3-.24c-.18.54.49.33.69.38.17.05.22.27.45.21-.15-.24-.3-.3-.12-.59Zm-5.53-33.34c.38.2 1.11.82 1.48.96.42.16.3 0 .68.3 2.29 1.82 5.08 3.9 7.91 4.83 1.6.53 3.54.59 5 1.32.48.24.95.71 1.49.88l.07.37c-.24-.04-.5.07-.73.06-.25-.02-1.33-.35-1.53-.48-.27-.18-.23-.69-.95-.3-.1-.44-.44-.54-.61-.05l.36.42c-.6-.07-1.62-.8-2.19-.69-.11.02-.31.3-.43.21-.02-.02 0-.16-.07-.23-.17-.2-2.89-.76-3.4-.9-.51-.14-1.03-.41-1.49-.54-.19-.06.25.45-.12.36-.75-.53-1.97-.69-2.21-1.67l.24-.12-.36-.12v.41l-.24.06c0-.4-.38-.35-.57-.51-.31-.27-.68-.95-1.11-1.21-.31-.18-.56-.04-.79-.15-.33-.15-.86-.43-1.19-.61-.49-.26-.89-.78-1.47-.74.18-.38-.1-.49-.37-.67l.1-.47-.32-.18.11-.58.71.36c-.04-.26.26-.3.33-.38.03-.04-.06-.16-.02-.21.2-.35 1.38.13 1.68.29l.01-.02ZM36.27 58.88l-.36.12.24.18-.25.53-.59-.11.12.23-.3.12-.11-.24c-.59.11-.45.46-.57.57-.46.44-1.7 1.54-2.25 1.86-.47.27-1.04.59-1.51.94-.08.06-.13.27-.35.43-.83.58-2.31.53-3.29.77-.43.1-2.45.92-2.78 1.16-.4.3-.82.8-1.26 1.12-1.02.75-2.12 1.22-3.22 1.79-.54.28-1.16.72-1.77 1.09-.32.2-1.35.97-1.63 1-.09.01-1.08-.08-1.13-.12l.27-.68c1.18-.8 2.28-1.76 3.46-2.57 1.04-.71 2.23-1.25 3.19-2.06 1.1-.92 2.55-2.33 4.02-2.66.38-.08 1.49-.37 1.77-.38.26 0 .48.13.81.11.52-.04 2.97-1.31 3.45-1.66.38-.28.92-.91 1.4-1.14.16-.07.58.12.83-.06l-.12-.24c.3-.06.19.04.29.23l1.62-.35.02.02Zm133.39 8.95-.36.24c.47 0 1.45-.37 1.74.12.02.03-.22.69-.24.72-.05.08-1.5.64-1.7.69-1.18.29-2.84.29-4.12.53-.84.16-1.78.64-2.62.84-1.08.26-2.46.25-3.49.57-.8.25-2.73 1.12-3.45 1.56-.79.49-1.44 1.45-2.23 1.83-1.58.75-3.47.96-4.83 2.09-.19-.34-.2-.55.06-.83l-.48.12s.05-.45.07-.48c.06-.08.89-.65 1.04-.74 1.11-.64 2.49-.97 3.58-1.55.69-.38 1.51-1.19 2.14-1.56.71-.4 1.77-.43 2.44-.78.34-.18.86-.69 1.22-.81.26-.08.52-.02.75-.08.89-.24 1.77-.57 2.71-.57l-.36-.24c.74.21 1.22-.02 1.91-.24l-.24-.24c.45.13.81.09 1.22-.13.1-.06.08-.23.16-.24.21-.02.45.19.79.11.32-.07.46-.48.86-.22l-.06-.24c.23-.02.43.11.66.12.2.01.9.02 1.06 0 .1-.02.06-.2.22-.27.36-.15 1.11-.24 1.53-.32h.02Zm16.7 4.77-.12.24c.15.02.33.05.45.15.36.32.99 1.8 1.47 2.38.9 1.09 2.32 1.81 3.46 2.77 1.55 1.3 3.26 2.68 4.76 4.07.88.82 1.5 1.54 2.57 2.2.41.25.35.05.78.51.09.1.47.13.15.32h-.27c.36 1.45-1.78.29-2.39-.06-.79-.45-1.09-.97-1.73-1.49-.69-.56-1.44-1.07-2.12-1.63-1.91-1.57-3.66-3.17-5.51-4.81-.56-.5-2.06-2.45-1.97-3.16.05-.43.2-.03.03-.63-.06-.2.07-.37.04-.52-.03-.15-.24-.25-.18-.46.24.17.3.23.6.12h-.02Z"/>
    <path d="M101.06 65.92c-.25.49-.82.64-1.3099.78-.61.17-5.02 1.15-5.23.98-.39-.31-.94-.34-1.52-.44-.37-.07.14.34-.23.24-.08-.02-.18-.14-.3-.12l.24-.24c-.44-.06-.91.22-1.35.12-.08-.02-.05-.19-.24-.26-.26-.1-.93-.22-1.21-.22-.31 0-.1.08-.06.24-.46-.22-.73-.02-1.13 0-1.06.07-1.75.23-2.75.59-.52.19-2.31 1.22-2.69.64-.69-1.06 2.08-2.1 2.81-2.31 1.07-.32 2.12-.33 3.2-.5 1.35-.21 2.05-.48 3.47-.32.65.07 1.79.43 2.31.44.17 0 .27-.19.33-.19.11 0 .3.38.5.44.24.07.42-.07.58-.05.1 0 .23.17.47.19 1.33.16 2.78-.56 4.1199 0l-.01-.01ZM82.8 86.07l-.6.42.36.24-.12.3c-.22-.13-.55-.16-.76-.01-.11.08-.07.3-.19.43s-.41.14-.54.3c-.15-.31-.15-.51-.53-.6.04.25 0 .33-.23.41l.11.54-.3-.24c-.45.22-.27.54-.36.71-.12.25-.65.42-.42.84l-.36-.12c.09.39-.24.4-.36.57-.13.18-.22.53-.43.6-.12.04-.21-.12-.4.08-.28.29-.12.5-.19.67-.01.03-.28.44-.3.46-.03.02-.34-.22-.52.14-.09.17.12.57-.25.68-.11.03-.29-.14-.4.09l.1.39c-.4.24-.82.67-1.25.85-.34.14-.73-.03-.99.43l.24.18c-.26.02-.45.26-.66.36-.34.15.11-.33-.23-.24-.5.14-.15.3-.18.35-.56.13-1.17.43-1.74.47-.83.06-1.08.04-1.95.31-.67.21-1.03.63-1.79.18.1 1.09-1.36.48-2.03.72.73-.71 1.7-1.19 2.62-1.61 1.7-.79 3.74-1.15 5.29-2.1 1.25-.77 1.59-1.19 2.41-2.24.58-.73 1.44-1.25 1.85-1.86.09-.14-.01-.28 0-.29.05-.04.34-.05.51-.15.45-.26.86-.72 1.28-.98.93-.58 2.25-1.15 3.33-1.27l-.02-.01Zm101.88-16.21s-.11.18-.09.27c.03.16.81.72.99.9.21.21.26.6.65.61-.05.24-.51.08-.69.26-.14.14-.1.51-.21.7l-.4.1c-.12-.75-.83-1.02-1.32-1.49-.2-.19-.24-.5-.59-.54l.1-.21c-.62-.15-.95-.68-1.42-.92-.69-.35-1.48-.95-2.14-1.42-1.58-1.14-4.27-2.46-6.13-3.18-.34-.13-1.12-.42-1.44-.34-.09.02-.06.24-.15.24-.22 0-.7-.14-.91-.09-.13.03-.21.2-.36.19-.18 0-.45-.23-.68-.22l.24-.12.19-.47c.79.16 1.56-.15 2.36-.12l.13-.24.66.24c-.24-.55-.8-.25-1.14-.29-.1-.01-.21-.17-.36-.18-.44-.03-.88.01-1.31 0-.15 0-.44.09-.42-.12.31.03.59-.13.89-.13 1.72.03 3.44.75 5.04 1.42 2.18.9 3.96 1.97 5.88 3.31.76.53 1.5 1.2 2.23 1.71.11.08.39.12.4.14v-.01Z"/>
    <path d="m109.29 62.58-.12.72c-.68-.41-.92.77-1.31 1.02-.09.06-.28-.08-.41-.07-.09 0-.06.19-.16.24-.16.08-.44.1-.63.13l.12.36c-.37.04-.59.33-.93.46-.2.08-.47.03-.49.05-.11.1-.04.38-.36.23l-.13.41c-.92.07-1.44.89-2.24 1.34-1.97 1.12-4.26 2.63-6.54 2.77-.28.02-1.57.04-1.8 0-.24-.04-.28-.22-.42-.28-.39-.19-1.48.37-1.87.38-.16 0-.25-.17-.35-.19-.19-.04-.57.18-.88-.03 0-.55.56-.49.8-.63.05-.03.06-.28.36-.3.19-.02.33.1.51.1l-.12-.24c.25-.03.65-.04.87-.13.11-.05.18-.41.68-.23l-.12.24h1.19l-.48-.24c1.9.18 3.68-.31 5.36-1.15 2.29-1.15 4.5-2.44 6.8-3.58.18-.09.32-.3.57-.4.23-.09.47 0 .5-.02.04-.03.09-.24.19-.35.45-.44.75-.49 1.38-.59l.03-.02ZM89.01 37.54c.05.25-.13.27-.28.38-.19.14-.83.47-.92.64-.09.17.09.22.24.18.11-.53.67-.26.06.24-.61.5-1.3.91-1.93 1.35-.26.19-.45.71-1 .56l.36-.48c-.54.06-.99.4-.83.95-.21 0-.42-.02-.63.03-.33.07-.5.28-.8.33l.3-.95c-.25.59-.48.3-.81.38-.29.07-.55.24-.9.3-.38.07-.39-.26-.61.46-.25-.02-.41-.1-.64.05-.12.08-.03.35-.44.24l-.12-.36c0 .45-.08.59-.56.69-.45.09-.91-.1-1.15-.06-.36.06-1.12.69-1.45.92-.26-.17-.09-.24-.06-.47L76 42.8l.78-1.07c.2-.1.45-.37.65-.43s.4.11.47.06c.04-.03.06-.26.18-.36.03-.03.71-.32.75-.33.14-.03.23.19.4.17.68-.08 1.23-.75 2.1-.86.13-.02.3.1.44.06.25-.06.24-.4.47-.5.73-.3 1.6-.39 2.32-.66.93-.35 3.05-1.39 3.92-1.39.17 0 .35.08.54.06l-.01-.01ZM25.2699 57.72c.06.13.08.27.1.42.06.38.17.32.17.34.02.32-.12.72-.36.95-1.06 1.03-3.55 2.36-4.93 3.06-1.23.62-2.48 1.25-3.9 1.05l.24-.36-.6-.12.12.36h-.24l-.24-.65 2.33-1.26.07.22h.17c1.97-1.54 4.2-2.71 6.3-4.07.26-.15.53-.09.77.05v.01ZM87.58 47.32l-.43.71c-.77-.19-1.56-.07-2.35-.26-.55-.13-1.33-.35-1.88-.51-1.02-.3-2.14-1.34-3.22-.78 0-.19-.02-.44-.24-.48-.02.62-.57-.12-.56-.42.06-.59 1.61-.61 2.05-.53.29.05 1.28.85 1.75.99.49.15 1.49.43 1.97.53.56.12 1.31.06 1.88.27.37.13.57.53 1.02.48h.01Zm5.96-15.62v.36l.24.06c-.48.22-.91 1.54-1.1 1.71-.09.08-.71.37-.87.5-.46.37-.75.72-1.12 1.14-.19.22-.56.34-.78.53l-.12-.24c-.24.19-.5.16-.6.48l-.77-.25c-.1-.38.15-.3.23-.45.6-1.09 1.85-1.76 2.82-2.53.63-.5 1.18-1.37 2.08-1.31h-.01ZM30.47 88.15s-.03.19-.12.2c-.15 0-.31-.11-.46-.11-.56.02-1.06.27-1.43.7-.21-.14-.08-.53-.42-.48.02-.25.39 0 .6-.05.24-.05.22-.29.31-.31.53-.09.87-.18 1.42-.29.13-.03.26-.08.35-.18.22.31-.09.38-.25.52ZM160.71 11.3c-.86-.19-.07-1.08-.36-1.67002.15-.03.19.22.21.33.07.44002.07.90002.15 1.34002Z"/>
  </g>
  <defs>
    <clipPath id="a">
      <path fill="#fff" d="M0 0h200v102.68H0z"/>
    </clipPath>
  </defs>
</svg>
