<svg xmlns="http://www.w3.org/2000/svg" fill="currentColor" viewBox="0 0 107 30">
  <path fill="currentColor" d="M31.5248 12.2732c-.0212-.0318-.1169-.0371-.1594-.0848-.1222-.1324-.2976-.5456-.2445-.7205.5315-.4238.9832-.7629 1.3499-1.3456 1.2914-2.0715 1.0522-4.06881.2126-6.24095-.7122-1.84896-2.1577-2.83437-4.1399-3.17873-.5527-.09536-1.3977-.2384-1.9291-.2384-1.3286 0-2.7103-.21192-4.0601-.12186-.6537.04239-1.4721 0-2.0886.07417-.17.0212-.3188.12715-.5048.13775-.186.0106-.3189-.06888-.4358-.06888-.1382 0-.558.10596-.6484.20662-.1913.21722-.0797.43443-.069.66224.0159.35496 0 .40264-.101.70992-.0266.07417.0372 1.43573.0584 1.58936.0266.17484.2126.42913.2126.63045-.0106.98011.0638 2.0079.0744 2.99861.0107 1.22911.0585 2.49001.2179 3.6926.0744.5616.0266 1.5152.0106 2.0874-.0318.9642.0213 1.9231.0638 2.8503.0106.2755-.0478.6516.1754.8741.0744.0742.186.0583.2498.106.1009.0689.1488.1695.271.2278.2126.1006.3348-.0212.4783.0212.2391.0742.2869.1907.6643.1324.1222-.0212.17-.1271.2232-.1377.085-.0159.1222.0795.17.0953.0585.0159.1169-.0264.1329-.0158l.0531.1271 2.9335.053c.202-.0901.4039-.0159.6165-.1113.2072-.09.4995-.4662.5261-.6781-.0425-.5139-.1541-1.0331-.2019-1.5417-.0319-.3603.0106-.7894-.0213-1.1708-.0106-.0954-.0903-.1802-.0691-.2808v-.0371c.2923-.0212.4092-.196.5421.1377.3454.8371.5314 1.9709.9566 2.7708.0956.1802.271.3709.4517.4663.1328.0688.7759.3072.8981.3231.1541.0159.2551-.0688.3561-.0688.2391 0 .93.2807 1.2169.196.0904-.0265.1223-.1484.2286-.1272l.8662-.053c.2923.0583.6058-.0582.9353-.0158.1488.0211.3135.1324.4358.1324.0744 0 .1488-.0583.2179-.0636.1381-.0106.2923.0212.4198-.0159.0319-.0106.5049-.2702.5527-.3019.542-.4027-.0372-1.351-.2976-1.8013-.5155-.8848-1.2011-2.0556-1.8122-2.8821h.0106Zm-4.3843-5.26609c-.0531.33377-1.0841.80528-1.0841.80528l-.287.06887c0-.09006-.0478-.16423-.0691-.249-.1009-.46091-.0637-1.22381-.0797-1.73241 0-.06887-.0638-.14304-.0691-.21721-.0106-.14834.1276-.33907.0744-.5192.6643.03709 1.2702.28609 1.4349.94833.0531.21721.1063.68872.0744.89534h.0053Zm42.7856-4.9482c-.6005-.55628-1.3711-.56157-2.1151-.81587-.271-.09537-.5208-.32317-.8768-.2596L66.881.85099c-.2657.08477-.457-.13774-.7387-.14834l-.085-.14304-.2764.06887c-.2178-.32847-.4251-.09536-.5739-.14304-.3242-.09536-.6909-.23311-1.0257-.33907-.2232-.06887.0798.16953-.1435.13775-.4782-.06358-.9565-.14834-1.4401-.21192-.0797-.0106-.1223-.05298-.1488-.06357-.0691-.0159.0212.16953-.1063.13774V.01393c-.1382-.04769-.2551.04238-.3827.04238-.3135.0106-.3082.02119-.6058.07417-.6377.11125-1.2648.14304-1.8759.34436-.574.19073-1.791.69403-2.2267 1.06488-.0691.05828-.0744.14304-.1223.19602-.0319.03179-.1169.03709-.1594.08477-.085.09536-.2976.46621-.3879.60396-.7759 1.2556-1.1745 2.33637-.7015 3.78799.3932 1.19203 1.3073 2.41054 2.6252 2.58537-.0159.27549.5846.4927.8556.59866 1.605.64631 3.2099.98541 4.7617 1.81191.2125.1165.3613.302.643.3602l.0319.4874-1.0416.1378c-.101.2755-.4677.1324-.7228.143l-.085-.143-.6483-.0636-.0372.1272c-.1542.0741-.2339-.0901-.3295-.1166-.3136-.0901-.7653-.143-1.0523-.2384-.1169-.0371-.2604-.2013-.4092-.2331-.1116-.0265-.5952 0-.7493-.0424-.7068-.1854-1.3817-.4715-2.1788-.4821-.2711 0-.4943.106-.7919-.0689l-.0797.1484c-.3401-.0742-.6058.2384-.6643.5351-.1754.8847.0213 1.8118.1276 2.7072.0956.8106.1169 2.0185 1.2329 2.0503l-.0744-.1378h.3614l-.1435.1378.6802.0688.0425.1431h.1435l.0319-.1378c.0531.0795.1913.0477.2391.0848.0372.0265.016.1377.1329.1854.1382.053.3932.0636.5527.0954.1966.0424.372.1642.5899.1271l.0478-.1324c.1754-.053.271.0265.2817.196h.1434l.0426-.143.9672.1536.0106.196c.7281.1272 1.4614.1802 2.2001.1484.7281-.0371 1.4402-.2119 2.147-.3656.5952-.1324 1.2223-.3973 1.7378-.6887.9034-.5139 1.9716-1.6106 2.3011-2.5854.287-.8476.2763-1.9178.1913-2.8026-.101-1.08604-.6484-2.07674-1.2914-2.9297-.2657-.34966-.7015-.41324-.8715-.83707-.3455.07947-.4943-.15364-.7919-.27549-.3932-.15364-.8184-.2649-1.2063-.43973-.101-.04238-.1754-.15893-.3082-.15363l.1434-.13775c-.2338-.05298-.3294-.18013-.5792-.06887l.0744-.13775c-.1754.02119-.3242-.09536-.4836-.12185-.1435-.02119-.4305.09007-.5846-.03708-.0266-.0212.0053-.10596-.0585-.12186-.5686-.12715-1.8281-.21721-2.2426-.47151-.3561-.22251-.0053-.31257.2657-.39734.7228-.22781 1.4136.02119 2.1257-.03709l.0851.14835c1.3551-.07947 2.604.45561 3.906.747.4411.09536.9991.249 1.4296.29138.2816.02649.4304-.03708.5048-.31257.0904-.34437.0266-1.13905.0266-1.53639v-.55098c0-.46622.1328-1.29269-.2126-1.60526v-.0159ZM54.0523 14.5885c-1.2967-2.9615-2.5668-5.95485-3.8635-8.89518-.5739-1.29798-1.031-2.55888-1.8334-3.7562-.2179-.32317-.5421-.7576-.8981-.92184-.9247-.43442-1.8494-.41853-2.8379-.37615l-.5261.0265c-.6112.09536-1.573.09536-2.1364.30727-.4889.18543-.4783.48211-.6643.86356-.5367 1.08077-.8343 2.32047-1.3392 3.44363-1.3604 3.05158-2.9494 5.94951-3.89 9.16001-.186.6358-.4996 1.7007-.4039 2.3311.0319.196.1807.3444.3348.4556.356-.3231.6855.1272 1.0363.159.6961.0635 3.0132-.0742 3.3533-.0742.2923 0 .9725-.0848 1.2435-.1589.1116-.0318.2233-.106.3349-.1484.0212-.1483.1753-.1536.2816-.2649.3082-.3337.4039-.7576.4783-1.192.0213-.1377-.0213-.2861.0159-.4185.0426-.1325.3242-.3126.473-.3338.4942-.0689 1.5465-.0318 2.0832 0 .3614.0159.8238.1007 1.1904.143.3295.0371.675.0212.9885.159.1222.4503.4836.7735.6962 1.1549.0638.1113.0691.2649.1382.3656.0584.09.1434.0847.1966.1377.0266.0265.0159.0795.0691.1219.186.143.4251.1695.6536.1854.7865.053 1.5837.1907 2.3755.1007.2073-.0265 1.6103-.0636 2.1576-.1378.1542-.0212.4624-.2649.659-.2808.2285-.3284-.0266-1.3297-.0425-1.3933-.0425-.1537-.2445-.5828-.3189-.7682l-.0053.0053Zm-8.5188-4.4132c-.1913.0159-.3401.0901-.5421.0742-.1116-.0053-.1966-.0583-.2923-.0689-.2125-.0212-.5261.0689-.6483-.143-.101-.17483.6271-1.35626.7334-1.61056l.2816-.04768c.1807.04238.1594.4927.1966.63044.1063.38675.3455.74171.2711 1.1602v.0053Zm60.6095 5.1814c-.042-.1537-.244-.5828-.319-.7682-1.296-2.9615-2.566-5.95485-3.863-8.89518-.574-1.29798-1.031-2.55888-1.834-3.7562-.2174-.32317-.5416-.7576-.8976-.92184C98.3047.58086 97.38.59675 96.3915.63913l-.5261.0265c-.6112.09536-1.573.09536-2.1364.30727-.4889.18543-.4782.48211-.6643.86356-.5367 1.08077-.8343 2.32047-1.3392 3.44363-1.3604 3.05158-2.9494 5.94951-3.8901 9.16001-.186.6358-.4995 1.7007-.4038 2.3311.0318.196.1807.3444.3348.4556.356-.3231.6855.1272 1.0363.159.6961.0635 3.0132-.0742 3.3533-.0742.2923 0 .9725-.0848 1.2435-.1589.1116-.0318.2232-.106.3349-.1484.0212-.1483.1753-.1536.2816-.2649.3082-.3337.4039-.7576.4783-1.192.0213-.1377-.0213-.2861.0159-.4185.0426-.1325.3242-.3126.473-.3338.4943-.0689 1.5465-.0318 2.0832 0 .3614.0159.8237.1007 1.1904.143.3295.0371.675.0212.9885.159.1222.4503.4836.7735.6962 1.1549.0635.1113.0695.2649.1385.3656.058.09.143.0847.196.1377.027.0265.016.0795.069.1219.186.143.426.1695.654.1854.787.053 1.584.1907 2.376.1007.207-.0265 1.61-.0636 2.157-.1378.154-.0212.462-.2649.659-.2808.229-.3284-.026-1.3297-.042-1.3933l-.006.0053Zm-9.3742-5.2502c-.1381.2119-.5686.1112-.8237.1006-.101 0-.2073.053-.3295.0424-.1541-.0106-.5155-.0795-.6164-.1748-.2976-.28081.4038-1.27681.4889-1.48343.101-.2437.0478-.36555.4304-.42383.1276-.02119.3083.06357.3827.15894.0265.03178.2338.40793.2551.45032.085.2331.1275.60396.1913.85826.0425.18542.186.21191.0212.46624v.0053ZM16.5119 1.50791c-.0106-.33907-.0797-.78939-.4676-.91124-.5421-.16953-1.0098-.02649-1.5359-.04238-1.2967-.04238-2.7209.03708-4.0654.07947-.1116 0-.2073.06887-.287.06887-.77059.0212-1.64213-.06357-2.38083 0-.20194.0159-.47828.15364-.64303.14304-.11691-.0106-.20726-.11655-.28697-.11655C5.51127.69203 1.98788.69733 1.98788.69733S.87188.63376.65398.81918c-.21788.18543-.30823.5192-.4464.79469-.35074.69932-.18068 1.99201-.04251 2.7496.0372.20662-.01594.43443.14348.62516.10098.12185.28698.12714.35075.18542.12223.11656.0372.20662.372.22781.53143.03179 1.11601.21192 1.62618.16953.68555-.05298.66429-.10066 1.3339.11126.09034.02649.24446.01589.28166.04238.02125.0106.03188.11126.07971.16424.06909.07947.15943.11655.20726.22251.2232.52979.1116 1.05428.15412 1.58937.04782.59866.17537 1.21321.21788 1.81188.06909 1.05427-.06908 2.14567 0 3.20527.05846.8953.24446 1.8277.36138 2.7178.05314.4344-.0372 1.0119.186 1.4198.04783.0848.18068.143.186.2702.36669 0 .744.0265 1.11069.0106.81309-.0318 1.35515.0212 2.15762.0689.5952.0371.93-.159 1.4508-.2066.5474-.053 1.0363.1801 1.3126-.4027.0638-.1377.1488-.392.1648-.5404.1275-1.2397-.0638-2.739-.0797-3.9681-.016-1.3245.1116-2.82378.0053-4.11646-.0532-.64105-.2179-.94303-.0585-1.65294.016-.06358.1169-.35496.1435-.38675.0478-.04768.5102-.20662.6005-.21721.558-.06888 1.1745-.07947 1.7272-.14305.3188-.03708.6962-.17483 1.0203-.20132.6643-.05827 1.1851.20132 1.3871-.60925.1541-.61456-.0957-1.31388-.1329-1.93374-.0266-.43972.0532-.91123.0425-1.32447l-.0053.0053ZM85.5343 12.7553c-.1541-.641-.7281-.7946-1.3498-.7893l-.0479.1271c-.6217-.106-1.1797.0212-1.7909.0636-.8609.0583-1.5093 0-2.3595-.0689-.3508-.0265-.7175.1007-1.0682-.0636-.0479-.0318-.1276-.2119-.1541-.2808-.2498-.694-.1754-1.4092-.2126-2.11382-.1276-2.38935-.2392-4.65685-.1116-7.06209.0212-.42383.0478-.79998 0-1.23971-.0691-.58806-.4571-.81058-1.0416-.86355-.2976-.0265-.5315.10065-.8237.06357l.0744-.13775c-.2711-.04238-.3667.20132-.6324.05298l-.0532-.12185h-.7068l-.0372.14304-.2126-.13774v.13775h-.1435V.32647h-.1434l-.0107.12715-.17.0106-.0372-.13775c-.1382-.03708-.1701.11126-.3189.13245-.3242.04768-.6908-.03179-1.0044-.03709-.1275 0-.2551.06888-.4198-.02119-.1329.20132-.5474.30728-.675.42383-.0584.05298-.1966.34436-.2019.43443-.1063 1.80128 0 3.67674.1807 5.47272.1329 1.33507.3401 2.67544.3667 4.01577.0212 1.2186.0106 2.5165 0 3.735-.0053.5934-.016 1.4146.2976 1.9338.0638.1059.3242.3549.4411.4079.1647.0689.2869.0318.4304.0689 1.1479.2702 2.6678.2702 3.821.196 2.2267-.143 4.5278 0 6.7386-.2066.4092-.0371.744 0 1.1319-.2225.2126-.1219.1754-.1748.2339-.3338.0159-.0371.0691-.0689.0797-.1218.1966-.7258.1169-1.7271.0531-2.4794-.0265-.3073-.0372-.6517-.1116-.9643l-.0106-.0053ZM29.1971 29.8729v-6.8873h4.4534v1.0384h-3.3267v1.8225h2.8166v1.0383h-2.8166v1.9497h3.3267v1.0384h-4.4534Zm8.6731 0-2.1789-6.8873h1.1798l1.6368 5.2767 1.6262-5.2767h1.1266l-2.1789 6.8873h-1.2116Zm5.7873 0v-6.8873h4.4534v1.0384h-3.3268v1.8225h2.8166v1.0383h-2.8166v1.9497h3.3268v1.0384h-4.4534Zm6.9192 0v-6.8873h1.2967l2.402 4.7999v-4.7999h1.0204v6.8873h-1.0841l-2.6147-5.245v5.245h-1.0203Zm9.0237 0v-5.8383h-2.1789v-1.049h5.4844v1.049H60.727v5.8383h-1.1266ZM67.3965 30c-.8715 0-1.5305-.302-1.9769-.906-.4464-.6039-.6696-1.494-.6696-2.6648 0-1.1709.2232-2.0715.6696-2.6702.4464-.5986 1.1054-.9006 1.9769-.9006.8716 0 1.5306.302 1.977.9006.4464.5987.6696 1.4887.6696 2.6702 0 1.1814-.2232 2.0609-.6696 2.6648-.4464.604-1.1054.906-1.977.906Zm0-1.0596c.9991 0 1.4987-.8371 1.4987-2.5112 0-1.6742-.4996-2.5112-1.4987-2.5112-.9991 0-1.4986.837-1.4986 2.5112 0 1.6741.4995 2.5112 1.4986 2.5112ZM74.5496 30c-.4889 0-.9406-.0689-1.3605-.212-.4198-.143-.8024-.3602-1.1478-.6569l.5845-.9006c.2764.2384.5793.4185.9035.5351.3241.1165.6749.1748 1.0522.1748.4464 0 .7865-.0848 1.015-.2596.2285-.1748.3455-.4238.3455-.747 0-.2596-.0638-.4556-.1967-.5881-.1328-.1324-.3507-.2331-.6536-.3126l-1.116-.2649c-.5687-.1324-.9832-.3549-1.2542-.6569-.271-.302-.4039-.7046-.4039-1.2079 0-.6358.2126-1.1338.6377-1.4993.4252-.3656 1.0204-.5457 1.7856-.5457.8291 0 1.5678.2331 2.2108.6993l-.5527.9219c-.4677-.3762-1.0257-.5616-1.6687-.5616-.4198 0-.7334.0794-.9513.2384-.2179.1589-.3241.392-.3241.694 0 .2278.0637.4026.1966.5351.1329.1324.3507.2331.6537.302l1.116.2755c.5686.1324.9831.3496 1.2541.6516.2711.302.4039.7205.4039 1.2662 0 .6569-.2179 1.1761-.6589 1.5523-.4411.3761-1.0629.5669-1.8707.5669Z"/>
</svg>
