<?xml version="1.0"?><svg version="1.2" baseProfile="tiny-ps" viewBox="0 0 300 300" xmlns="http://www.w3.org/2000/svg" xmlns:xlink="http://www.w3.org/1999/xlink"><title>TRASLA</title><g><g fill="#e6deca" transform="matrix(.1 0 0 -.1 0 300)"><path d="M0 1500V0h3000v3000H0V1500z"/></g><g fill="#b3a696" transform="matrix(.1 0 0 -.1 0 300)"><path d="M1218 2477c-109-41-219-194-278-385-12-37-38-103-60-147l-39-80-7-40c-3-22-5-75-5-117l2-77 15-58c8-32 30-91 50-131l35-72 92-93c96-96 210-187 233-187h14v13l1 12 12-16c7-9 27-23 45-33l32-17v-25c0-34-33-96-77-145l-35-39-60-32-59-31-25-29-24-30v-68h10c5 0 19 20 31 45s24 45 28 45 11-19 17-43l9-42h40l3 58 3 57h9c5 0 12-9 15-20 8-24 18-25 36-4l13 16-13 19-12 20 31 40c18 21 51 55 75 75l44 36 21 44 22 43-7 10-6 10 56-1 56-2 20-25 21-26-5-50c-6-68-37-217-48-231-5-7-22-14-38-17l-28-6-46-38c-25-21-46-44-46-50l-1-13h13c6 0 32 12 57 26l44 25-18-19-17-20 12-8 12-7 28 31 29 32h20c11 0 29-5 40-12l19-12 8 8 8 8-30 26-31 27 9 40c5 22 18 72 29 110 11 39 29 107 41 153l21 83-12 19-12 20h10c5 0 14-9 19-19 10-18 123-109 195-157 17-12 37-29 45-38l13-16h38v13c0 24-30 241-36 259l-5 18h10c6 0 47-18 91-40l81-39 28 5 28 6 14-14c8-8 53-31 101-51l86-37h65l33 21 33 20-5 62c-3 34-7 79-8 99l-2 37-24 26-23 25-31 4c-17 2-71 9-120 16l-88 11-22 14c-11 7-39 16-61 20-55 9-194 55-200 66-10 15-25 10-26-8l-1-18-8 25c-4 14-26 65-49 114l-41 88-44 57c-24 31-58 70-76 86-18 17-63 74-102 128l-69 97-9-5-8-5-6 15-5 15h20l-3 53-4 52 12 55c6 30 19 72 28 92l16 38 65 69c36 37 65 74 65 80v11h-108c-60 0-156 2-213 5l-104 6-37-14zm351-63c-18-19-58-49-86-65-29-17-53-35-53-40v-9l-27 6c-16 4-30 9-32 11-3 2 10 33 28 68l32 65h173l-35-36zm-187 10c7-7-58-153-77-173l-13-13-51 12-51 12-32-21c-18-11-45-32-60-46-16-14-28-23-28-20 0 12 34 72 73 128l40 57 34 21c56 35 150 59 165 43zm146-103-13-21h-69l44 23c25 12 46 22 48 21s-3-11-10-23zm-128-110c0-19 20-12 21 7l1 17 5-15c4-8 14-21 25-28 10-7 18-19 18-25v-12l-9 14-9 14-5-24-4-24-2 28-1 27h-9c-12 0-21-26-21-61v-29h15c8 0 15 4 15 9v9l18-2 17-3-3-24c-5-29-13-39-19-21-3 6-9 12-14 12h-9v-82l15 6 15 5v-9c0-6-5-10-11-10h-11l4-29 4-30-7 5c-4 2-10 27-14 54-4 28-12 56-18 63-7 6-12 18-12 25 0 6-4 13-10 15l-10 2-3-32-3-33h20l7-47 7-48 12-10 12-10-12-23-12-23-7 53-7 52-9-14-10-15v77l-12-4-13-5-5-31-5-30-21 16-21 17 5 14 4 13 9-13 8-14 16 20 15 20-2 25c-1 14 3 35 10 47 14 25 16 53 3 53s-29-22-36-53l-7-27h22l-11-24-12-24-12 11-13 12 8 10c4 6 11 25 15 42l7 33-15-6c-18-6-30-32-21-45l5-9-25-33c-15-19-26-37-26-42v-7l14 5 14 6-5-20c-6-23-12-23-37-4-11 8-26 15-33 15h-13v-27h-31l3 16 3 15 25 13 24 12 7-11 7-11 30 34 30 34-5 8-5 8-21-18-22-18 15 20c7 11 28 36 46 55 17 19 40 51 50 70s23 40 27 47l9 12 14-14c8-7 14-18 14-24zm-418-98-5-28-5 13c-4 13 4 42 11 42 2 0 2-12-1-27zm23-144c-4-5-10-9-15-9h-9l5 15 6 15 9-6 9-5-5-10zm505-7c0-5-7-9-15-9h-14l5 9c3 4 9 8 15 8 5 0 9-4 9-8zm-550-36c0-8-7-16-15-20l-15-5 13 19c14 24 17 25 17 6zm685-288 16-33-20 25c-20 24-26 40-16 40 2 0 12-15 20-32zm-690-186-6-6-9 14c-6 8-10 22-10 30v14l16-22 16-23-7-7zm655-97c0-8-2-15-4-15s-6 7-10 15l-5 15h9c6 0 10-7 10-15zm-521-74c12-16 21-32 21-37 0-10-40 27-51 48l-10 18h10c5 0 19-13 30-29zm931-12c0-14-17-10-23 5l-6 15 15-6c7-3 14-9 14-14zm-242-70-4-13-7 23-6 24 11-11c5-5 8-16 6-23zm72-101c0-4-4-9-9-12l-8-5-11 24-12 25 20-12c11-7 20-16 20-20zm638-3c-3-3-9 2-12 12l-7 18 12-12c7-7 10-15 7-18zM1215 2350l-19-21 10-27 9-27 27-9 26-9 26 17 26 16v47l-18 16-19 17h-50l-18-20zm165-215v-25h20v50h-20v-25z"/></g><g fill="#787268" transform="matrix(.1 0 0 -.1 0 300)"><path d="m1236 2479-39-9-49-36-49-36-39-58c-40-59-97-181-120-255-7-22-30-76-51-120l-39-80-11-60-11-60 5-85 5-85 24-71c13-39 36-91 51-116l26-45 90-92c50-50 95-91 101-91 7 0 35-20 63-45l52-45 10 4c5 2 9 8 8 14l-3 11 15-5c8-4 15-12 15-19v-14l35-12 35-13v-75l-43-62-43-63-82-48-82-49-15-29c-8-16-15-40-15-55v-25h10c5 0 18 20 29 45s24 45 29 45c11 0 22-24 22-50 0-9 6-23 14-29l15-12 11 21 11 21-5 27-6 27 9 14 9 14 11-7c6-4 11-14 11-22 0-21 18-17 31 7l11 21-15 16-16 15 82 84 82 84 17 36c9 21 14 41 12 45l-5 8h119l16-25 16-24v-37c0-46-38-235-51-250-5-6-26-16-47-22l-37-11-40-41c-21-22-36-42-33-46 10-10 46 5 80 34l32 27-8-20c-4-11-10-26-13-32l-5-13h10c6 0 20 13 32 30l21 30h28c15 0 32-5 38-11l11-11 13 8 13 7-31 26-32 26 11 45c6 25 25 97 44 160 18 63 36 132 40 153l6 37-12 15-12 15h10c6 0 17-8 24-18s58-53 113-95 111-86 125-97c52-41 56-25 30 140-11 73-19 134-18 136 2 1 41-16 88-39l85-40 37 2 37 2 8-14c4-8 34-24 65-35l57-21 5 12 4 12 1-16 1-17 16-6c9-3 39-6 67-6l52 1 17 13 17 13 1 29c0 16-3 62-5 103l-6 75-10 12c-5 7-25 19-43 28l-34 16h-46c-52 0-146 18-162 31-6 5-38 14-70 20-65 12-191 54-212 71l-13 11 6-34 5-34-10 15c-5 8-10 21-10 28 0 8-24 64-53 125l-54 112-79 90c-83 94-172 207-181 231-3 8-10 14-15 14h-10l6-25 6-25h-21l7-12 7-13-8 8c-10 9-14 97-4 97h7l-1 73-2 72 20 64 20 63 72 82 72 81-7 6c-4 4-95 9-202 11l-195 5-39-8zm353-55c-18-19-61-52-94-72-33-19-63-40-66-44l-6-9-26 7-27 6v12c0 7 13 37 30 67l29 54 68 6c37 3 81 6 97 7l30 2-35-36zm-199 1c0-3-11-28-25-55s-25-56-25-64-11-27-24-42l-23-28-49 11-48 11-27-14c-15-7-42-27-61-44l-33-30-3 10c-2 6 17 44 43 85l46 74 37 31 37 31 45 14c45 14 110 20 110 10zm148-95-22-30-40 1-41 1 30 10c17 6 41 19 55 29 37 27 44 23 18-11zm-145-67c-7-2-13-11-13-19v-15l9 6 10 5 7-22 8-23 7 25 7 25 1-22 1-23h27l11-25 12-26v-89h-22l4-35 4-35h-28l4-29 4-29-12 5c-6 2-11 10-10 16 0 7-3 33-7 60l-8 47h-10c-5 0-9 7-9 15s-4 15-10 15h-10v-50h19l7-47 6-48 16-18 16-18-10-7c-6-4-13-14-16-22l-5-15-8 47-7 48-19-11-19-10-30 17-29 18 6 30 6 31-16-14-17-14-6-38-7-39h-8c-5 0-9 8-9 18v17l-21 14-22 13-8-14c-5-7-9-20-9-28v-15l-10 15c-5 8-10 11-10 7v-8l-10 6-10 6 15 30 16 30 8-6 9-5 66 76c37 41 76 94 87 117 27 52 38 67 53 66l11-1-12-5zm-392-100c-12-20-14-14-5 12 4 9 9 14 11 11 3-2 0-13-6-23zm-21-63-8-35-1 31c-1 17 2 34 6 37 11 12 12 3 3-33zm30-132c0-5-6-8-14-8h-14l5 21 6 21 8-14c5-7 9-16 9-20zm200-13c0-8-4-15-10-15-5 0-10 7-10 15s5 15 10 15c6 0 10-7 10-15zm-250-24v-19l-15-5-14-6 11 24c13 30 18 31 18 6zm417-33-5-13-1 19c-1 11 2 17 5 13 3-3 4-12 1-19zm167-44 6-15-10 6c-6 3-10 10-10 16 0 14 7 11 14-7zm-117-56-5-13-1 19c-1 11 2 17 5 13 3-3 4-12 1-19zm213-98c12-16 19-30 16-30-2 0-14 14-26 30-12 17-19 30-16 30 2 0 14-13 26-30zm17-75 16-30-19 17c-11 9-28 32-38 50l-19 33 22-20c13-11 30-33 38-50zm-700-12-5-18v70l5-17c2-10 2-26 0-35zm103-10v-13h-15c-16 0-19 9-9 35l7 17 8-14c5-7 9-19 9-25zm-30-53c0-11-2-20-4-20s-6 9-9 20l-5 20h9c5 0 9-9 9-20zm10-58v-17l-10 15c-5 8-10 19-10 23v8l10-6c6-3 10-14 10-23zm-86-44-7-12-8 20c-4 10-8 28-8 39v20l15-28 15-27-7-12zm276 8c0-3-4-8-10-11l-10-6v10c0 6 5 11 10 11 6 0 10-2 10-4zm637-58-5-13v50l5-12c2-7 2-19 0-25zm-867-8c6-11 8-20 6-20-3 0-10 9-16 20s-8 20-6 20c3 0 10-9 16-20zm610-28v-26l-9 10c-4 5-12 22-15 38l-7 29 15-12 16-13v-26zm-470 34c0-3-4-8-10-11l-10-6v10c0 6 5 11 10 11 6 0 10-2 10-4zm471-111 10-20-20 24c-12 13-21 28-21 35v11l10-15c6-8 15-24 21-35zm319 35c0-5-5-10-11-10h-10l6 10c3 6 8 10 11 10 2 0 4-4 4-10zm-602-25c-3-3-9 2-12 12l-7 18 12-12c7-7 10-15 7-18zm887 15 6-10h-10c-5 0-13 5-16 10l-6 10h10c5 0 13-4 16-10zm-1124-26 27-26-5-14-5-13-29 33c-45 51-36 66 12 20zm929-21v-15l-15 12c-8 7-15 16-15 21v8l15-5 15-6v-15zm-236-63 6-35-10 16c-5 8-11 28-14 44l-5 28 8-9c5-5 11-25 15-44zm-479-39 5-10-10-6-10-6v15c0 18 6 21 15 7zm536-74-9-9-23 43-22 44 32-34 32-34-10-10zm639 28c19-23 8-25-14-4l-19 19h10c6 0 16-7 23-15zm-1121-11c18-9 30-18 27-21s-20 4-38 16c-39 25-34 27 11 5zm181-8-11-15-16 6-17 6 20 8c10 4 23 8 28 8l8 1-12-14zm-320 1254-20-20 7-17c10-28 35-53 53-53 9 0 26 9 38 20l22 21v38l-22 15c-30 21-54 20-78-4zm194-194-6-35 7-10c3-6 10-11 16-11h9v90h-19l-7-34zm37-15-1-35 12 12 11 11-11 23-11 23v-34zm-63 13c-5-4-8-16-8-28v-20l11 11 11 11-4 17-3 17-7-8zm-46-27c-5-6-13-22-16-34l-7-23h10c6 0 17 13 26 29l15 30-9 5-9 6-10-13zm-45-17c-9-13-14-27-11-32 3-4-5-22-16-39-12-16-20-32-17-35 7-7 47 51 47 68 0 8 5 19 11 25s9 17 7 24l-4 13-17-24zm-60-58c-15-15-27-35-27-42v-15l31 32 31 31-3 11-4 12-28-29zm200 21c-4-3-7-21-7-40v-33h20v40c0 41-2 45-13 33zm-116-44c-13-38-13-39-3-39 9 0 32 44 32 60 0 22-19 8-29-21zm25-34c-4-14-4-30-1-36l6-9 10 5c5 4 9 19 9 36v29h-9c-5 0-12-11-15-25z"/></g><g fill="#ad3e25" transform="matrix(.1 0 0 -.1 0 300)"><path d="M1253 2480c-52-11-78-24-123-63-70-61-138-180-188-333-17-49-42-111-58-138-15-27-33-74-40-105l-14-56v-136l26-91 25-91 43-66 43-66 73-73c39-39 75-72 80-72 4 0 33-20 63-45 57-46 73-53 79-34l3 10 27-24c15-14 36-28 48-32l20-6 6-25 6-24-22-42c-12-24-38-62-57-86l-35-43-56-28c-32-16-69-42-84-58l-28-29-6-32-6-32h32v18c0 24 28 62 46 62h14v-71l15-6c23-8 28 2 27 44-1 21 1 46 4 55l5 17 15-6 14-5v-40l13 4 12 5 3 23 4 23-13 8-13 8 51 53c28 29 68 72 90 95l41 41 12 51c7 28 16 51 21 51h8l-5-15-6-15h102l21-33 20-32-4-35c-6-44-26-143-41-195l-11-40-50-25c-54-28-123-86-113-95 7-7 65 20 91 43l17 15v-14c0-8-5-20-12-27l-12-12h13c7 0 24 14 38 30l25 30h18c10 0 25-7 34-15 19-19 26-19 26 0v15l-26 12-25 12 5 20c3 12 9 39 12 61s21 90 40 150c18 61 34 124 36 141l3 31-14 17-13 16h14c8 0 25-11 38-25s61-53 108-87c46-35 100-76 119-92l35-30 9 15 9 14-5 30c-28 162-42 250-41 252 1 1 37-17 81-39l80-41 55-6 55-6-3-9-3-9 53-19c29-10 59-16 65-13l13 4v-13c0-19 23-26 80-26h48l21 18 21 17v25c0 14-4 59-8 101l-7 77-25 21c-24 19-33 22-90 26-14 1-52 5-85 9l-60 8-37 19-37 19h-29c-33 0-165 43-199 65l-23 15 7-31 6-32-11 7c-7 4-12 14-12 22 0 16-22 69-76 180l-35 71-71 79c-38 43-100 119-136 167-59 80-89 108-63 59 14-26 14-35 1-27-15 9-12-1 15-55l25-50h-10c-5 0-10 5-10 11 0 7-10 28-22 48l-23 36-1 52-2 53h17l-6 54-5 53 23 79 23 79 73 82 73 82-21 6c-11 4-73 6-137 4-64-1-142 1-172 4l-55 6-42-9zm332-60c-22-23-65-55-95-72l-55-31 13-4 12-5 46 26c26 14 49 26 51 26s-5-13-17-30l-21-30-24-6-23-6-56 12c-31 6-56 13-56 16 0 2 16 36 35 74l35 70h194l-39-40zm-195 1c0-18-68-157-83-170l-16-13-50 7-49 7-24-13c-12-6-38-25-56-40-18-16-37-29-43-29h-10l32 60c70 133 155 197 262 199l37 1v-9zm14-167c3-9 7-25 7-37l2-22 7 35 7 35 2-32 1-33h10c6 0 10 6 10 13 1 6 7-3 15-22l15-33v-108h-22l6-35 7-35-17 7-17 6 6-32 7-33-13 5-12 4-8 61-9 62h-9c-5 0-9 7-9 16v15l-10-6c-5-3-10-15-10-26v-20l9 6 10 5 12-60c6-33 14-60 18-60 3 0 12-9 19-21l13-21-20 7-21 6-1-23v-23l-9 20c-5 11-9 36-9 55l-1 34-16-16-17-16-33 21-34 22 5 30 6 30-15-19c-9-11-19-34-22-53-7-34-24-46-24-15v17l-21 14-22 13-8-14c-5-7-9-20-9-28v-15l-10 15c-5 8-10 11-10 6v-10l-10 10-10 10 20 42c11 22 20 46 20 52 0 5 5 10 10 10 14 0 13-13-2-28l-12-12 8-7 8-8 37 44c20 25 48 58 63 75 15 16 35 46 44 66 18 38 43 70 54 70 5 0 11-7 14-16zm-408-108c-9-26-16-56-16-66v-20h-20l6 28c9 42 36 113 41 108 3-2-3-25-11-50zm49-96c-4-12-9-19-12-17-3 3-2 15 2 27s9 19 12 17c3-3 2-15-2-27zm48-35c-3-9-8-14-10-11-3 3-2 9 2 15 9 16 15 13 8-4zm37-6c-7-11-14-18-17-15s0 12 7 21c18 21 23 19 10-6zm-131-50c-21-12-23-3-8 33l14 33 3-29 4-29-13-8zm-36 5 6-32-18-21c-25-29-33-26-15 7 7 15 14 40 14 56 0 36 5 32 13-10zm73-20c-4-9-9-15-11-12-3 3-3 13 1 22s9 15 11 12c3-3 3-13-1-22zm174 11c0-8-4-15-10-15-5 0-10 7-10 15s5 15 10 15c6 0 10-7 10-15zm-115-15 6-10h-10c-6 0-11 5-11 10 0 6 2 10 4 10 3 0 8-4 11-10zm-88-32-5-13-1 19c-1 11 2 17 5 13 3-3 4-12 1-19zm370-10-5-13v50l5-12c2-7 2-19 0-25zm-380-30-5-13-1 19c-1 11 2 17 5 13 3-3 4-12 1-19zm100 0-5-13-1 19c-1 11 2 17 5 13 3-3 4-12 1-19zm-110-50-5-13v50l5-12c2-7 2-19 0-25zm440-25-5-18v60l5-12c2-7 2-21 0-30zm257-39 6-17-15 13c-17 14-19 20-6 20 5 0 12-7 15-16zm3-120c-5-6-77 86-77 99 0 5 18-14 41-43 22-28 39-54 36-56zm-30-2 16-23-7-7-8-7-15 20c-8 11-24 38-35 60l-20 40 27-30c14-16 33-40 42-53zm-785 36-12-12v10c0 14 12 26 19 19 2-3-1-11-7-17zm97-81 1-18-10 6-10 6 1 42 1 42 8-30c4-16 8-38 9-48zm90 16 1-13h-15c-17 0-18 4-8 39l6 25 8-20c4-10 8-25 8-31zm621-33c6-11 8-20 6-20-3 0-10 9-16 20s-8 20-6 20c3 0 10-9 16-20zm-650-20c0-11-2-20-4-20s-6 9-9 20l-5 20h9c5 0 9-9 9-20zm10-58v-17l-10 15c-5 8-10 19-10 23v8l10-6c6-3 10-14 10-23zm-82-46-2-26-9 9c-4 4-10 25-13 47l-6 39 16-22 16-21-2-26zm502 18v-15l-10 6c-5 3-10 10-10 16 0 5 5 9 10 9 6 0 10-7 10-16zm-230-8c0-3-4-8-10-11l-10-6v10c0 6 5 11 10 11 6 0 10-2 10-4zm643-61 7-40-10 20c-8 19-14 73-6 64 2-2 6-22 9-44zm-854-45v-15l-9 21c-5 12-13 25-19 29-6 3-11 14-11 23v17l20-30c11-16 20-37 19-45zm586 41c3-11 8-30 10-42l5-23-14 15c-7 8-16 26-20 42l-6 27h9c5 0 12-9 16-19zm-465 5c0-3-4-8-10-11l-10-6v10c0 6 5 11 10 11 6 0 10-2 10-4zm781-89-11-11v15c0 9 3 19 7 23l8 7 3-11c3-7-1-17-7-23zm-301-31c0-5-9-1-20 9s-20 25-20 34v16l20-25c11-14 20-29 20-34zm-292 19c-3-3-9 2-12 12l-7 18 12-12c7-7 10-15 7-18zm892 15c0-13-11-13-30 0l-15 10h45v-10zm-1121-30 22-30-6-10-6-10-23 23c-12 12-28 30-35 40l-13 17h38l23-30zm921-15v-14l-14 5c-8 3-16 14-19 25l-5 19 19-11 19-10v-14zm65 5 6-10h-10c-6 0-11 5-11 10 0 6 2 10 4 10 3 0 8-4 11-10zm-262-50 6-35-14 30c-8 17-14 37-15 45v14l9-9c4-6 11-26 14-45zm-43 7c0-29 35-99 55-110 16-9 21-37 6-37-14 0-72 111-78 149l-5 33 11-6c6-4 11-17 11-29zm-475-66 5-10-10-6-10-6v15c0 18 6 21 15 7zm400-22c11-17-1-21-15-4l-12 15h10c6 0 14-5 17-11zm779-25c10-25 1-27-19-4l-18 20h31l6-16zm-1131-6c32-19 57-40 57-50 0-4-9 1-20 12s-26 20-34 20c-7 0-19 7-26 15-15 18-7 19 23 3zm190-14-6-15-14 5c-8 3-18 6-21 7-8 0 29 17 40 18l7 1-6-16zm-111-56-12-12v10c0 14 12 26 19 19 2-3-1-11-7-17zm379 5 14-18-17 14c-17 13-22 21-14 21 2 0 10-8 17-17zm584-1c-3-3-11 0-18 7l-12 12 18-7c10-3 15-9 12-12zm-544-29 14-18-17 14c-17 13-22 21-14 21 2 0 10-8 17-17zm-634 1340c-4-3-7-19-7-34v-29l24-15 25-16 20 11c11 6 25 19 31 30l11 20-11 20-11 20h-38c-21 0-41-3-44-7zm164-109 1-19 5 13c3 7 2 16-1 19-3 4-6-2-5-13zm35-80c-8-29 1-64 15-64h9v90h-9c-5 0-12-12-15-26zm36-19v-30l5 18c2 9 2 23 0 30l-5 12v-30zm-65 9c-4-4-7-17-7-28l1-21 10 18c6 10 9 22 7 28l-3 10-8-7zm-45-27c-5-6-13-22-16-34l-7-23 14 6c8 3 19 16 25 29l11 24-8 6c-5 2-13-1-19-8zm-52-27-11-20h10c6 0 15 9 21 20l11 20h-10c-6 0-15-9-21-20zm-53-50c-34-40-26-55 9-17l25 28-3 11-4 11-27-33zm47 8c-4-7-14-24-22-38l-14-25 17 20c20 24 37 55 31 55-3 0-8-6-12-12zm146-17v-30l10-6 10-6v71h-20v-29zm-104-9c-10-19-16-36-13-38 7-8 39 46 34 59l-4 12-17-33zm24-48v-37l6 6c4 3 8 18 9 32l3 25-9 6-9 5v-37z"/></g><g fill="#463831" transform="matrix(.1 0 0 -.1 0 300)"><path d="M1253 2480c-52-11-78-24-123-63-70-61-138-180-188-333-17-49-42-111-58-138-15-27-33-74-40-105l-14-56v-136l26-91 25-91 43-66 43-66 73-73c39-39 75-72 80-72 4 0 33-20 63-45 85-69 106-60 35 13l-43 44 23-11 22-12v11c0 5-12 20-27 33-14 12-41 35-60 51l-33 28-18 42c-11 22-30 57-44 78l-25 36 1 69 2 69 26 44c14 25 32 73 41 107l16 63-6 57-6 58-14 8-13 8 5 9 6 10 20-13 20-12 23 29c13 15 29 46 36 67 7 22 17 39 22 39 12 0 10-14-4-28l-12-12 8-7 8-8 37 44c20 25 48 58 63 75s36 49 47 71c11 23 27 47 36 55l17 14 9-15c5-8 9-25 10-39l2-25 7 35 7 35 2-32 1-33h10c6 0 10 6 10 13 1 6 7-3 15-22l15-33v-108h-22l6-35 7-35-17 7-17 6 6-32 7-33-13 5-12 4-8 61-9 62h-9c-5 0-9 7-9 16v15l-10-6c-5-3-10-15-10-26v-20l9 6 10 5 12-60c6-33 14-60 18-60 3 0 12-9 19-21l13-21-20 7-21 6-1-23v-23l-9 20c-5 11-9 35-9 54l-1 34-20-18-20-18v-61c1-61 9-136 29-251l11-60 33-80 33-80 55-79 54-79 85-83c47-46 121-110 165-143 44-32 95-72 113-87l34-27 9 14 9 14-5 30c-28 162-42 250-41 252 1 1 37-17 81-39l80-41 55-6 55-6-3-9-3-9 53-19c29-10 59-16 65-13l13 4v-13c0-19 23-26 80-26h48l21 18 21 17v25c0 14-4 59-8 101l-7 77-25 21c-24 19-33 22-90 26-14 1-52 5-85 9l-60 8-37 19-37 19h-29c-33 0-165 43-199 65-13 9-23 14-23 13 0-2 4-18 9-36l10-32h-10c-5 0-12 12-15 28-8 32-32 89-80 188l-35 71-71 79c-38 43-100 119-136 167-59 80-89 108-63 59 14-26 14-35 1-27-15 9-12-1 15-55l25-50h-10c-5 0-10 5-10 11 0 7-10 28-22 48l-23 36-1 52-2 53h17l-6 54-5 53 23 79 23 79 73 82 73 82-21 6c-11 4-73 6-137 4-64-1-142 1-172 4l-55 6-42-9zm332-60c-22-23-65-55-95-72l-55-31 13-4 12-5 46 26c26 14 49 26 51 26s-5-13-17-30l-21-30-24-6-23-6-56 12c-31 6-56 13-56 16 0 2 16 36 35 74l35 70h194l-39-40zm-195 1c0-18-68-157-83-170l-16-13-50 7-49 7-28-16c-16-8-46-31-66-50l-38-35v11c0 21 64 130 103 174 55 62 114 91 190 93l37 1v-9zm-394-275c-9-26-16-56-16-66v-20h-20l6 28c9 42 36 113 41 108 3-2-3-25-11-50zm49-96c-4-12-9-19-12-17-3 3-2 15 2 27s9 19 12 17c3-3 2-15-2-27zm48-35c-3-9-8-14-10-11-3 3-2 9 2 15 9 16 15 13 8-4zm37-4c-5-11-15-23-22-27l-11-7 8 14c21 37 44 55 25 20zm-131-52c-21-12-23-3-8 33l14 33 3-29 4-29-13-8zm-36 5 6-32-18-21c-25-29-33-26-15 7 7 15 14 40 14 56 0 36 5 32 13-10zm73-20c-4-9-9-15-11-12-3 3-3 13 1 22s9 15 11 12c3-3 3-13-1-22zm-29-36-5-13-1 19c-1 11 2 17 5 13 3-3 4-12 1-19zm370-25-5-18v70l5-17c2-10 2-26 0-35zm-380-15-5-13-1 19c-1 11 2 17 5 13 3-3 4-12 1-19zm-10-50-5-13v50l5-12c2-7 2-19 0-25zm80 10-5-13-1 19c-1 11 2 17 5 13 3-3 4-12 1-19zm365-23 5-25h-17v25c0 14 2 25 4 25s6-11 8-25zm252-51 6-17-15 13c-17 14-19 20-6 20 5 0 12-7 15-16zm3-120c-5-6-77 86-77 99 0 5 18-14 41-43 22-28 39-54 36-56zm-30-2 16-23-7-7-8-7-15 20c-8 11-24 38-35 60l-20 40 27-30c14-16 33-40 42-53zm-785 36-12-12v10c0 14 12 26 19 19 2-3-1-11-7-17zm97-81 1-18-10 6-10 6 1 42 1 42 8-30c4-16 8-38 9-48zm711-17c6-11 8-20 6-20-3 0-10 9-16 20s-8 20-6 20c3 0 10-9 16-20zm-201-115 1-20-9 13c-4 8-12 13-17 12-5 0-11 6-12 16l-4 16 12-7 12-8-6 24-7 24 15-25c9-14 15-34 15-45zm-521-9-2-26-9 9c-4 4-10 25-13 47l-6 39 16-22 16-21-2-26zm622-21c0-8 4-15 9-15s16-21 25-46l15-46-16 13c-8 8-24 33-34 57-22 51-22 52-9 52 6 0 10-7 10-15zm293-30 7-40-10 20c-8 19-14 73-6 64 2-2 6-22 9-44zm-854-45v-15l-9 21c-5 12-13 25-19 29-6 3-11 14-11 23v17l20-30c11-16 20-37 19-45zm902-43-11-11v15c0 9 3 19 7 23l8 7 3-11c3-7-1-17-7-23zm-301-31c0-5-9-1-20 9s-20 25-20 34v16l20-25c11-14 20-29 20-34zm375 44 6-10h-10c-5 0-13 5-16 10l-6 10h10c5 0 13-4 16-10zm225-10c0-13-11-13-30 0l-15 10h45v-10zm-1121-30 22-30-6-10-6-10-23 23c-12 12-28 30-35 40l-13 17h38l23-30zm921-15v-14l-14 5c-8 3-16 14-19 25l-5 19 19-11 19-10v-14zm65 5 6-10h-10c-6 0-11 5-11 10 0 6 2 10 4 10 3 0 8-4 11-10zm-262-50 6-35-14 30c-8 17-14 37-15 45v14l9-9c4-6 11-26 14-45zm-43 7c0-29 35-99 55-110 16-9 21-37 6-37-14 0-72 111-78 149l-5 33 11-6c6-4 11-17 11-29zm-75-88c11-17-1-21-15-4l-12 15h10c6 0 14-5 17-11zm779-25c10-25 1-27-19-4l-18 20h31l6-16zm-673-71 14-18-17 14c-17 13-22 21-14 21 2 0 10-8 17-17zm584-1c-3-3-11 0-18 7l-12 12 18-7c10-3 15-9 12-12zm-544-29 14-18-17 14c-17 13-22 21-14 21 2 0 10-8 17-17zm-634 1340c-4-3-7-19-7-34v-29l24-15 25-16 20 11c11 6 25 19 31 30l11 20-11 20-11 20h-38c-21 0-41-3-44-7zm164-109 1-19 5 13c3 7 2 16-1 19-3 4-6-2-5-13zm35-80c-8-29 1-64 15-64h9v90h-9c-5 0-12-12-15-26zm36-19v-30l5 18c2 9 2 23 0 30l-5 12v-30zm-65 9c-4-4-7-17-7-28l1-21 10 18c6 10 9 22 7 28l-3 10-8-7zm-45-27c-5-6-13-22-16-34l-7-23 14 6c8 3 19 16 25 29l11 24-8 6c-5 2-13-1-19-8zm-52-27-11-20h10c6 0 15 9 21 20l11 20h-10c-6 0-15-9-21-20zm-53-50c-34-40-26-55 9-17l25 28-3 11-4 11-27-33zm47 8c-4-7-14-24-22-38l-14-25 17 20c20 24 37 55 31 55-3 0-8-6-12-12zm146-17v-30l10-6 10-6v71h-20v-29zm-104-9c-10-19-16-36-13-38 7-8 39 46 34 59l-4 12-17-33zm-45-20c-13-25-14-42-2-42 10 0 25 50 17 57-2 3-9-4-15-15zm69-28v-37l6 6c4 3 8 18 9 32l3 25-9 6-9 5v-37zm-130-813c0-13 97-99 120-106l20-6 6-25 6-24-22-42c-12-24-38-62-57-86l-35-43-56-28c-32-16-69-42-84-58l-28-29-6-32-6-32h32v18c0 24 28 62 46 62h14v-71l15-6c23-8 28 2 27 44-1 21 1 46 4 55l5 17 15-6 14-5v-40l13 4 12 5 3 23 4 23-13 8-13 8 54 58c30 32 67 68 81 80 31 27 59 82 58 115v23l-9-22c-12-28-24-30-15-3l6 20h-10c-6 0-11-6-11-12l-1-13-10 18c-5 9-15 17-21 17-14 0-110 64-127 84-15 17-31 21-31 7zm363-64c-24-6-43-14-43-18v-9h-70v-20h100l21-32 20-33-4-35c-6-44-26-143-41-195l-11-40-50-25c-54-28-123-86-113-95 7-7 65 20 91 43l17 15v-14c0-8-5-20-12-27l-12-12h13c7 0 24 14 38 30l25 30h18c10 0 25-7 34-15 19-19 26-19 26 0v15l-26 12-25 12 5 20c3 12 9 39 12 61s19 83 36 135c16 52 33 116 37 143l8 47-11 9c-13 10-28 10-83-2z"/></g><g fill="#060504" transform="matrix(.1 0 0 -.1 0 300)"><path d="m1249 2477-56-13-42-33c-75-59-141-165-191-304-9-26-20-50-23-54-4-3-7-14-7-24s-18-53-39-96l-40-78-11-64-11-63 5-67 6-66 24-75c13-41 36-97 51-123l27-48 78-82c43-46 91-89 106-97s46-32 69-52c37-35 65-48 65-31 0 4-26 31-57 61l-58 54 30-15c17-8 53-39 80-69 27-29 63-60 80-68l30-15 3-27 3-26-21-43c-24-46-106-139-124-139-20-1-105-59-120-82-8-13-18-35-21-50l-7-28h22l16 40 16 40h38v-24c0-35 10-56 26-56h14l1 53c1 28 1 55 0 60 0 4 6 7 15 7h16l5-20c6-24 21-26 29-5l6 15-12 15-13 16 24 27c13 15 47 50 75 77 54 53 94 110 94 134v15l-15-20-14-19-1 24c0 13-3 22-6 18-3-3-38 15-77 40l-72 46-83 81-83 81-25 45c-14 25-34 60-46 79l-21 33v61l1 61 30 60c46 92 57 137 54 229l-2 47h-30v20c0 23 4 24 30 10l18-10 26 31c14 16 31 48 37 69 7 22 16 40 21 40 11 0 10-17-3-42l-11-20 15 9c23 13 104 114 137 170 17 28 38 57 46 64l15 12 9-9c4-5 10-18 13-29l4-20-2 28-2 27h12c6 0 16-5 23-12l12-12v-55l10-6 10-6 1-72 2-72 7 85 7 85 17 39c9 21 16 41 16 45 0 3-26 6-57 6-32 0-71 4-86 8l-28 8 6 18c3 10 19 44 36 75l31 56h193l-55-53c-31-28-74-62-95-75l-40-23 25 7c14 4 42 18 63 31 40 25 46 21 21-17-9-14 14 8 52 49s70 77 72 81l3 8-153 5c-84 3-166 8-183 11l-30 5-56-12zm84-14c-7-2-19-2-25 0l-13 5h50l-12-5zm36-100c-49-108-52-114-70-123l-16-9-38 10-37 11-23-6c-12-3-46-27-74-52-29-26-54-44-58-41-3 3 16 42 41 86l47 80 40 40 40 40 42 15 42 14 47 1 47 1-30-67zm-354-180c-21-49-34-90-35-105 0-9-4-20-10-23l-10-6 1 28c1 34 39 123 52 123h9l-7-17zm26-146-11-11v11c0 6 3 20 7 30l7 18 4-19 4-18-11-11zm-35-73c-7-18-26-18-26 1 0 8 6 27 13 42l12 28 3-29c2-15 1-34-2-42zm94 59c0-5-5-15-10-23l-10-15v45h10c6 0 10-3 10-7zm40 0c-1-10-39-60-40-51 0 14 23 58 32 58 4 0 8-3 8-7zm-180-40c0-10 3-28 6-39l6-22-23-21c-29-27-34-21-15 18l16 31-6 25-6 25h22v-17zm67-55-16-8-12-55c-13-57-15-60-37-47l-13 9 10 24 10 24 1-25v-25l10 15c5 8 10 27 10 42v27l13 13c7 7 17 22 22 33l8 20 5-19 4-19-15-9zm53-87c0-6-4-12-9-15l-9-6-6 15-5 15h14c8 0 15-4 15-9zm-202-172c-1-17-6-33-10-35l-8-5v71h20l-2-31zm91-84 1-30-10 15-10 15 1 40 1 40 8-25c4-14 8-38 9-55zm-16-102 14-28-7-25-6-25-17 43-17 43 5 10c9 14 13 11 28-18zm57-103 20-40h-8c-5 0-18 18-31 40l-22 40h10c6 0 20-18 31-40zm83-92 24-33v-38l-39 42-39 41 6 10c11 17 23 11 48-22zm127 1056-13-15 9-27 9-27 28-3 28-3 15 12 14 11v22c0 12-5 27-12 34l-12 12h-54l-12-16zm55-4 6-10h-10c-6 0-11 5-11 10 0 6 2 10 4 10 3 0 8-4 11-10zm155-95c0-11 5-27 10-35l10-15v20c0 11-5 27-10 35l-10 15v-20zm-10-107c0-49 5-47 13 5l6 37h-19v-42zm-34 7c-9-26-7-32 5-12 6 10 9 21 6 23-2 3-7-2-11-11zm66-5v-25l5 13c2 6 2 18 0 25l-5 12v-25zm-106-9c-3-4-10-21-16-37l-10-29 20 24c11 13 20 29 20 37 0 16-6 18-14 5zm-50-27c-9-24-2-26 12-4l12 20h-9c-5 0-12-7-15-16zm80-29c-9-26-7-32 5-12 6 10 9 21 6 23-2 3-7-2-11-11zm-121-13c-19-14-48-52-39-51 5 0 19 13 32 30 24 29 25 35 7 21zm181-24c6-45 14-48 14-5v37h-17l3-32zm-106-3c-6-15-13-32-16-36-3-5-3-9 0-9 9 0 38 61 32 67-3 3-10-7-16-22zm72-10c0-22 4-53 8-70l8-30v30c1 17-3 48-7 70l-9 40v-40zm64-7 6-38h-34l5-12c3-7 8-21 12-31l7-17-16 6-16 6v-10c0-6 5-14 10-17 6-3 10-11 10-17v-10l-15 12-14 12-7-27c-8-34-14-27-24 32l-8 48-2-60-2-60-8 25c-4 14-5 39-3 55l4 30-12-25-11-25 6-80c7-90 26-186 35-180 4 2 5-11 3-29l-4-32 34-85 34-85 48-72 48-72 91-94c86-87 193-177 245-205l22-12 18 10 19 10v-30l-15 6-14 5 4-12c2-6 15-18 28-27l23-16-7 78c-4 43-16 126-26 184-11 59-18 108-16 111 3 2 8-11 11-29l7-34 86-40c47-22 95-40 107-41 11-1 32-2 48-3l27-1v-26l48-17 48-18 19 7 18 7-7-11-7-11 20-10c22-12 104-15 115-4l7 7-22 12-22 12h53v-19l10 6c5 3 10 13 10 21v15l-9-5-9-6-16 25-16 25h14c8 0 19-7 23-15l8-14-3 77-3 77-30 28-29 27-43 1c-58 0-183 24-199 37-7 5-41 15-75 21-72 14-169 46-191 63l-15 13 6-37 6-38h-9c-5 0-12 12-16 28-11 48-86 215-118 262-17 25-60 77-97 117s-91 107-120 148c-28 42-54 74-56 71-3-2 1-14 7-26l12-22-6-14-5-14 20-35 21-35-5-12-4-13-14 30c-7 17-21 41-30 55l-16 25v82l-12 19-11 19 6-37zm3-181v-22l-9 20c-5 11-9 24-9 28l-1 8 10-6c6-3 10-16 9-28zm-27-42 7-28-6-11-7-10-12 35c-16 44-17 52-2 47 7-3 15-17 20-33zm187-55-9-6 36-48c20-26 33-50 30-53-3-4-7-4-9-2s-20 26-41 54l-37 50 10 3c6 2 11 11 11 20v17l10-15 9-14-10-6zm58 15c9-24-1-27-15-5l-12 20h10c6 0 13-7 17-15zm-59-85c8 0 42-53 42-64 0-3-5-6-10-6-14 0-70 89-70 109l1 16 15-27c8-16 18-28 22-28zm58 23c-7-7-26 7-26 19v10l15-12c9-7 13-15 11-17zm4-135v-10l-15 12c-8 7-15 17-15 22v10l15-12c8-7 15-17 15-22zm-214-74 6-34-7-17-7-18-14 28-15 28 5 31 5 30-20 5-19 5v28l30-26 30-27 6-33zm77 59 5-28-14 19c-7 10-11 23-8 27 8 14 11 11 17-18zm34-120c15-20 33-59 38-86l4-18-12 4c-11 3-45 59-60 100l-6 17h11c6 0 17-8 25-17zm291-48v-20l-14 33-15 33 8 12 7 12 7-25c4-14 7-34 7-45zm-374 11-7-18-7 13c-5 7-6 19-3 26l6 14 9-9 9-9-7-17zm136-16c6-11 8-20 6-20-3 0-10 9-16 20s-8 20-6 20c3 0 10-9 16-20zm293-44 6-14-15-6-14-5v19c0 23 15 27 23 6zm-313-53v-14l-24 28-24 28 6 9 5 9 19-22c10-13 18-30 18-38zm375 47 6-10h-15c-9 0-16 5-16 10 0 6 4 10 9 10 6 0 13-4 16-10zm235-12v-9l-22 3c-12 2-23 8-25 14l-4 11 26-4c14-3 25-10 25-15zm-216-23 20-15-13-13-12-12-15 19c-26 36-15 47 20 21zm86-26v-8l-15 5c-8 4-15 10-15 15v8l15-5c8-4 15-10 15-15zm-275-44 6-40-9 15c-5 8-13 31-17 50l-7 35 10-10c6-5 13-28 17-50zm-40-2 7-47 35-33 34-33-6-10c-3-5-12-10-18-10h-12l-37 76-37 76 6 14c10 27 21 14 28-33zm-40-122c-7-6-65 50-65 63 0 5 16-5 35-24 19-18 32-36 30-39zm625 53v-15l-10 6-10 6 5 10c9 14 15 11 15-7zm-505-142c-6-6-105 68-105 79 0 5 25-10 54-33 30-23 53-44 51-46zm540 48 6-10h-20c-11 0-23 5-26 10l-6 10h20c11 0 23-4 26-10zm-1124 956c-6-16-10-31-7-33 7-8 28 37 23 50l-5 12-11-29zm71-26v-35l5 18c2 9 2 25 0 35l-5 17v-35zm280-871c-13-5-28-7-32-4-5 3-12 1-15-5l-7-11-19 6-19 6v-9c0-5-10-13-22-17l-23-8 37-4 37-4 22-27 21-27-5-45c-5-50-23-143-41-205l-11-40-41-13-41-13-38-39-39-40h16c8 0 32 11 52 25 46 31 53 31 32 0l-16-25h8c5 0 21 14 35 30l27 30h19c11 0 27-7 36-16l16-16 7 7 7 7-28 24-28 24 14 73c8 39 29 117 46 172 30 97 39 159 24 168-5 3-19 1-31-4z"/></g></g></svg>