<svg width="22" height="21" viewBox="0 0 22 21" fill="none" xmlns="http://www.w3.org/2000/svg">
<g clip-path="url(#clip0_41_221)">
<path d="M11 21C8.34723 21 5.69448 21 3.04173 21C1.72886 21 0.772572 20.0276 0.772572 18.7055C0.772572 16.1215 0.772572 13.5375 0.772572 10.948C0.772572 10.4399 0.653711 9.94823 0.583475 9.45109C0.453809 8.51691 0.307935 7.58273 0.172866 6.64854C0.124241 6.33715 0.091825 6.02029 0.0377975 5.7089C-0.183715 4.46878 0.837405 3.22867 2.11786 3.20682C2.29615 3.20682 2.32316 3.14672 2.32316 2.98829C2.31236 2.25624 2.31236 1.52419 2.31776 0.792144C2.31236 0.229449 2.53927 0 3.09575 0C6.9155 0 10.7352 0 14.555 0C16.0137 0 17.4725 0 18.9312 0C19.4283 0 19.6822 0.251301 19.6822 0.753902C19.6822 1.5078 19.6876 2.26171 19.6822 3.01015C19.6822 3.16857 19.7308 3.19589 19.8767 3.19589C21.0707 3.21228 22.081 4.29943 21.9946 5.5013C21.9568 6.02029 21.8541 6.52836 21.7785 7.04188C21.6542 7.88319 21.5515 8.72997 21.3949 9.56582C21.222 10.4836 21.2274 11.4014 21.2274 12.3301C21.2274 14.4498 21.2274 16.5749 21.2274 18.6946C21.2274 20.0057 20.3035 20.9781 19.0069 20.9891C17.0457 21.0055 15.0899 20.9891 13.1287 20.9891C12.4209 20.9891 11.7131 20.9891 11.0054 20.9891L11 21ZM10.9784 19.4485C13.5933 19.4485 16.2082 19.4485 18.8178 19.4485C19.4715 19.4485 19.6822 19.2354 19.6822 18.5853C19.6822 16.2471 19.693 13.9089 19.6768 11.5708C19.6714 10.8387 19.7524 10.1176 19.8659 9.39646C20.0604 8.11811 20.2603 6.84521 20.4494 5.57232C20.525 5.08065 20.2495 4.76379 19.7524 4.76379C13.9175 4.76379 8.07709 4.76379 2.24212 4.76379C1.73426 4.76379 1.47493 5.09157 1.55597 5.59417C1.6154 5.94381 1.66403 6.29344 1.71265 6.64308C1.83691 7.46254 1.96118 8.282 2.08004 9.10146C2.19349 9.87175 2.32316 10.6366 2.31776 11.4233C2.30155 13.8215 2.31236 16.2144 2.31236 18.6126C2.31236 18.7274 2.30695 18.8476 2.33397 18.9568C2.40961 19.2737 2.67434 19.4485 3.07414 19.4485C5.71069 19.4485 8.34723 19.4485 10.9784 19.4485ZM10.9784 3.19589H12.2264C14.139 3.19589 16.0515 3.19589 17.9641 3.19589C18.1316 3.19589 18.1748 3.15765 18.1694 2.98829C18.1532 2.60588 18.1694 2.22347 18.1694 1.84651C18.1694 1.6462 18.074 1.54605 17.8831 1.54605C15.4843 1.54605 13.0854 1.54605 10.6866 1.54605C8.46609 1.54605 6.24556 1.54605 4.02503 1.54058C3.86835 1.54058 3.84133 1.58975 3.84133 1.73725C3.85214 2.14698 3.85214 2.55671 3.83593 2.96644C3.83053 3.15765 3.87915 3.20135 4.06285 3.20135C6.36982 3.19589 8.6768 3.20135 10.9784 3.20135V3.19589Z" fill="#3D3F20"/>
<path d="M10.1356 11.9204C10.4111 12.1061 10.6542 12.3247 10.8163 12.6197C11.4809 13.8106 11.1945 15.8866 9.24953 16.3509C8.2068 16.6022 7.23431 16.411 6.39688 15.7008C5.89983 15.2802 5.68372 14.7229 5.67291 14.0783C5.67291 13.8379 5.72154 13.7942 5.95926 13.7942C6.28342 13.7942 6.60219 13.7997 6.92635 13.7942C7.07763 13.7942 7.13166 13.8215 7.13166 13.9909C7.13706 14.5372 7.43961 14.9305 7.95287 15.1054C8.49855 15.2911 9.06044 15.1545 9.3738 14.7557C9.72498 14.3187 9.73038 13.3408 9.36839 12.9256C9.12527 12.6415 8.77409 12.5978 8.42832 12.5869C8.11496 12.5705 7.79619 12.576 7.48283 12.5869C7.32615 12.5924 7.28833 12.5377 7.29374 12.3902C7.30454 12.0952 7.30454 11.7947 7.29374 11.4997C7.29374 11.3577 7.32615 11.3085 7.47203 11.314C7.77458 11.3249 8.07173 11.314 8.37429 11.314C9.17389 11.314 9.51967 10.9644 9.52507 10.1504C9.52507 9.52758 9.19551 9.07961 8.68765 9.01405C7.96368 8.91571 7.40179 9.23804 7.2289 9.84444C7.2181 9.87721 7.2127 9.91545 7.20729 9.94823C7.17488 10.2214 7.0218 10.358 6.74806 10.358C6.50494 10.358 6.26181 10.358 6.01869 10.358C5.78637 10.358 5.74315 10.3033 5.73775 10.063C5.72694 9.15609 6.19158 8.5333 6.92095 8.09626C7.47203 7.76301 8.07714 7.68106 8.71466 7.73569C9.1793 7.77394 9.61692 7.86681 10.0113 8.11811C10.6326 8.51145 10.9244 9.10146 10.9892 9.82805C11.0432 10.4727 10.919 11.0572 10.4976 11.5598C10.3895 11.6909 10.2382 11.7674 10.1302 11.9149L10.1356 11.9204Z" fill="#3D3F20"/>
<path d="M15.6734 12.0187C15.6734 13.379 15.6734 14.7393 15.6734 16.1051C15.6734 16.2908 15.6356 16.3619 15.4357 16.3509C15.0737 16.3345 14.7063 16.34 14.3389 16.3509C14.2093 16.3509 14.166 16.3127 14.166 16.1816C14.166 14.4935 14.166 12.8054 14.166 11.1228C14.166 10.5656 14.166 10.0083 14.1714 9.45109C14.1714 9.31998 14.1444 9.27627 14.0094 9.28174C13.5393 9.29266 13.0639 9.28174 12.5938 9.29266C12.4534 9.29266 12.4101 9.25989 12.4155 9.11238C12.4263 8.80645 12.4263 8.50598 12.4155 8.20005C12.4155 8.07986 12.4534 8.03616 12.5722 8.02523C13.5123 7.93236 14.447 7.82856 15.3871 7.73023C15.6734 7.69745 15.6734 7.69745 15.6734 7.98153C15.6734 9.3309 15.6734 10.6748 15.6734 12.0242V12.0187Z" fill="#3D3F20"/>
</g>
<defs>
<clipPath id="clip0_41_221">
<rect width="22" height="21" fill="white"/>
</clipPath>
</defs>
</svg>
