<svg width="23" height="22" viewBox="0 0 23 22" fill="none" xmlns="http://www.w3.org/2000/svg">
<g clip-path="url(#clip0_41_224)">
<path d="M22.9943 10.901C22.9943 12.2815 23.0058 13.662 22.9943 15.0425C22.9827 15.796 22.9194 16.555 22.7351 17.292C22.3319 18.8815 21.4448 20.1355 19.9702 20.9935C19.2733 21.4005 18.5072 21.6425 17.7065 21.78C17.286 21.8515 16.8655 21.9065 16.4393 21.9175C16.0188 21.9285 15.6041 21.9505 15.1836 21.9615C12.9256 22.0275 10.6735 21.989 8.4155 21.9835C7.92014 21.9835 7.42477 21.967 6.93516 21.9395C6.13451 21.901 5.33962 21.824 4.56777 21.604C3.87656 21.406 3.21991 21.131 2.63814 20.7185C1.62437 19.998 0.910121 19.0685 0.506915 17.919C0.322593 17.391 0.201631 16.8465 0.14403 16.291C0.0921893 15.8125 0.069149 15.3395 0.0518688 14.8555C-0.0230123 12.5235 0.0173083 10.1915 0.0230684 7.8595C0.0230684 7.2435 0.0576288 6.633 0.10947 6.017C0.190111 4.9885 0.426274 3.9985 0.956201 3.091C1.61861 1.9635 2.56902 1.1385 3.83048 0.637998C4.53897 0.357498 5.27626 0.181498 6.04235 0.120998C6.48012 0.087998 6.92364 0.0549979 7.36141 0.0384979C9.74608 -0.0330021 12.1365 0.0109979 14.5269 0.0109979C15.0338 0.0109979 15.5465 0.032998 16.0534 0.054998C16.687 0.087998 17.3206 0.131998 17.9427 0.258498C19.5785 0.588498 20.9034 1.3805 21.8538 2.7115C22.28 3.311 22.545 3.9765 22.7235 4.675C22.856 5.181 22.9194 5.698 22.9539 6.2205C23.0288 7.2875 22.977 8.349 22.9943 9.416C23 9.911 22.9943 10.406 22.9943 10.8955V10.901ZM11.5375 2.024C11.5375 2.024 11.5375 2.0185 11.5375 2.013C11.0306 2.013 10.5179 2.013 10.011 2.013C8.78415 2.0185 7.55149 2.002 6.33036 2.1065C5.90987 2.1395 5.5009 2.211 5.0977 2.3265C4.16457 2.5905 3.42152 3.102 2.89159 3.8885C2.54598 4.4 2.37318 4.9775 2.26374 5.5715C2.17158 6.0665 2.16006 6.567 2.13702 7.0675C2.10822 7.7055 2.09094 8.338 2.09094 8.976C2.09094 10.4665 2.0967 11.9515 2.11398 13.442C2.11398 14.058 2.14854 14.674 2.16006 15.2845C2.16582 15.6585 2.20038 16.027 2.25798 16.3955C2.33286 16.8795 2.45958 17.347 2.68999 17.787C3.21415 18.7935 4.06088 19.4205 5.18986 19.723C5.80043 19.888 6.42252 19.9375 7.05037 19.9705C7.67245 19.998 8.29454 20.0035 8.91663 20.02C9.13552 20.02 9.34864 20.02 9.56752 20.02C11.3935 20.009 13.2252 20.0035 15.0511 19.987C15.4831 19.987 15.9209 19.954 16.3529 19.943C16.8713 19.9265 17.3782 19.855 17.8793 19.723C19.0486 19.4095 19.9069 18.733 20.4253 17.6825C20.7075 17.105 20.8285 16.489 20.8746 15.862C20.9264 15.1635 20.961 14.465 20.961 13.761C20.9725 11.7095 21.0013 9.6525 20.9379 7.601C20.9206 7.051 20.9034 6.501 20.8458 5.951C20.7939 5.478 20.696 5.0215 20.5232 4.576C20.2237 3.806 19.7053 3.201 18.9795 2.761C18.3286 2.3705 17.5971 2.1835 16.8367 2.123C16.1283 2.0625 15.414 2.0405 14.7055 2.0295C13.6514 2.013 12.5916 2.0295 11.5375 2.0295V2.024Z" fill="#3D3F20"/>
<path d="M11.5375 5.36249C14.7746 5.33499 17.4473 7.92549 17.4416 11.011C17.4358 13.981 14.9417 16.654 11.5202 16.6485C8.20815 16.643 5.61035 14.1295 5.61035 11C5.61035 7.72199 8.43279 5.31299 11.5432 5.35699L11.5375 5.36249ZM11.526 14.6575C13.6169 14.685 15.3679 13.013 15.3622 10.9945C15.3622 9.00899 13.6514 7.34799 11.5375 7.33699C9.43505 7.33149 7.6955 8.99249 7.68974 10.9945C7.68974 13.024 9.46385 14.6905 11.526 14.652V14.6575Z" fill="#3D3F20"/>
<path d="M19.0486 5.159C19.0716 5.731 18.5474 6.4625 17.6374 6.446C16.9001 6.435 16.2665 5.8245 16.2953 5.0875C16.3241 4.2955 17.0325 3.8005 17.7007 3.806C18.3977 3.8115 19.0947 4.4 19.0486 5.1535V5.159Z" fill="#3D3F20"/>
</g>
<defs>
<clipPath id="clip0_41_224">
<rect width="23" height="22" fill="white"/>
</clipPath>
</defs>
</svg>
