<svg xmlns="http://www.w3.org/2000/svg" xmlns:xlink="http://www.w3.org/1999/xlink" viewBox="0 0 120.69527 135.93123">
  <defs>
    <path id="a" d="M0 700h700V0H0Z"/>
  </defs>
  <defs>
    <clipPath id="b" clipPathUnits="userSpaceOnUse">
      <use xlink:href="#a" transform="translate(-344.14251 -356.11591)"/>
    </clipPath>
    <clipPath id="c" clipPathUnits="userSpaceOnUse">
      <use xlink:href="#a" transform="translate(-278.8687 -292.37881)"/>
    </clipPath>
    <clipPath id="d" clipPathUnits="userSpaceOnUse">
      <use xlink:href="#a" transform="translate(-391.25731 -233.25701)"/>
    </clipPath>
    <clipPath id="e" clipPathUnits="userSpaceOnUse">
      <use xlink:href="#a" transform="translate(-350.13471 -448.85641)"/>
    </clipPath>
    <clipPath id="f" clipPathUnits="userSpaceOnUse">
      <use xlink:href="#a" transform="translate(-338.09891 -455.21691)"/>
    </clipPath>
    <clipPath id="g" clipPathUnits="userSpaceOnUse">
      <use xlink:href="#a" transform="translate(-318.61371 -441.60761)"/>
    </clipPath>
    <clipPath id="h" clipPathUnits="userSpaceOnUse">
      <use xlink:href="#a" transform="translate(-350.93591 -434.19641)"/>
    </clipPath>
    <clipPath id="i" clipPathUnits="userSpaceOnUse">
      <use xlink:href="#a" transform="translate(-317.40231 -421.72271)"/>
    </clipPath>
    <clipPath id="j" clipPathUnits="userSpaceOnUse">
      <use xlink:href="#a" transform="translate(-333.01371 -421.55161)"/>
    </clipPath>
    <clipPath id="k" clipPathUnits="userSpaceOnUse">
      <use xlink:href="#a" transform="translate(-334.23171 -438.52661)"/>
    </clipPath>
    <clipPath id="l" clipPathUnits="userSpaceOnUse">
      <use xlink:href="#a" transform="translate(-311.79391 -427.16201)"/>
    </clipPath>
    <clipPath id="m" clipPathUnits="userSpaceOnUse">
      <use xlink:href="#a" transform="translate(-380.38841 -261.90931)"/>
    </clipPath>
    <clipPath id="n" clipPathUnits="userSpaceOnUse">
      <use xlink:href="#a" transform="translate(-369.22131 -261.5639)"/>
    </clipPath>
    <clipPath id="o" clipPathUnits="userSpaceOnUse">
      <use xlink:href="#a" transform="translate(-337.96411 -440.13111)"/>
    </clipPath>
    <clipPath id="p" clipPathUnits="userSpaceOnUse">
      <use xlink:href="#a" transform="translate(-319.86651 -444.77221)"/>
    </clipPath>
    <clipPath id="q" clipPathUnits="userSpaceOnUse">
      <use xlink:href="#a" transform="translate(-379.43091 -264.6698)"/>
    </clipPath>
    <clipPath id="r" clipPathUnits="userSpaceOnUse">
      <use xlink:href="#a" transform="translate(-363.87711 -260.47951)"/>
    </clipPath>
    <clipPath id="s" clipPathUnits="userSpaceOnUse">
      <use xlink:href="#a" transform="translate(-367.72891 -270.34481)"/>
    </clipPath>
    <clipPath id="t" clipPathUnits="userSpaceOnUse">
      <use xlink:href="#a" transform="translate(-354.75751 -463.96891)"/>
    </clipPath>
    <clipPath id="u" clipPathUnits="userSpaceOnUse">
      <use xlink:href="#a" transform="translate(-360.54651 -246.0077)"/>
    </clipPath>
    <clipPath id="v" clipPathUnits="userSpaceOnUse">
      <use xlink:href="#a" transform="translate(-344.21431 -458.34361)"/>
    </clipPath>
    <clipPath id="w" clipPathUnits="userSpaceOnUse">
      <use xlink:href="#a" transform="translate(-360.10381 -257.62331)"/>
    </clipPath>
    <clipPath id="x" clipPathUnits="userSpaceOnUse">
      <use xlink:href="#a" transform="translate(-363.06671 -284.50741)"/>
    </clipPath>
    <clipPath id="y" clipPathUnits="userSpaceOnUse">
      <use xlink:href="#a" transform="translate(-343.43521 -479.26851)"/>
    </clipPath>
    <clipPath id="z" clipPathUnits="userSpaceOnUse">
      <use xlink:href="#a" transform="translate(-341.86541 -253.7726)"/>
    </clipPath>
    <clipPath id="A" clipPathUnits="userSpaceOnUse">
      <use xlink:href="#a" transform="translate(-320.49541 -495.76151)"/>
    </clipPath>
  </defs>
  <path d="M0 0c-.255 1.582-.552 3.177-1.705 5.015C-1.643 2.828-1.019 1.362 0 0m43.928-62.752c-.576.785-1.021 1.641-2.046 1.779-.455.062-.773-.302-.691-.704.224-1.089 1.287-1.379 2.068-1.919.019-.014.436.549.669.844m72.993-2.215c.413-2.642 2.099-2.015 3.781-1.394-.803 1.639-2.807.193-3.781 1.394M9.384 23.767c-.444 1.688.212 3.747-1.951 5.375.348-2.24.798-3.927 1.951-5.375m-1.335-48.17c.021 1.643-.955 3.147-.677 4.824.038.233-.614.333-1.013.255-.474-.093-.757-.475-.45-.791 1.172-1.211 1.035-3.016 2.14-4.288m140.972-47.518c-2.604 1.793-4.411 2.225-6.539 1.661 2-1.44 4.408-.984 6.539-1.661M17.27-50.1c-.151-.123-.302-.247-.453-.37 1.106-.965.975-2.513 1.811-3.588 1.25-1.609 1.908-2.148 2.891-2.428-1.487 2.234-2.868 4.31-4.249 6.386m89.766-90.401c.783-3.168 3.603-2.463 5.284-3.633-1.463 1.489-2.933 2.956-5.284 3.633m91.258 39.393c-.067.967-.652 1.953-1.22 1.752-.734-.261-1.689-.993-1.543-2.13.128-.99.218-2.388 1.486-2.289 1.639.126.335 2.052 1.277 2.667m-61.321 26.14c.644-2.303 4.917-4.87 8.003-4.906-3.062 1.407-5.48 3.217-8.003 4.906m-31.704 5.299c2.596 1.251 2.796 3.3 2.011 5.645-.199.593-.022 1.591-1.086 1.384-1.157-.225-.55-1.038-.447-1.705.067-.432.094-1.104-.156-1.312-1.633-1.356-.425-2.794-.322-4.012m102.272-53.209c-3.34 1.032-6.598 2.54-10.677 2.11 3.592-2.113 6.906-3.245 10.677-2.11m-48.992 56.505c2.308-1.523 4.372-2.79 6.327-4.208 1.352-.981 1.361 1.231 2.379.849.259.731 1.332 1.047 1.06 2.037-.086.315-.416.601-.685.381-1.386-1.138-3.249 2.16-4.432-.498-.166.151-.353.286-.496.456-1.067 1.27-2.462 1.23-4.153.983M-4.475 59.53c-2.582-6.937-1.659-13.958-.41-20.987-.237 7.004.297 13.991.41 20.987m45.002-90.983c-.763 3.441-.483 7.141-2.017 10.334-1.088 2.265-1.828 4.85-3.983 6.513-.302.233-.531.645-.889.202-.374-.463.088-.555.4-.776 1.094-.771 1.245-2.104 1.494-3.216 1.027-4.588 3.679-8.542 4.995-13.057m181.103-82.643c.117.804.203 1.4.319 2.196.382-.583.311-1.443.863-1.155.772.402.749 1.347.275 1.986-1.217 1.64-2.309 3.525-3.907 4.68-1.238.894-3.148 1.574-5.043.267 1.835-1.425 3.515-2.709 5.167-4.027.463-.369 1.212-.93.82-1.462-1.608-2.181.695-1.695 1.506-2.485M95.001-41.543c-1.278-3.196-2.691-6.332-.218-9.526.407-.525.486-1.29.829-1.879 1.131-1.949 1.128-4.38 2.717-6.171-1.335 5.831-2.431 11.679-3.328 17.576M64.305 1.069c-1.43 2.848-3.309 5.283-5.339 7.614-.65.746-1.4 1.461-1.837 2.325-.989 1.958-2.274 3.602-4.17 4.726-.749.445-1.493.465-1.958-.402-.445-.83.145-1.268.764-1.638 1.799-1.074 3.225-2.551 4.536-4.157 2.075-2.542 4.158-5.077 6.234-7.617.425-.52.744-1.216 1.77-.851M37.942-63.68c1.122-3.234-1.33-2.057-2.454-2.518 3.795-5.602 8.833-10.088 13.211-15.166-3.42 5.88-7.527 11.303-10.757 17.684m80.987-6.593c-.113-1.81.867-2.893 1.286-4.157.849-2.563 2.177-4.822 5.202-5.628 1.483-.396 2.075.049 1.557 1.197-.737 1.634.057 2.054 1.676 2.327-3.491 2.095-6.639 3.915-9.721 6.261m-11.968 20.45c-1.413-1.3-2.15-4.913-1.302-6.36.076-.129.081-.346.186-.406 3.407-1.972 4.186-5.24 4.372-8.808.092-1.758.177-3.517.312-5.272.036-.46.293-.902.818-.983.484-.074.729.33.715.692-.145 3.77 1.2 7.714-.83 11.266-1.772 3.102-3.659 6.106-4.081 9.753-.005.046-.124.079-.19.118M44.322 14.318c-.563-.111-.621-.374-.549-.968.182-1.505 2.312-4.605 3.805-4.784 1.47-.176 2.236-1.077 3.169-1.958 2.237-2.112 3.888-4.684 5.749-7.093.361-.466.521-1.61 1.42-.936.637.477.431 1.248-.042 2.028-2.241 3.699-4.861 7.101-7.517 10.506-1.584 2.032-4.37 1.272-5.81 3.196-.027.037-.146.005-.225.009m55.708-150.569c.233.632-.099.965-.368 1.107-3.269 1.717-5.149 4.996-8.228 7.04-5.039 3.345-9.602 7.399-14.458 11.03-5.711 4.271-11.192 8.774-15.876 14.188-.898 1.038-1.903 1.986-2.887 2.946-.3.292-.722.316-1.012-.03-.09-.109-.038-.503.082-.595 1.937-1.498 1.946-4.763 4.903-5.341.335-.066.638-.419.906-.689 6.525-6.578 14.134-11.851 21.303-17.649 3.423-2.768 7.066-5.261 10.578-7.918 1.712-1.295 2.961-3.193 5.057-4.089M13.693-18.158c-.715 1.503-.344 2.986-.675 4.264-1.095 4.227-1.215 8.58-1.943 12.849-.348 2.04-.346 3.916-3.033 1.893-.061-.046-.137-.14-.182-.127-2.631.764-1.574-1.39-1.78-2.383-.127-.611.251-1.324.395-1.992.839-3.896 3.315-7.082 4.678-10.757.497-1.341.449-3.136 2.54-3.747m20.409-15.243.465.339c-1.364 3.012-3.301 5.756-4.318 8.937-.724 2.264-2.485 4.119-2.445 6.724.02 1.335-.321 2.723-.747 4.004-.537 1.617-.831 3.473-2.815 4.175-.469.166-1.021.423-1.023-.247-.008-2.837-.979-5.775.43-8.486 2.546-4.899 5.953-9.268 8.846-13.957.369-.599 1.063-.997 1.607-1.489m52.545-77.361c.004-.011-12.447 30.502-12.471 30.562-.335-1.477.9-2.742.548-4.144-.884-.147-.801 1.066-1.903.849 1.195-1.179.936-2.943 2.251-3.967.313-.244.417-.948.125-.981-2.031-.232-.541-1.165-.384-1.783.635-2.502 2.635-4.253 3.677-6.502 2.462-5.318 4.718-10.732 7.066-16.103.48-1.098.501-1.093 2.376-1.889-1.37 1.854-2.549 3.576-2.994 5.806 1.04-.366.828-1.595 1.709-1.848M59.472 18.265c-1.552 3.536-2.868 7.117-5.833 9.481-1.937 1.545-3.298 3.537-5.003 5.247-.666.667-1.349.752-2.039.286-.926-.626-.109-1.209.226-1.709.758-1.135 1.51-2.413 1.349-3.695-.359-2.84 2.503-6.996 5.355-7.516 2.064-.376 4.567.409 5.945-2.094m-41.531 2.177c-.434-1.373.225-2.522.662-3.746 1.605-4.493 3.426-8.856 6.271-12.756.777-1.065 1.743-.778 2.426-.619 1.167.272.344 1.219.151 1.85-2.013 6.582-5.224 12.704-7.412 19.221-.127.377-.334.804-.71.742-.315-.053-.709-.407-.829-.72-.488-1.273-1.079-2.553-.559-3.972m20.625-6.071c.915-2.256.705-4.636 2.257-6.326 1.867-2.034 2.464-4.711 3.769-7.024.373-.661.635-1.559 1.212-1.902 2.887-1.714 3.538-5.024 5.484-7.399 2.555-3.119 3.393-7.359 6.519-10.138.366-.326.826-1.088.686-1.347-.504-.932-.099-1.325.675-1.152.861.191.49.928.203 1.456-1.596 2.933-2.603 6.231-5.257 8.51-.359.308-.836.756-.413 1.125 1.218 1.062.194 1.68-.241 2.581-1.144 2.369-2.864 4.333-4.265 6.516-2.794 4.353-5.521 8.748-8.268 13.13-.528.841-1.014 1.713-2.361 1.97M6.402 32.588c-.83 1.566-2.029 3.939-1.727 6.767.059.555-.984.593-1.518.717-.594.138-1.047-.435-1.024-.986.159-3.868-.301-7.785.897-11.574 1.351-4.27 2.787-8.521 4.723-12.552.858-1.789.39-4.525 3.174-5.137.553-.121 1.119-.665 1.698-.063.501.52.417 1.101.157 1.705-.633 1.472-1.303 2.93-1.872 4.427-1.953 5.133-4.053 10.231-4.508 16.696m18.565-.523c-.089.431-.189.801-.24 1.179-.551 4.109-2.368 7.816-3.683 11.684-.388 1.143-.296 2.697-1.045 3.411-1.072 1.021-1.897 1.97-2.452 3.374-.281.711-1.641.565-2.015-.287-.352-.806-.893-1.551-.638-2.713.847-3.852 1.385-7.772 2.103-11.654.161-.871.371-1.821 1.461-2.137.528-.153.959-.473 1.109-1.057.397-1.552 1.067-2.846 2.859-3.143.565-.094 1.066-.704 1.671-.363.645.365.854 1.038.87 1.706M34.539 8.86c-.437-.559-.749-1.371-1.275-1.549-1.5-.507-1.357-1.336-.833-2.454 1.757-3.748 2.73-7.779 4.161-11.646 1.38-3.727 2.785-7.438 4.572-10.995.42-.837 1.363-1.74 1.834-1.106.617.83 1.427 2.541 1.142 3.114-1.471 2.963-1.812 6.181-2.727 9.259-1.21 4.073-3.014 7.975-4.661 11.91-.515 1.231-.937 2.597-2.213 3.467M18.983-25.602c-.783-.491-1.322-.918-.99-2.026.297-.992.055-1.24-.334-1.115-2.002.645-1.132-.95-.977-1.423.71-2.168 1.612-4.272 2.412-6.411 1.342-3.588 1.62-3.262 4.253-5.566 1.864-1.631 3.818-3.252 5.514-5.08.673-.725 1.59-1.138 2.012-.794.508.415.503 1.45-.04 2.258-.918 1.363-2.003 2.688-1.778 4.518.042.344-.177.652-.486.666-1.551.071-1.532 1.386-1.837 2.357-.54 1.726-1.069 3.311-2.693 4.498-.824.602-2.018 1.727-1.215 3.23.386.724-.174 1.197-.485 1.623-.709.969-1.548 1.849-2.381 2.721-.248.26-.653.371-.975.544m170.561-94.833c-1.105 1.035-2.284-.153-3.496.15-4.599 1.15-9.198 2.266-13.152 5.033-2.203 1.542-4.664 2.224-7.26 2.519-.883.101-2.099.255-2.076 1.01.034 1.106 1.264.942 2.186.967.826.022 1.648.242 2.727.416-1.205 1.132-2.622 1.328-3.899 1.647-2.811.702-5.658 1.275-8.513 1.772-1.769.308-3.506.53-5.228-.662-1.322-.915-2.945-.496-4.364.239-4.842 2.51-9.892 4.541-14.96 6.534-.772.303-1.574.667-2.195 1.198-4.625 3.952-10.464 5.383-15.831 7.805-1.087.491-3.059-.524-3.275 1.693-.132 1.362-.605 2.671-.894 3.995-.602 2.752-.382 5.786-2.261 8.181-1.111 1.415-.779 3.199-1.207 4.816-.577-1.086-.676-2.165-.191-3.186 2.533-5.331 2.744-11.227 4.155-16.83 2.02-8.021 3.064-16.166 4.014-24.381.793-6.863 1.419-13.797 2.881-20.579.593-2.751 1.67-5.376 1.452-8.302-.08-1.081-.172-1.988-.697-2.989-1.62-3.088-3.106-3.514-5.535-1.089-1.261 1.26-2.627 2.295-4.148 3.156-1.106.625-2.052 1.362-1.921 2.759.066.707-.256 1-.772 1.206-3.257 1.301-6.167 3.258-9.249 4.888-1.024.542-1.8 1.282-2.464 2.292-.963 1.465-1.785 3.231-3.999 3.333-.449.021-.917.533-1.302.898-5.098 4.832-11.452 7.979-16.727 12.65-2.991 2.649-6.285 5.105-8.987 8.006-3.041 3.265-6.399 6.168-9.445 9.391-1.368 1.447-2.569 2.987-4.385 3.902-2.656 1.337-3.866 4.047-5.792 6.075-4.906 5.165-9.17 10.867-13.864 16.207-2.325 2.644-4 5.725-5.183 9.065-.223.629-.645 1.223-1.092 1.731-4.587 5.204-9.161 10.457-11.969 16.867-1.239 2.828-3.64 5.457-3.144 8.735.371 2.451-.936 4.599-.479 7.008.394 2.076-1.437 3.48-2.292 5.16-.364.716-.792 1.405-1.221 2.349 1.633-.098 2.905-.899 3.125-2.115.683-3.769 2.433-7.19 3.264-10.899.215-.959.439-2.199 1.932-2.131-.675-1.717.486-4.228 2.843-5.716-.814 1.881-1.603 3.495-1.972 5.254-.093.439-.515.503-.927.422.746.957.262 1.967-.059 2.836-1.701 4.597-3.106 9.351-5.163 13.748-1.273 2.721-1.473 5.33-1.816 8.072-.144 1.155-.53 2.22-1.004 3.28-2.298 5.135-5.116 10.016-7.55 15.06-2.426 5.027-4.814 10.503-4.147 16.238.51 4.377-.744 8.316-1.588 12.315-.889 4.215-.45 8.386-.68 12.558-.254 4.617-.13 9.319 1.767 13.727.391.909.69 1.857 1.049 2.78.143.369.412.775.809.715 3.238-.492 2.551 1.931 2.804 3.685.038.261.294.491.465.761 2.645-2.156.492-5.611 2.459-8.278.951 4.313 2.838 8.069 1.133 12.399-1.704 4.329-1.109 9.058-1.688 13.591-.07.543-.201 1.295.891 1.102 1.025-.18 2.408.759 2.635-1.309.376-3.419.864-6.833 1.49-10.215.496-2.683 2.042-5.149 1.707-8.015-.178-1.52-.468-3.032-.533-4.555-.034-.773-.174-2.242 1.427-1.071.475.348.801.097 1.221-.159 1.224-.746 2.491-1.421 3.813-2.164.489.779.156 1.702-.135 1.93-3.046 2.391-1.912 6.071-2.911 9.074-.155.466.105 1.159.613.908 1.591-.787 2.914 1.268 4.696.171.8-.492.603 1.038.404 1.597-.856 2.398-1.058 4.924-1.536 7.391-.2 1.037-.087 2.142-.065 3.214.026 1.214.335 2.474 1.703 2.6 1.273.118 1.441-1.167 1.656-2.127 1.066-4.765 2.102-9.536 3.157-14.304.191-.859.36-1.928-.476-2.309-3.167-1.444-1.585-3.708-.699-5.329 1.709-3.128 3.793-6.073 5.933-8.936 1.695-2.268 2.499-4.857 3.361-7.451.637-1.922.517-4.368 3.475-4.517.328-.017-.218-3.345-.521-3.261-1.615.452-.7-.71-.556-.965 1.328-2.352 2.164-4.882 2.929-7.454.791-2.658 3.489-3.815 4.921-5.997.214-.327.922-.195 1.32.411.578.879.353 1.722.112 2.697.288 0 .495.012.7-.002.784-.053.498-1.8 1.586-1.138.799.486.604 1.414.377 2.297-.894 3.473-2.112 6.764-5.198 8.909-1.303.905-1.024 2.461-1.823 3.552-.843 1.151-1.487 1.414-2.113-.565-3.494 7.546-7.528 14.446-11.811 21.207-.515.812-1.001 1.733-.643 2.814.175.53-.345 1.447.494 1.549.654.079 1.207-.527 1.449-1.26.473-1.432 1.357-2.436 2.974-2.811-.871 3.346-1.955 6.441-3.515 9.359-.518.97-.593 2.041-.57 3.128.014.636.015 1.358.685 1.548.594.168 1.129-.2 1.514-.791 1.13-1.729 2.474-3.337 3.451-5.145 1.185-2.19 2.719-4.02 4.475-5.757 3.178-3.142 5.247-7.132 7.77-10.761 3.757-5.405 7.57-10.75 12.032-15.591 4.081-4.429 7.788-9.2 12.176-13.348 3.781-3.574 7.373-7.328 10.451-11.531 4.004-5.466 7.369-11.341 10.597-17.281 4.329-7.967 8.032-16.216 11.258-24.711 1.558-4.103 4.215-7.779 5.176-12.182.421-1.928.898-3.861 1.274-5.781.405-2.068 2.3-3.216 2.413-5.872 1.193 2.679.595 4.699-.021 6.636-.205.647-.299 1.293-.485 1.921-.385 1.301-.487 2.203 1.519 1.481-1.037 1.61-3.403 2.106-2.255 4.508.518 1.082.982 1.411 1.773.484 3.436-4.024 8.45-5.128 13.028-6.913 5.756-2.245 11.633-4.22 17.555-5.984 3.697-1.102 7.568-1.577 11.407-2.164 4.56-.696 9.284-1.217 13.514-4.121 3.255-2.236 7.044-4.291 11.536-4.051 4.995.266 9.826-1.361 14.685-2.239 5.272-.953 10.489-.826 15.753-1.009 3.785-.131 7.841-.034 10.966-2.648 3.479-2.911 7.754-5.016 9.911-9.356.602-1.212.745-2.227.294-3.641-.815-2.561-.105-5.3.26-7.871.493-3.479.25-6.874.033-10.311-.154-2.435-.207-4.786 1.67-6.81 1.272-1.371 1.701-3.009.21-4.73-.761-.879-.141-2.051 0-3.068.398-2.871-1.013-5.379-3.739-6.213-.69-.212-1.394-.461-1.778-.941-2.26-2.827-5.537-2.972-8.654-3.158-3.872-.231-7.766-.61-11.654-.146-2.365.283-4.563 1.197-6.738 2.063-1.505.599-3.059 1.483-3.018 3.551-.319 2.064 1.725.312 2.123 1.303-2.039 1.573-4.276 2.664-6.837 3.218 2.504-.593 3.673-2.499 4.729-4.521" clip-path="url(#b)" style="fill:#0a0a0a;fill-opacity:1;fill-rule:nonzero;stroke:none" transform="matrix(.35278 0 0 -.35278 40.94818 60.74249)"/>
  <path d="M0 0c-.155.653-1.073.698-1.105 1.433-.032.725 0 1.556-.97 1.809-.329.085-.644.005-.707-.336-.176-.948.535-1.482 1.054-2.108C-1.298.281-.939-.335 0 0m72.422 190.396c1.842-1.633 2.677-3.922 3.94-5.943-.079 2.723-1.466 4.659-3.94 5.943m-27.878 40.249c2.415-.179 4.379-.327 6.344-.467.51-.037 1.014.188 1.007.678-.009.542-.595.654-1.058.607-1.946-.2-3.962.235-6.293-.818m-68.028-122.819c-.822-2.897-2.431-5.73-.659-8.836.019 2.962 1.333 5.819.659 8.836m27.452 33.838c-3.416-.996-4.316-3.016-3.49-7.267 1.176 2.45 2.23 4.643 3.49 7.267M-24.28 64.618c-1.767-.512-2.109-1.582-1.75-3.051.311-1.276.109-2.556.001-3.849-.092-1.095-.508-2.335.433-3.284.982-.989 1.44-2.048 1.215-3.492-.083-.525-.249-1.675.622-1.703 1.077-.036.84 1.049.858 1.773.071 2.752-.728 5.395-1.188 8.065-.315 1.835.306 3.634-.191 5.541m3.865-46.829c-.157-1.726.218-3.331.943-4.711 1.893-3.608 5.305-6.297 6.39-10.42.056-.213.225-.397.348-.591.222-.351.515-.579.942-.376.457.217.374.579.207.957-.582 1.321-1.413 2.595-1.686 3.978-.926 4.681-4.659 7.497-7.144 11.163m-3.592 74.742c-.248.446-.018 1.43-.784 1.57-.753.138-1.197-.698-1.444-1.279-1.469-3.468-2.226-7.122-2.59-10.859-.079-.809.439-1.305 1.18-1.455.703-.142 1.249.266 1.387.919.773 3.655 1.491 7.322 2.251 11.104m16.151 2.934c0 1.307.032 2.068-.007 2.824-.055 1.048-.958 1.08-1.667 1.223-.475.096-.745-.173-.834-.772-.413-2.782-.953-5.545-1.359-8.328-.164-1.124.093-2.214 1.456-2.456 1.302-.23 1.593.787 2.014 1.727.925 2.062-.096 4.264.397 5.782m7.361 8.029c-.081 1.284.209 2.65-1.427 3.278-.929.357-1.991-1.182-2.814.23-.129-.177-.29-.34-.379-.535-.213-.467.127-.648.45-.883.453-.33 1.967-.58.162-1.251-.302-.112-.341-.485-.143-.78 1.511-2.264.922-4.678.398-7.033-.234-1.047.048-1.879.924-1.944.923-.069 1.953.422 2.085 1.665.256 2.416.497 4.835.744 7.253m-28.058 4.34c-4.355-3.265-4.779-7.72-4.691-12.338.015-.775-.146-1.956.875-2.136 1.175-.206 1.665.952 2.027 1.835.277.677.248 1.493.294 2.252.132 2.206.326 4.381 1.288 6.438.521 1.114.546 2.357.207 3.949m-14.91-14.097c-.039.103.149-.309.275-.739.256-.873-.062-2.161 1.479-2.09 1.494.068 1.123 1.324 1.263 2.176.518 3.159.854 6.357 1.937 9.394.45 1.262-.158 1.444-1.187 1.49-1.249.056-1.705-.77-2.159-1.698-1.234-2.519-1.473-5.244-1.608-8.533m37.957 59.055c-1.381-.773-2.424-1.79-2.813-3.016-1.267-3.99-3.222-7.861-2.553-12.276.077-.509.056-.891.632-.975.71-.103.77.472.713.883-.139 1.005.514 1.679.812 2.51 1.476 4.108 4.118 7.954 3.209 12.874m-27.467-30.87c.026 1.588.159 2.536-.899 3.053-.615.3-.789-.119-1.005-.535-1.786-3.441-2.856-7.16-4.118-10.8-.235-.676-.454-1.958.549-2.192.763-.178 1.905.22 2.29 1.163 1.322 3.241 2.773 6.45 3.183 9.311m21.068-18.706c-.135-1.278.655-1.866 1.708-2.079 1.302-.264 1.488.76 1.652 1.69.674 3.826 1.42 7.632 2.558 11.357.219.715.642 1.848-.512 2.14-1.036.262-1.745-.513-1.918-1.535-.272-1.615-1.104-3.01-1.616-4.524-.779-2.305-1.618-4.609-1.872-7.049m-11.566 23.483c-3.383-3.9-7.007-7.353-6.442-13.033 5.31 1.698 6.699 4.499 6.442 13.033m14.347-3.846c1.756 2.171 2.494 4.737 3.457 7.194.583 1.488 1.317 2.932 1.728 4.465.293 1.094.1 2.525-.977 2.999-.741.326-1.335-.872-1.958-1.512-1.962-2.018-1.507-4.898-2.735-7.091-1.21-2.16-1.071-4.002.485-6.055m-21.38-85.215c-.333-1.446.927-3.047-.089-4.202-1.042-1.184-.583-2.111-.156-3.104 1.202-2.793 1.79-5.792 3.117-8.558 1.165-2.426 1.881-5.067 2.795-7.613.24.584.206 1.097.116 1.599-.495 2.765-1.036 5.465-.682 8.368.274 2.255-.295 4.562-1.304 6.8-1.061 2.355-2.999 4.171-3.797 6.71m.332 95.443c-.452-1.179-.023-2.128.27-3.049.378-1.187 2.892-2.3 3.585-1.525.972 1.085 2.406 2.587 2.237 3.696-.384 2.52 1.031 4.553 1.074 6.867.015.776.746 1.856-.228 2.251-.939.381-2.514.313-2.985-.479-1.509-2.54-4.609-4.324-3.953-7.761m14.365-13.32c-1.961-7.891-5.776-15.385-4.19-23.818 1.168 2.697 1.143 5.841 3.406 8.077.613-.29.597-1.863 1.673-1.327.701.349.689 1.404.634 2.297-.164 2.621-.089 5.261-.36 7.868-.241 2.313.098 4.735-1.163 6.903m.876 56.355c-.538-.548.405-1.848-.969-1.965.206-1.602-1.996-2.325-1.728-3.468.381-1.625-.536-2.528-.964-3.752-.565-1.615-2.172-2.523-2.755-3.907-1.311-3.111-2.034-6.435-1.122-9.879.153-.58.15-1.238-.548-1.612-.816.348-.063 1.564-1.066 1.843-.739-1.4-.641-2.928-.839-4.39 1.178-.274.699 1.114 1.468 1.145.42-1.16.091-2.367.159-3.545 1.231.249 1.644.905 1.768 1.965.457 3.874 1.588 7.617 2.119 11.513.551 4.034 2.628 8.031 4.958 11.637 1.434 2.219 1.297 3.241-.481 4.415M7.127-22.043c.316.776-.277 1.105-.469 1.553-.983 2.291-1 2.29 1.503 2.347.928.02 1.307.394.728 1.256-.252.376-.61.683-.932 1.009C5.05-12.929 1.554-10.438.455-6.09c-.1.394-.554 1.045-.97.734-1.389-1.039-1.652.114-2.08.945-.687 1.336-1.856.189-2.724.562.348-2.625-1.626-.424-2.368-1.099.893-1.008 2.065-1.829 2.529-2.944 1.545-3.715 4.31-6.27 7.398-8.615 1.085-.825 2.69-1.702 2.695-2.954.008-1.835 1.187-1.916 2.192-2.582m104.007 251.439c-9.489.958-18.501-1.826-27.603-.566-3.332.461-6.738-.989-9.977.25-1.269.486-1.552.302-2.102-.822-2.458-5.017-5.096-9.947-7.568-14.958-1.953-3.959-4.822-7.484-5.609-12.01-.202-1.162-.002-1.517 1.15-1.913 4.662-1.606 9.547-1.953 14.348-2.762 3.693-.622 7.389-.853 11.144-.307 3.047.443 5.616 1.307 6.859 4.467.326.83 1.002 1.532 1.56 2.259 2.166 2.823 4.349 5.632 6.61 8.555-1.573-.446-1.548-.479-2.505-1.199-5.945-4.47-12.331-8.157-19.281-10.849-1.664-.645-3.55-.35-5.146-1.407-.47-.311-1.222.505-1.646 1.009-.223.266.064.759.444.924 4.147 1.79 7.666 4.56 11.398 7.028 3.419 2.262 7.609 3.432 10.721 6.125 5.875 5.085 10.88 11.116 17.203 16.176m-116.22-63.16c1.828 1.292 2.955 2.421 4.052 3.689 1.469 1.699 2.409 4.214 5.279 4.244.558.006 1.285.395 1.172.872-.395 1.668 1.013 2.056 1.818 2.849 2.907 2.865 6.383 4.96 9.846 7.044 2.668 1.606 5.388 3.644 8.693 2.977 5.138-1.038 10.188-2.509 15.293-3.718.769-.183 1.702-.321 2.437.267 4.227 3.378 8.015 7.117 9.521 12.537 1.411 5.079 2.905 10.063 5.822 14.589 1.971 3.059 3.294 6.536 4.907 9.826.256.52.861 1.307-.046 1.492-2.602.529-5.278 1.274-7.872 1.107-3.432-.221-6.787-1.519-10.174-2.052-8.785-1.381-16.325-5.198-22.777-11.022-8.029-7.248-13.557-16.445-18.755-25.818-.818-1.476-1.497-3.115-2.828-4.143-1.036-.8-1.419-1.749-1.581-2.876-.201-1.397-.666-2.675-1.436-3.84-1.524-2.307-2.775-4.722-3.371-8.024M-43.113 64.259c-.2.534-.244 1.188.125 1.534 2.525 2.361.76 5.29 1.112 7.929.071.538-.044 1.154-.791 1.112-.653-.036-.499-.612-.53-1.046-.166-2.355-.365-4.707-.502-7.063-.051-.869-.394-1.858.634-2.469-1.985-1.887-2.24-4.12-.588-6.474-.189 2.314.217 4.391.54 6.477M76.1 181.087c-.722-.836-.373-1.703-.399-2.485-.041-1.219-.244-1.949-1.792-2.004-1.629-.058-1.788.832-1.833 1.967-.161 3.996-.957 7.878-1.989 11.727-.156.584-.048 1.464-.888 1.255-.983-.244-.418-1.135-.244-1.678 1.269-3.956 1.344-7.91.211-11.908-.16-.564.088-1.272-.883-1.24-.782.026-1.104.568-1.217 1.17-.265 1.419-.564 2.854-.605 4.29-.091 3.262.079 6.553-2.244 9.335-2.967-1.363-4.519-4.442-6.98-6.518-2.207-1.864-2.044-4.754-3.352-6.989-1.354-2.312-2.639-4.664-3.958-6.996-1.723-3.046-3.542-6.143-6.231-8.33-6.285-5.111-10.641-11.782-15.513-18.061-1.444-1.861-3.312-3.397-5.018-5.049-.896-.869-2.192-1.266-3.12-.58-1.161.857-.358 2.196.187 3.129.845 1.446 1.893 2.787 2.964 4.083 1.076 1.301.874 2.671.491 4.098-.128.478-.431.85-.938.882-.658.04-.622-.589-.733-.975-1.125-3.896-2.772-7.595-4.328-11.322-1.771-4.238-3.983-8.219-7.432-11.39-1.1-1.013-1.519-2.656-2.912-3.403-.921-.494-1.607-1.149-3.053-.734-1.873.536-1.71 1.646-1.385 2.711.507 1.662 1.131 3.314 2.285 4.726 2.759 3.377 5.069 7.043 6.901 11.103-2.131-.246-2.841-1.791-3.678-3.29-2.125-3.803-4.798-7.314-6.059-11.572-.178-.601-.491-1.303-1.201-1.184-1.063.177-.931 1.448-1.621 2.161-.715-.744-1.257-1.948-2.63-1.118-.623.377-1.01-.075-1.251-.595-.22-.474-.099-.865.387-1.154 1.77-1.052 1.699-2.711 1.253-4.9 1.969 2.257 3.532.133 5.231.103.488-.009.282-.939.15-1.443-.591-2.248-.615-4.485.044-6.722.585-1.983.013-3.96-.077-5.933-.188-4.13 1.156-8.203.352-12.358-.639-3.297-.961-6.633-2.788-9.63-1.462-2.398-1.411-5.291-1.859-7.993-.51-3.073-1.623-5.864-3.256-8.493-4.451-7.171-8.282-14.564-9.525-23.107-.392-2.7.854-5.008.796-7.538-.066-2.907 1.118-5.706.43-8.706-.401-1.752-.867.095-1.242-.279-.051-2.728 2.573-4.047 3.519-6.293.337-.801.919-1.452 1.045-2.427.218-1.694 1.525-2.672 2.566-3.934 1.64-1.988 3.452-4.096 4.431-6.644 1.089-2.836 1.859-5.82 4.096-8.121.405-.417 1.201-1.282.471-2.242-.431-.568.074-1.003.425-1.389 2.053-2.26 3.629-4.94 5.97-6.938 5.91-5.045 11.275-10.74 17.846-15.003.742-.481 1.059-1.055 1.184-2.13.24-2.061 2.245-3.096 3.667-4.443 4.166-3.948 8.378-7.858 13.259-10.909 2.256-1.41 4.809-2.336 7.156-3.612 1.047-.569 2.564-.937 2.173-2.763-.076-.359.282-.707.742-.676 4.274.288 5.771-2.579 6.816-5.973.039-.129.183-.226.325-.393.296.738.114 1.348-.068 2.002-.142.512-.288 1.192.668 1.227.716.026 1.271 1.178 2.18-.016 1.452-1.908 1.657-4.248 2.74-6.554.36 1.436.672 2.694.991 3.951.276 1.084 1.013 1.928 2.074 1.781 1.12-.155 1.025-1.406 1.046-2.263.058-2.279-.657-4.527-.178-6.909 1.158 2.319 3.557 4.066 3.074 7.11-.171 1.073.505 1.251 1.275 1.462.3.081.464.721.897.264.53-.559.592-1.217.254-1.912-.381-.785-.631-1.462.207-2.245.592-.553.187-1.53.004-2.187-2.956-10.559-8.675-19.191-17.853-25.4-1.509-1.021-2.724-2.398-4.019-3.693-2.845-2.843-4.766-6.547-8.248-8.79-.71-.458-1.105-1.252-1.425-2.051-.961-2.4-3.061-3.738-5.021-5.146-.616-.443-1.243-.788-1.722-1.416-1.878-2.463-1.895-2.45.78-3.803 2.767-1.401 4.063-5.757 2.442-8.37-.828-1.334-1.618-2.712-3.047-3.561-.632-.375-1.169-1.171-1.979-.675-.7.428-1.275 1.088-1.284 2.026-.002.151.029.303.032.455.131 6.028-1.285 5.113-5.802 6.633-1.05.353-1.208-.304-.965-1.114.424-1.416.526-2.625-.894-3.689-.8-.599-.641-1.834-.43-2.72.895-3.765.5-7.567.435-11.351-.029-1.628.407-3.324-.6-4.904-.685-1.075-1.226-1.821-2.447-.692-.21.195-.509.382-.782.405-2.693.233-3.546 1.112-4.231 3.644-1.04 3.843-1.028 7.852-2.06 11.702-.372 1.388-.61 1.695-2.131 1.527-1.989-.22-3.273-.858-4.289-2.645-2.353-4.137-4.102-8.523-5.744-12.96-.584-1.579-2.071-1.519-3.196-1.694-1.282-.199-1.391 1.159-1.508 2.141-.646 5.47 1.187 10.327 4.236 14.643 2.446 3.462 5.656 6.092 9.307 8.552 4.762 3.208 9.628 6.268 14.757 8.601 4.65 2.115 8.042 5.323 11.588 8.682 2.641 2.502 4.526 5.537 6.833 8.263 3.523 4.162 6.11 8.922 8.671 13.702 1.425 2.662 2.387 5.526 2.927 8.413.516 2.756-.497 5.633-1.407 8.217-.55 1.56-3.027 1.765-4.676 2.376-2.809 1.04-5.546 2.219-8.205 3.567-2.23 1.13-2.307 2.135-.395 3.723-2.161 1.685-4.448 3.148-6.577 4.821-4.075 3.203-7.531 7.096-10.311 11.233-2.259 3.363-5.95 3.049-8.412 5.316 1.643-2.825 3.695-5.304 6.411-7.051 4.128-2.655 7.246-6.314 10.38-9.957.801-.932 1.261-2.131 2.279-2.97.691-.57.322-1.81-.157-2.027-1.018-.462-2.162-1.151-3.367-.703-1.876.697-3.541 1.797-5.009 3.148-1.671 1.538-3.355 3.078-4.872 4.763-1.21 1.345-2.972 1.692-4.369 2.771-1.991 1.536-3.331 3.504-4.948 5.283-.794.875-1.311 1.567-2.852 1.644-1.669.083-3.343 1.331-4.701 2.651-2.043 1.987-4.393 3.933-6.638 5.317-4.531 2.793-7.592 6.931-11.209 10.468-1.825 1.785-3.933 3.361-5.632 5.372-9.207 10.898-18.44 21.785-23.903 35.175-2.218 5.436-4.151 11.008-5.737 16.693-1.886 6.756-3.373 13.603-4.692 20.472-1.012 5.271-.272 10.678-.298 16.026-.022 4.427.139 8.833.876 13.205.012.075-.013.158.007.23 1.783 6.592 1.825 13.563 4.709 19.946 1.814 4.013 2.968 8.356 5.449 12.037 1.748 2.594 3.551 5.134 5.145 7.838 1.4 2.374 2.408 5.057 3.201 7.495.673 2.069 1.778 4.574 1.303 7.164-.166.906-.514 2.879 1.773 2.505.063-.01.267.38.281.592.331 5.217 2.35 9.843 4.37 14.615 2.591 6.119 4.991 12.413 8.109 18.191 2.848 5.276 4.64 11.182 8.622 15.86 3.405 4.001 6.421 8.315 9.143 12.792 1.695 2.788 4.334 4.517 6.601 6.58 3.862 3.517 8.232 6.482 12.704 9.241 5.058 3.12 10.699 4.462 16.47 5.285 1.897.27 3.741.77 5.629 1.008 8.9 1.123 17.452-.899 26.045-2.8 2.056-.455 4.366-.166 6.491.189 4.337.725 8.662 1.066 13.018.424 3.678-.541 7.327.105 10.99.101 6.335-.007 12.672.013 18.992-.482 1.115-.088 2.427-.342 2.859-1.586.497-1.431-.719-2.155-1.574-3.035-6.759-6.96-13.574-13.865-19.868-21.262-2.628-3.09-5.178-6.236-7.63-9.467-.299-.395-.602-.727-.482-1.184.629-2.396-.788-4.155-1.635-6.189-1.644-3.951-3.322-7.921-4.26-12.136-.215-.966-.521-1.915-.842-2.853-.884-2.588-1.033-5.264-1.053-7.967-.014-1.975-.423-3.943-.649-5.88-.274-2.357-.186-4.553.296-6.801.662-3.082.883-6.207.858-9.346-.01-1.35-.097-3.285-1.542-3.37-1.032-.06-1.971 1.657-2.226 3.108-.675 3.852-.657 7.679-.256 11.582.268 2.614-.195 5.318-.464 7.968-.266 2.626.422 5.363-.894 7.872-.21.4-.296 1.191-.507 1.216-3.319.389-2.025 3.117-2.52 4.904-.227.821-.006 1.796-.876 2.483" clip-path="url(#c)" style="fill:#0a0a0a;fill-opacity:1;fill-rule:nonzero;stroke:none" transform="matrix(.35278 0 0 -.35278 17.92103 83.22752)"/>
  <path d="M0 0c.536 1.418.385 2.346.194 3.317-.143.726-.528.893-1.11.748-.692-.173-.407-.634-.235-1.06C-.816 2.175-.509 1.334 0 0m-8.747 10.052c-.427 1.29-1.514 2.268-.247 3.44 1.293 1.198 2.235.109 3.3-.33.983-.405 1.7-1.331 2.827-1.463.492 3.133.749 3.217 3.738 1.426.773-.463 1.357.43 2.113.46.584.022.519.626.445 1.097-.092.588-.164 1.18-.249 1.794 3.49-.898 6.536-3.439 6.26-5.883-.397-3.511.04-7.075-.975-10.556-1.059-3.629-2.209-7.249-3.133-10.895-1.038-4.093-2.376-8.099-3.327-12.21-.686-2.969-2.665-5.429-3.244-8.456-.579-3.024-1.308-6.022-2.032-9.016-.174-.723-.478-1.468-.914-2.063-.686-.937-1.056-1.87-.599-2.984.203-.495-.003-.895-.16-1.318-1.921-5.164-2.051-10.684-3.201-16-.336-1.557-.918-3.072-1.5-4.562-.861-2.206-.253-3.192 2.014-4.172 3.109-1.345 5.63-3.641 8-5.995.968-.961 1.053-2.543.181-3.863-.709-1.072-1.789-.987-2.891-.863-.731.083-1.218.452-1.182 1.145.11 2.147-1.719 2.808-3.029 3.285-2.185.795-4.587 1.063-6.923 1.354-2.294.286-3.808-1.005-5.153-2.78-2.204-2.909-4.619-5.656-6.9-8.509-.609-.761-1.441-1.08-2.218-1.559-.991-.612-1.457-.109-2.133.5-.856.773-.623 1.461-.127 2.213 1.752 2.655 3.767 5.172 4.487 8.636-1.939-.25-2.944-1.564-4.082-2.722-2.702-2.751-5.706-4.955-9.578-5.923-1.824-.455-3.101-2.163-4.879-2.941-1.618-.707-3.39-1.08-4.343.455-.951 1.531-.036 2.987 1.611 3.928 3.781 2.157 6.384 5.622 9.374 8.655 3.568 3.62 7.772 6.04 12.778 7.183 6.841 1.562 10.594 3.655 11.893 12.264.268 1.78.697 3.571 1.408 5.304.731 1.779-.038 3.755.324 5.737 1.081 5.934 1.974 11.935 4.027 17.59 1.551 4.27 2.211 8.589 2.33 13.01.069 2.521-.247 5.12-.652 7.599-.307 1.875-2.455 3.153-3.06 5.142-.756 2.487-3.08 3.76-4.464 5.763-.165.239-.738.408-1.029.316-2.618-.835-5.312.333-7.941-.363-1.194-.316-2.396-.091-3.612.283-2.261.695-4.552 1.382-6.982 1.015-.721-.108-1.638.074-1.768.66-.177.8.657 1.27 1.401 1.539 1.771.639 3.623.486 5.451.501 3.184.027 6.368.007 10.107.007-1.378 1.138-2.247 2.102-1.135 3.321.935 1.024 1.988 1.524 3.448.714 1.862-1.035 4.009-.302 6.145-.91" clip-path="url(#d)" style="fill:#0a0a0a;fill-opacity:1;fill-rule:nonzero;stroke:none" transform="matrix(.35278 0 0 -.35278 57.56923 104.08438)"/>
  <path d="M0 0c-1.913-.835-2.018.491-2.424 1.723-1.694 5.133-.577 10.083.811 15.033.269.959.961 1.37 1.887 1.276 1.161-.117 2.135-.675 2.194-1.942.054-1.133-.116-2.291-.303-3.418-.582-3.492-.664-6.987-.235-10.5C2.112.684 2.228-.794 0 0" clip-path="url(#e)" style="fill:#0a0a0a;fill-opacity:1;fill-rule:nonzero;stroke:none" transform="matrix(.35278 0 0 -.35278 43.0621 28.0257)"/>
  <path d="M0 0c-1.155-3.783-3.668-6.745-5.126-10.232-.395.684.371 1.188-.033 1.923-.919-.769-1.264-1.88-1.878-2.795-.574-.856-.932-2.065-2.39-1.411-1.421.638-.59 1.874-.634 2.809-.028.583.508 1.193 1.185 1.558.837.452 1.064 1.085.923 2.202-.355 2.802 1.663 5.677 4.497 7.008 1.232.579 1.377 2.171 2.744 2.954-.305-1.027-.454-1.924-.835-2.71-.409-.842-.547-1.698-.663-2.613C-.989-1.633-1.341.07 0 0" clip-path="url(#f)" style="fill:#0a0a0a;fill-opacity:1;fill-rule:nonzero;stroke:none" transform="matrix(.35278 0 0 -.35278 38.81613 25.78186)"/>
  <path d="M0 0c.034-.593-.277-.994-.688-1.381-2.831-2.666-5.687-5.303-8.108-8.378-.409-.52-.513-1.071-.79-1.59-.797-1.49-2.063-1.462-3.287-.835-1.559.798-.449 1.844.031 2.677 2.616 4.533 6.403 8.054 10.165 11.59.314.295.949.785 1.127.369C-1.155 1.531-.116 1.054 0 0" clip-path="url(#g)" style="fill:#0a0a0a;fill-opacity:1;fill-rule:nonzero;stroke:none" transform="matrix(.35278 0 0 -.35278 31.94218 30.58292)"/>
  <path d="M0 0c-.903 2.392.99 4.77-.144 7.276-.436.963.491 2.357 1.812 2.473 1.364.12 1.95-.913 2.016-2.214.19-3.717.97-7.431.033-11.152-.236-.938-.256-2.371-1.514-2.136C1.255-5.577.166-4.68.028-3.434-.098-2.303.001-1.146 0 0" clip-path="url(#h)" style="fill:#0a0a0a;fill-opacity:1;fill-rule:nonzero;stroke:none" transform="matrix(.35278 0 0 -.35278 43.34474 33.19743)"/>
  <path d="M0 0c.498 6.011 2.031 11.435 7.238 14.737.672-4.655-1.676-8.839-3.603-13.141C2.931.023 1.456.161 0 0" clip-path="url(#i)" style="fill:#0a0a0a;fill-opacity:1;fill-rule:nonzero;stroke:none" transform="matrix(.35278 0 0 -.35278 31.51483 37.59787)"/>
  <path d="M0 0c-.111 2.986.574 5.875.903 8.801.122 1.088 1.016 1.834 2.055 1.772.909-.054 1.959-.896 1.718-1.805-.798-3.008.757-6.049-.297-9.008-.103-.287-.12-.627-.288-.863-.614-.862-.773-2.809-2.044-2.195C1.127-2.854-.175-1.606 0 0" clip-path="url(#j)" style="fill:#0a0a0a;fill-opacity:1;fill-rule:nonzero;stroke:none" transform="matrix(.35278 0 0 -.35278 37.02218 37.65823)"/>
  <path d="M0 0c.101-2.44-1.453-4.281-2.433-6.252-.857-1.724-2.163-3.238-2.957-5.052-.33-.756-.972-1.534-1.965-.819-.758.546-1.139 1.166-.746 2.318 1.331 3.91 3.518 7.419 5.067 11.222.29.714.502 1.904 1.454 1.84.863-.059.834-1.333 1.395-1.958C.057 1.028-.051.443 0 0" clip-path="url(#k)" style="fill:#0a0a0a;fill-opacity:1;fill-rule:nonzero;stroke:none" transform="matrix(.35278 0 0 -.35278 37.45187 31.66983)"/>
  <path d="M0 0c3.529 5.103 5.935 10.305 10.248 14.216.491.446 1.698.721.932 1.946-.282.451.148.699.52.303 1.001-1.065 1.373.457 2.269.477-.3-1.938-1.655-3.266-2.783-4.516-3.015-3.339-4.645-7.584-7.561-11C2.687.327 1.988-.06 0 0" clip-path="url(#l)" style="fill:#0a0a0a;fill-opacity:1;fill-rule:nonzero;stroke:none" transform="matrix(.35278 0 0 -.35278 29.53631 35.67901)"/>
  <path d="M0 0c2.313-.617 3.381-2.826 5.029-4.347 1-.923 1.785-2.081 2.797-2.988 1.17-1.048.693-1.986-.012-2.909-.873-1.144-1.63-.52-2.467.191C3.651-8.615 2.139-7.018.802-5.251-.409-3.649-1.962-2.087 0 0" clip-path="url(#m)" style="fill:#0a0a0a;fill-opacity:1;fill-rule:nonzero;stroke:none" transform="matrix(.35278 0 0 -.35278 53.73493 93.97649)"/>
  <path d="M0 0c.956-.214 1.69-.774 2.253-1.466 1.774-2.181 3.455-4.438 5.225-6.622.78-.964.935-2.019.153-2.859-.883-.949-1.881-.237-2.617.427C2.624-8.363.725-5.797-.746-2.949-1.28-1.915-1.667-.643 0 0" clip-path="url(#n)" style="fill:#0a0a0a;fill-opacity:1;fill-rule:nonzero;stroke:none" transform="matrix(.35278 0 0 -.35278 49.79542 94.09834)"/>
  <path d="M0 0c-.437 2.456.988 4.279 1.911 6.238.394.837 1.099 1.154 2.093.742.934-.387.996-.996.813-1.831-.666-3.038-1.295-6.083-1.974-9.117-.075-.332-.323-.754-.604-.881-.506-.228-.824.253-1.076.61C.254-2.95-.142-1.509 0 0" clip-path="url(#o)" style="fill:#0a0a0a;fill-opacity:1;fill-rule:nonzero;stroke:none" transform="matrix(.35278 0 0 -.35278 38.76857 31.1038)"/>
  <path d="M0 0c2.091 2.977 2.303 6.966 6.015 8.64.65.293 1.322 1.184 1.985.339.556-.707.66-1.762.142-2.573C6.864 4.409 5.502 2.465 4.129.531 3.059-.976 1.627-.157 0 0" clip-path="url(#p)" style="fill:#0a0a0a;fill-opacity:1;fill-rule:nonzero;stroke:none" transform="matrix(.35278 0 0 -.35278 32.38415 29.46652)"/>
  <path d="M0 0c-.891-.341-.27-1.456-.956-1.802-.754-.38-1.262.246-1.773.722C-4.893.939-6.355 3.44-7.63 6.062c-.445.916-.375 1.673.629 2.346 1.076.722 1.617.021 2.06-.619C-3.377 5.525-1.902 3.199-.405.89-.243.64-.154.344 0 0" clip-path="url(#q)" style="fill:#0a0a0a;fill-opacity:1;fill-rule:nonzero;stroke:none" transform="matrix(.35278 0 0 -.35278 53.39714 93.00264)"/>
  <path d="M0 0c-.326.168-.859.33-1.249.661-2.056 1.74-2.991 4.234-4.166 6.533-.666 1.304 1.61.595 1.642 1.852.008.318 1.266.13 1.702-.524C-.843 6.682.422 4.861 1.538 2.954 2.211 1.804 1.326.08 0 0" clip-path="url(#r)" style="fill:#0a0a0a;fill-opacity:1;fill-rule:nonzero;stroke:none" transform="matrix(.35278 0 0 -.35278 47.9101 94.48089)"/>
  <path d="M0 0c1.047.15 1.606-.386 2.089-.994 2.658-3.347 5.293-6.714 7.958-10.056.352-.441.743-.77.246-1.359-.478-.567-1.043-.427-1.401-.042C5.491-8.793 1.754-5.381-.081-.544c-.044.116.038.28.081.544" clip-path="url(#s)" style="fill:#0a0a0a;fill-opacity:1;fill-rule:nonzero;stroke:none" transform="matrix(.35278 0 0 -.35278 49.26894 91.00063)"/>
  <path d="M0 0c2.543-.422 1.534-2.684 2.164-4.013.893-1.884 1.096-4.077.529-6.233-.391-1.485-1.585-1.991-2.757-1.786-1.201.21-.753 1.519-.624 2.341C-.183-6.48.127-3.258 0 0" clip-path="url(#t)" style="fill:#0a0a0a;fill-opacity:1;fill-rule:nonzero;stroke:none" transform="matrix(.35278 0 0 -.35278 44.69291 22.69435)"/>
  <path d="M0 0c.093-.484.483-1.003-.365-1.276-.626-.201-1.214-.335-1.724.125-2.166 1.95-3.802 4.316-4.893 6.987-.334.819.21 1.611 1.468 1.202C-3.152 6.27-.17 2.536 0 0" clip-path="url(#u)" style="fill:#0a0a0a;fill-opacity:1;fill-rule:nonzero;stroke:none" transform="matrix(.35278 0 0 -.35278 46.73515 99.58622)"/>
  <path d="M0 0c-.32-1.558-.708-3.727-1.232-5.864-.199-.811-.826-1.672-1.729-1.511-.998.179-1.468 1.197-1.308 2.147.375 2.238.825 4.475 1.448 6.655.232.813 1.239 1.197 2.111 1.046C.377 2.285.029 1.343 0 0" clip-path="url(#v)" style="fill:#0a0a0a;fill-opacity:1;fill-rule:nonzero;stroke:none" transform="matrix(.35278 0 0 -.35278 40.9735 24.67883)"/>
  <path d="M0 0c1.103.081 1.152-1.074 1.79-1.565 2.2-1.693 4.293-3.524 6.427-5.301.685-.571 1.333-1.213.535-2.089-.769-.845-1.379.032-1.962.391C4.472-7.138 2.408-5.397.486-3.466c-.697.7-.872 1.572-1.215 2.4-.289.7.084.984.729 1.066" clip-path="url(#w)" style="fill:#0a0a0a;fill-opacity:1;fill-rule:nonzero;stroke:none" transform="matrix(.35278 0 0 -.35278 46.57897 95.48849)"/>
  <path d="M0 0c1.855-.899 2.073-3.018 3.108-4.549.821-1.216-.55-2.084-.669-3.177-.04-.369-.588-.222-.955-.011C-.137-6.804-1.65-2.284-.948-.573-.76-.115-.483-.054 0 0" clip-path="url(#x)" style="fill:#0a0a0a;fill-opacity:1;fill-rule:nonzero;stroke:none" transform="matrix(.35278 0 0 -.35278 47.62422 86.00438)"/>
  <path d="M0 0c-.158-.559-.418-1.426-.645-2.301-.195-.751-.349-1.593-1.373-1.461-.846.109-1.339.787-1.441 1.576C-3.638-.801-3.53.569-2.23 1.462c.473.325.961.828 1.645.484C.104 1.599-.032.937 0 0" clip-path="url(#y)" style="fill:#0a0a0a;fill-opacity:1;fill-rule:nonzero;stroke:none" transform="matrix(.35278 0 0 -.35278 40.69866 17.29699)"/>
  <path d="M0 0c1.955-1.234 3.923-2.447 5.856-3.714.528-.346.929-.868.343-1.52-.596-.664-.866.233-1.23.266-2.893.26-3.142 3.424-5.385 4.345.139.208.277.415.416.623" clip-path="url(#z)" style="fill:#0a0a0a;fill-opacity:1;fill-rule:nonzero;stroke:none" transform="matrix(.35278 0 0 -.35278 40.14487 96.84693)"/>
  <path d="M0 0c-2.912 3.182-3.067 3.242-5.174 1.86C-3.285 1.531-2.181-.158 0 0m-5.301 7.158c3.782.096 7.211-.545 10.051-3.433C7.478.95 7.89-5.67 5.135-8.441c-1.534-1.543-2.721-3.722-5.397-3.594-3.612-3.625-7.141-1.771-10.31.501-3.199 2.292-5.216 5.392-5.04 9.712.153 3.733 1.939 7.354 5.199 8.46 1.581.537 3.4.369 5.112.52" clip-path="url(#A)" style="fill:#0a0a0a;fill-opacity:1;fill-rule:nonzero;stroke:none" transform="matrix(.35278 0 0 -.35278 32.606 11.47863)"/>
</svg>
