<svg width="17" height="24" viewBox="0 0 17 24" fill="none" xmlns="http://www.w3.org/2000/svg">
<g clip-path="url(#clip0_41_222)">
<path d="M8.90377 0.00023168C9.05252 0.0440773 9.21189 0.0276352 9.36065 0.0440773C10.1522 0.120807 10.9172 0.318112 11.6556 0.619551C12.835 1.10185 13.855 1.82531 14.7156 2.78443C15.8047 3.99018 16.5113 5.40969 16.83 7.02101C16.9947 7.8486 17.0319 8.68715 16.9575 9.52569C16.83 11.0219 16.3678 12.3976 15.5285 13.6307C15.3425 13.9048 15.1406 14.1624 14.9281 14.42C14.6466 14.7543 14.4288 15.1325 14.1897 15.4942C12.9253 17.3905 11.6663 19.2868 10.4072 21.1831C9.79627 22.0984 9.18533 23.0137 8.57971 23.9345C8.52658 24.0167 8.50533 24.0276 8.44689 23.9345C7.45877 22.4547 6.47064 20.9804 5.48252 19.5006C4.38814 17.8673 3.29908 16.2286 2.19408 14.6008C1.98689 14.2939 1.72658 14.0144 1.51939 13.702C0.897831 12.7429 0.440956 11.7125 0.191269 10.589C0.0372062 9.8655 -0.0212314 9.13656 0.00533115 8.39119C0.0797062 6.51131 0.690644 4.82873 1.81689 3.3599C2.93252 1.90204 4.36158 0.904548 6.08814 0.367439C6.72033 0.170133 7.36846 0.049558 8.02721 0.0166738C8.06439 0.0166738 8.10689 0.00571238 8.14408 -0.00524902C8.39908 -0.00524902 8.64877 -0.00524902 8.90377 -0.00524902V0.00023168ZM8.52127 21.1941C8.54252 21.1612 8.55846 21.1448 8.56908 21.1229C9.58377 19.5992 10.5878 18.0701 11.6078 16.552C12.3994 15.3736 13.1591 14.1733 13.9985 13.0279C14.8113 11.9153 15.2469 10.6383 15.316 9.2407C15.3425 8.66522 15.316 8.08975 15.2044 7.52524C14.891 5.87555 14.1206 4.49989 12.8722 3.41471C11.7991 2.47751 10.5506 1.94588 9.14814 1.80886C8.36721 1.73213 7.59158 1.78694 6.83189 1.99521C5.25939 2.4227 3.97377 3.31058 3.00689 4.66431C2.28439 5.67276 1.85408 6.80178 1.71596 8.05138C1.64689 8.6707 1.65221 9.28454 1.74783 9.8929C1.89127 10.8082 2.22064 11.6577 2.67221 12.4579C2.90596 12.8689 3.21408 13.2306 3.47439 13.6198C4.69096 15.4339 5.89689 17.259 7.10814 19.0786C7.57564 19.7801 8.04315 20.4816 8.51596 21.1996L8.52127 21.1941Z" fill="#3D3F20"/>
<path d="M8.47873 12.5727C6.32186 12.5563 4.57936 10.797 4.58467 8.54442C4.58998 6.29733 6.32186 4.5435 8.47342 4.5435C10.6622 4.5435 12.41 6.33569 12.41 8.5499C12.41 10.8025 10.6303 12.5563 8.47342 12.5727H8.47873ZM6.14654 8.56086C6.13061 9.85978 7.15061 10.9285 8.40436 10.9669C9.78029 11.0053 10.8162 9.87075 10.8587 8.64855C10.9065 7.26193 9.77498 6.14935 8.48404 6.14935C7.19311 6.14935 6.13061 7.23453 6.15186 8.56086H6.14654Z" fill="#3D3F20"/>
</g>
<defs>
<clipPath id="clip0_41_222">
<rect width="17" height="24" fill="white"/>
</clipPath>
</defs>
</svg>
