<svg width="18" height="22" viewBox="0 0 18 22" fill="none" xmlns="http://www.w3.org/2000/svg">
<g clip-path="url(#clip0_41_220)">
<path d="M18 18.8595C18 20.6855 16.5183 22.121 14.7801 21.989C13.4712 21.89 12.3613 20.867 12.0838 19.514C11.9948 19.063 11.9948 18.612 12.1047 18.161C12.1309 18.062 12.1204 18.007 12.0209 17.952C11.0419 17.3855 10.0733 16.8135 9.09425 16.247C8.41362 15.851 7.72775 15.4605 7.04713 15.059C6.25131 14.597 5.46074 14.1295 4.67016 13.662C4.61257 13.629 4.58639 13.651 4.54451 13.6785C4.06807 13.992 3.54974 14.146 2.99477 14.146C1.48692 14.146 0.298434 13.002 0.0523612 11.594C-0.136121 10.5105 0.146602 9.56448 0.874351 8.78348C1.3822 8.23898 2.01048 7.93648 2.73822 7.87598C3.51833 7.80998 4.21466 8.03548 4.8377 8.54148C4.84294 8.54698 4.85341 8.55248 4.85864 8.55798C5.09425 8.76148 5.09948 8.76148 5.35603 8.59098C6.60733 7.77698 7.85864 6.95748 9.10995 6.14348C10.0524 5.52748 10.9948 4.91698 11.9424 4.30098C11.9476 4.30098 11.9581 4.28998 11.9634 4.28448C12.178 4.12498 12.1466 4.20198 12.0838 3.94348C11.8115 2.82148 12.0576 1.82598 12.8011 0.97898C13.2984 0.41248 13.9267 0.08798 14.6545 0.01648C15.5497 -0.07152 16.3403 0.19798 17 0.84698C17.5654 1.39698 17.8743 2.08448 17.9424 2.88198C17.9895 3.38798 17.911 3.88848 17.7173 4.36148C17.4189 5.09298 16.9267 5.64298 16.2461 5.97848C15.4398 6.37448 14.623 6.39648 13.7958 6.02798C13.5183 5.90148 13.2723 5.73098 13.0419 5.53298C12.9843 5.48348 12.9424 5.48348 12.8848 5.52198C11.6963 6.30298 10.5079 7.07848 9.31938 7.85398C8.24084 8.55798 7.16231 9.26198 6.08377 9.96598C5.85341 10.12 5.84817 10.12 5.90576 10.395C6.04189 11.055 5.96336 11.6875 5.68587 12.2925C5.62828 12.4135 5.65969 12.463 5.7644 12.518C6.62828 13.0185 7.48692 13.519 8.35079 14.025C9.00524 14.4045 9.65969 14.7895 10.3141 15.169C11.1414 15.653 11.9686 16.137 12.7958 16.621C12.8534 16.654 12.8848 16.6485 12.9319 16.6045C13.4189 16.115 14 15.818 14.6702 15.741C15.2984 15.6695 15.9005 15.7905 16.4555 16.1205C17.0367 16.467 17.4607 16.9565 17.733 17.5945C17.9058 17.996 17.9895 18.425 17.9895 18.865L18 18.8595ZM4.48692 11.0055C4.48692 10.131 3.82199 9.42698 2.98953 9.42698C2.16754 9.42698 1.50262 10.1255 1.50262 11C1.50262 11.88 2.17278 12.5895 3.01048 12.5785C3.86911 12.5675 4.49739 11.825 4.48692 11.0055ZM14.9686 4.71348C15.8011 4.71348 16.4764 4.00398 16.4764 3.13498C16.4764 2.26598 15.7906 1.55648 14.9476 1.56198C14.1152 1.56748 13.445 2.33198 13.4712 3.19548C13.4974 4.00948 14.1675 4.71348 14.9634 4.71348H14.9686ZM13.5079 18.8595C13.4974 19.69 14.1675 20.4215 14.9581 20.4325C15.8011 20.449 16.4922 19.767 16.5026 18.9035C16.5131 18.007 15.8691 17.303 15.0157 17.2865C14.199 17.27 13.5183 17.974 13.5079 18.854V18.8595Z" fill="#3D3F20"/>
</g>
<defs>
<clipPath id="clip0_41_220">
<rect width="18" height="22" fill="white"/>
</clipPath>
</defs>
</svg>
