<svg width="22" height="22" viewBox="0 0 22 22" fill="none" xmlns="http://www.w3.org/2000/svg">
<path d="M11 0C8.08262 0 5.28473 1.15893 3.22183 3.22183C1.15893 5.28473 0 8.08262 0 11C0 13.9174 1.15893 16.7153 3.22183 18.7782C5.28473 20.8411 8.08262 22 11 22C13.9174 22 16.7153 20.8411 18.7782 18.7782C20.8411 16.7153 22 13.9174 22 11C22 8.08262 20.8411 5.28473 18.7782 3.22183C16.7153 1.15893 13.9174 0 11 0ZM16.0449 15.8647C15.9496 16.0196 15.7969 16.1304 15.6201 16.1729C15.4433 16.2155 15.2569 16.1862 15.1016 16.0916C12.518 14.5145 9.2675 14.157 5.43812 15.0329C5.26071 15.0734 5.07448 15.0417 4.92041 14.9449C4.76634 14.848 4.65704 14.694 4.61656 14.5166C4.57608 14.3391 4.60774 14.1529 4.70457 13.9988C4.80139 13.8448 4.95546 13.7355 5.13287 13.695C9.32388 12.738 12.9181 13.1491 15.8166 14.9215C15.9717 15.0165 16.0828 15.1692 16.1256 15.346C16.1684 15.5228 16.1393 15.7093 16.0449 15.8647ZM17.391 12.87C17.2719 13.0638 17.0807 13.2023 16.8595 13.2551C16.6383 13.308 16.4051 13.2709 16.2113 13.1519C13.255 11.3355 8.74775 10.8089 5.24975 11.8704C5.03684 11.921 4.81264 11.8884 4.6229 11.7794C4.43315 11.6704 4.29215 11.4931 4.22866 11.2836C4.16516 11.0742 4.18396 10.8484 4.28121 10.6524C4.37846 10.4563 4.54684 10.3048 4.752 10.2286C8.74638 9.01725 13.7129 9.60437 17.1077 11.6902C17.3017 11.8091 17.4406 12.0002 17.4937 12.2215C17.5468 12.4427 17.5099 12.676 17.391 12.87ZM17.5065 9.7515C13.9618 7.645 8.1125 7.45112 4.72725 8.47825C4.46614 8.55738 4.1843 8.52955 3.94371 8.40088C3.70313 8.27221 3.52351 8.05323 3.44438 7.79212C3.36524 7.53102 3.39307 7.24917 3.52175 7.00859C3.65042 6.768 3.86939 6.58838 4.1305 6.50925C8.01488 5.33088 14.4746 5.55775 18.557 7.9805C18.7918 8.1198 18.9617 8.3467 19.0293 8.61127C19.0969 8.87583 19.0566 9.1564 18.9172 9.39125C18.7779 9.6261 18.5511 9.79599 18.2865 9.86355C18.0219 9.93111 17.7414 9.89081 17.5065 9.7515Z" fill="#3D3F20"/>
</svg>
