<svg fill="#3D3F20" height="32px" width="32px" viewBox="0 0 32 32" version="1.1" xmlns="http://www.w3.org/2000/svg"><g id="SVGRepo_bgCarrier" stroke-width="0" ></g><g id="SVGRepo_tracerCarrier" stroke-linecap="round" stroke-linejoin="round"></g><g id="SVGRepo_iconCarrier" transform="rotate(90 16 16)"> <title>ticket-blank</title> <path d="M30 14.25c0.69-0 1.25-0.56 1.25-1.25v-5c-0-0.69-0.56-1.25-1.25-1.25h-28c-0.69 0-1.25 0.56-1.25 1.25v0 5c0 0.69 0.56 1.25 1.25 1.25v0c0.966 0 1.75 0.784 1.75 1.75s-0.784 1.75-1.75 1.75v0c-0.69 0-1.25 0.56-1.25 1.25v5c0 0.69 0.56 1.25 1.25 1.25h28c0.69-0.001 1.249-0.56 1.25-1.25v-5c-0.001-0.69-0.56-1.249-1.25-1.25h-0c-0.966 0-1.75-0.784-1.75-1.75s0.784-1.75 1.75-1.75v0zM28.75 20.041v2.709h-25.5v-2.709c1.75-0.541 3-2.145 3-4.041s-1.25-3.5-2.97-4.033l-0.030-0.008v-2.709h25.5v2.709c-1.75 0.541-3 2.145-3 4.041s1.25 3.5 2.97 4.033l0.030 0.008z"></path> </g></svg>