<?xml version="1.0" encoding="UTF-8" standalone="no"?>
<!-- Created with Inkscape (http://www.inkscape.org/) -->

<svg
   width="13.482582mm"
   height="11.414247mm"
   viewBox="0 0 13.482582 11.414247"
   version="1.1"
   id="svg1"
   xmlns="http://www.w3.org/2000/svg"
   xmlns:svg="http://www.w3.org/2000/svg">
  <defs
     id="defs1" />
  <g
     id="layer1"
     transform="translate(-34.925,-51.329167)">
    <g
       id="g1915"
       transform="matrix(0.26458333,0,0,0.26458333,-13.801437,38.33285)">
      <path
         class="cls-2"
         d="m 187.23,70.67 c -0.1,0.06 -0.21,0.12 -0.3,0.19 -0.14,0.1 -0.15,0.26 -0.09,0.4 0.06,0.16 0.14,0.28 0.35,0.29 0.37,0.02 0.39,0.05 0.26,0.37 -0.07,0.18 0.02,0.29 0.07,0.42 0.07,0.16 0.23,0.3 0.15,0.49 -0.05,0.13 0.15,0.3 -0.08,0.39 -0.19,0.07 0.03,0.26 -0.13,0.38 -0.21,0.15 -0.27,0.46 -0.53,0.59 -0.07,0.04 -0.12,0.17 0,0.21 0.3,0.1 0.4,0.41 0.64,0.56 0.14,0.09 0.11,0.46 -0.01,0.66 q -0.19,0.3 0.05,0.61 c 0,0 0.07,0.08 0.07,0.11 -0.06,0.4 0.15,0.79 0.03,1.18 -0.04,0.13 0.03,0.23 0.05,0.35 0.07,0.43 -0.02,0.86 0.06,1.3 0.05,0.3 -0.08,0.64 -0.13,0.96 -0.03,0.2 -0.26,0.23 -0.36,0.43 0.19,0.02 0.32,0.13 0.42,0.27 0.11,0.15 0.01,0.32 0,0.48 0,0.19 0.01,0.39 0,0.58 -0.04,0.36 0.03,0.75 -0.33,1.02 -0.1,0.07 -0.11,0.19 0.09,0.15 0.05,-0.01 0.07,0.03 0.07,0.08 0.01,0.39 -0.01,0.78 0.03,1.15 0.07,0.61 -0.18,1.21 0.03,1.81 0.04,0.11 -0.04,0.2 -0.06,0.3 -0.05,0.21 -0.17,0.41 -0.06,0.64 0.04,0.08 0.01,0.18 -0.04,0.26 -0.09,0.14 -0.05,0.29 -0.02,0.43 0.06,0.29 0.19,0.57 0,0.86 -0.03,0.04 0,0.12 0.01,0.17 0.07,0.19 0.13,0.36 0.06,0.58 -0.08,0.26 0.14,0.41 0.43,0.35 0.26,-0.06 0.53,-0.07 0.79,-0.11 0.32,-0.05 0.71,-0.13 0.98,0.23 0.1,0.13 0.29,0.03 0.42,-0.02 0.17,-0.06 0.32,-0.02 0.5,0.01 0.44,0.09 0.9,0.25 1.36,0.06 0.17,-0.07 0.35,-0.04 0.53,-0.09 0.16,-0.04 0.29,0.02 0.43,-0.19 0.12,-0.18 0.47,-0.18 0.71,-0.15 0.23,0.03 0.4,-0.04 0.59,-0.11 0.15,-0.06 0.29,-0.28 0.49,-0.05 0.05,0.06 0.12,-0.03 0.18,-0.08 0.27,-0.24 0.3,-0.25 0.57,-0.05 0.15,0.11 0.27,0.13 0.48,0.09 0.39,-0.08 0.8,-0.06 1.2,-0.07 0.39,0 0.77,0.05 1.16,-0.05 0.03,0 0.07,-0.02 0.09,-0.01 0.39,0.23 0.82,0.02 1.22,0.09 0.24,0.04 0.44,-0.05 0.65,-0.07 0.42,-0.05 0.86,0 1.27,0.11 0.04,0.01 0.09,0.07 0.11,0.06 0.29,-0.18 0.6,0.05 0.9,-0.04 0.22,-0.06 0.46,-0.13 0.69,0.02 0.08,0.05 0.17,0.01 0.26,-0.02 0.51,-0.21 1.01,-0.18 1.49,0.07 0.11,0.06 0.19,0.06 0.29,0 0.33,-0.15 0.63,-0.02 0.93,0.08 0.11,0.04 0.21,0.07 0.24,0.22 0.04,0.2 0.24,0.16 0.32,0.1 0.1,-0.08 0.25,-0.08 0.28,-0.11 0.25,-0.28 0.56,-0.24 0.87,-0.23 0.1,0 0.18,-0.03 0.25,-0.07 0.27,-0.14 0.53,-0.18 0.81,-0.03 0.08,0.04 0.17,0.07 0.26,0.03 0.32,-0.17 0.65,-0.14 0.98,-0.03 0.1,0.03 0.17,0 0.25,-0.04 0.08,-0.04 0.18,-0.08 0.26,-0.04 0.25,0.1 0.49,0.08 0.72,-0.06 0.09,-0.06 0.17,0 0.25,0.02 0.2,0.07 0.4,0.13 0.6,0.18 0.45,0.11 0.9,0.07 1.36,0.06 0.45,0 0.93,-0.03 1.37,0.08 0.33,0.08 0.61,0.04 0.9,-0.05 0.14,-0.04 0.26,-0.04 0.39,-0.02 0.59,0.13 1.2,0.14 1.8,0.21 0.16,0.02 0.34,0.02 0.49,0.07 0.57,0.21 1.16,0.24 1.76,0.26 0.31,0.01 0.62,0.02 0.94,-0.02 0.41,-0.06 0.85,-0.02 1.28,-0.08 0.1,-0.01 0.2,0.01 0.28,-0.07 0.07,-0.07 0.17,-0.05 0.25,0 0.23,0.15 0.46,0.08 0.68,0 0.21,-0.07 0.4,-0.09 0.61,-0.02 0.45,0.13 0.91,0.14 1.37,0.06 0.24,-0.04 0.47,-0.04 0.7,0.05 0.2,0.08 0.41,0.08 0.6,-0.04 0.18,-0.11 0.36,-0.12 0.56,-0.1 0.2,0.02 0.39,0.03 0.6,-0.07 0.26,-0.12 0.56,-0.01 0.83,0.05 0.86,0.18 1.04,0.09 1.08,-0.75 0.01,-0.21 0.07,-0.38 0.15,-0.53 0.11,-0.21 0.11,-0.37 0.03,-0.59 -0.1,-0.25 -0.11,-0.52 -0.21,-0.77 -0.07,-0.17 -0.1,-0.37 0.18,-0.46 0.14,-0.05 0.13,-0.21 -0.04,-0.23 -0.21,-0.03 -0.22,-0.17 -0.24,-0.31 -0.03,-0.34 -0.07,-0.67 0.07,-1.01 0.1,-0.26 0.1,-0.57 0.13,-0.85 0,-0.06 0.01,-0.12 0.08,-0.13 0.1,-0.02 0.09,0.07 0.13,0.14 0.11,0.21 0.07,0.43 0.05,0.65 0,0.06 0.03,0.12 0.1,0.13 0.05,0 0.1,-0.04 0.09,-0.08 -0.04,-0.37 0.17,-0.72 0.12,-1.09 -0.04,0 -0.08,-0.03 -0.09,-0.02 -0.11,0.09 -0.24,0.21 -0.32,0.03 -0.07,-0.15 -0.02,-0.31 0.16,-0.41 0.23,-0.13 0.3,-0.32 0.23,-0.54 -0.03,-0.08 -0.07,-0.15 -0.18,-0.15 -0.22,-0.01 -0.28,-0.13 -0.16,-0.32 0.08,-0.14 0.21,-0.24 0.26,-0.4 -0.15,-0.1 -0.22,0.12 -0.35,0.03 0.13,-0.67 0.3,-1.35 0.43,-2.04 0.15,-0.75 0.13,-1.5 0.12,-2.25 -0.01,-0.7 0.04,-1.4 0,-2.1 -0.01,-0.24 0.14,-0.44 0.13,-0.7 -0.02,-0.48 0.03,-0.97 -0.17,-1.43 -0.03,-0.06 -0.02,-0.11 0.03,-0.16 0.14,-0.13 0.11,-0.35 0.06,-0.45 -0.14,-0.28 -0.11,-0.58 -0.17,-0.86 -0.07,-0.34 0.03,-0.74 0.1,-1.1 0.07,-0.37 0.1,-0.73 -0.02,-1.1 -0.03,-0.08 -0.06,-0.2 -0.02,-0.26 0.21,-0.39 0.19,-0.82 0.26,-1.24 0.02,-0.12 0.13,-0.19 0.24,-0.25 0.11,-0.06 0.22,-0.13 0.24,-0.25 0.04,-0.19 0.13,-0.33 0.32,-0.39 0.25,-0.08 0.51,-0.08 0.75,0 0.49,0.17 0.91,0.48 1.31,0.8 0.29,0.23 0.31,0.59 0.21,0.9 -0.09,0.29 0.05,0.52 0.07,0.78 0,0.07 0.07,0.13 0.16,0.14 0.21,0.02 0.3,0.23 0.49,0.29 0.2,0.06 0.27,0.17 0.12,0.36 -0.07,0.09 -0.05,0.18 -0.02,0.29 0.04,0.17 0.21,0.42 -0.16,0.46 -0.02,0 -0.05,0.05 -0.05,0.07 0.06,0.28 -0.13,0.57 0.1,0.86 0.2,0.25 0.22,0.6 0.08,0.89 -0.1,0.21 -0.1,0.39 -0.01,0.59 0.03,0.08 0.11,0.18 0,0.24 -0.26,0.14 -0.17,0.32 -0.1,0.51 0.02,0.04 0.02,0.14 -0.06,0.13 -0.04,0 -0.07,-0.08 -0.12,-0.16 -0.15,0.5 -0.24,0.95 -0.05,1.45 0.17,0.45 0.11,0.94 -0.17,1.36 -0.05,0.07 -0.09,0.16 -0.11,0.24 -0.05,0.16 -0.15,0.22 -0.31,0.17 -0.13,-0.04 -0.25,-0.04 -0.3,0.09 -0.06,0.15 0.08,0.2 0.18,0.26 0.03,0.02 0.05,0.07 0.07,0.11 -0.05,0.15 -0.4,0.11 -0.25,0.33 0.07,0.11 0.26,0.06 0.4,-0.03 0.19,-0.12 0.29,-0.03 0.35,0.17 0.1,0.31 0.18,0.62 0,0.93 -0.06,0.09 0.02,0.17 0.04,0.25 0.08,0.32 0.06,0.61 -0.25,0.83 -0.25,0.19 -0.32,0.49 -0.35,0.79 -0.02,0.21 0,0.42 -0.08,0.62 -0.06,0.16 -0.03,0.3 0.16,0.34 0.09,0.02 0.16,0.08 0.2,0.16 0.14,0.24 0.05,0.47 -0.22,0.57 -0.17,0.06 -0.28,0.18 -0.29,0.35 -0.01,0.19 0.14,0.24 0.29,0.28 0.02,0 0.04,0.04 0.07,0.08 -0.38,0.13 -0.27,0.52 -0.42,0.78 -0.06,0.1 0.07,0.17 0.16,0.23 0.21,0.15 0.28,0.32 0.28,0.6 0,0.38 -0.13,0.78 -0.03,1.14 0.09,0.32 -0.1,0.58 -0.05,0.88 0.02,0.11 -0.1,0.17 -0.22,0.15 -0.08,-0.01 -0.13,-0.13 -0.22,-0.1 -0.05,0.07 -0.02,0.15 0.02,0.17 0.29,0.15 0.19,0.41 0.19,0.64 0,0.06 0.02,0.11 -0.08,0.09 -0.2,-0.04 -0.18,0.13 -0.16,0.23 0.04,0.19 0.17,0.4 -0.18,0.43 -0.02,0 -0.05,0.08 -0.04,0.11 0.15,0.43 0.17,0.94 0.73,1.08 0.09,0.02 0.13,0.09 0.08,0.17 -0.07,0.12 -0.02,0.23 0,0.35 0.01,0.08 -0.02,0.18 -0.09,0.19 -0.21,0.02 -0.36,0.22 -0.57,0.21 -0.58,-0.02 -1.16,0.08 -1.73,-0.07 -0.57,-0.16 -1.15,-0.14 -1.72,-0.05 -0.29,0.05 -0.58,0.11 -0.87,0.16 -0.37,0.07 -0.69,-0.09 -1.05,-0.07 -0.47,0.03 -0.94,0 -1.41,0.03 -0.14,0.01 -0.27,0.01 -0.39,-0.05 -0.07,-0.04 -0.14,-0.08 -0.21,-0.04 -0.18,0.13 -0.34,0.14 -0.52,0 -0.07,-0.06 -0.17,0 -0.25,0.04 -0.21,0.11 -0.42,0.16 -0.6,-0.06 -0.04,-0.05 -0.13,-0.06 -0.16,-0.02 -0.17,0.23 -0.47,0.15 -0.68,0.29 -0.23,0.16 -0.53,0.2 -0.81,0.05 -0.13,-0.07 -0.26,-0.07 -0.39,-0.02 -0.31,0.11 -0.66,0.03 -0.93,0.25 -0.03,0.02 -0.09,0.03 -0.13,0.02 -0.38,-0.15 -0.76,0.03 -1.15,-0.02 -0.2,-0.03 -0.41,0.02 -0.6,-0.11 -0.12,-0.08 -0.27,-0.06 -0.39,0.01 -0.31,0.2 -0.62,0.13 -0.95,0.03 -0.26,-0.08 -0.52,-0.19 -0.77,0.1 -0.13,0.16 -0.4,0.08 -0.59,0.03 -0.31,-0.08 -0.57,-0.11 -0.91,0.01 -0.3,0.11 -0.7,0.18 -1.05,0.03 -0.17,-0.07 -0.3,-0.11 -0.44,0.05 -0.06,0.07 -0.15,0.08 -0.25,0.08 -0.86,0 -1.72,0.06 -2.58,-0.03 -0.41,-0.04 -0.85,0.04 -1.28,0.01 -0.12,0 -0.24,0 -0.35,-0.05 -0.18,-0.09 -0.31,-0.02 -0.49,0.03 -0.36,0.11 -0.76,0.15 -1.13,0.04 -0.26,-0.08 -0.52,-0.14 -0.79,-0.08 -0.27,0.06 -0.53,-0.08 -0.79,-0.08 -0.3,0 -0.62,0.15 -0.89,-0.11 -0.02,-0.02 -0.1,-0.02 -0.13,0 -0.4,0.25 -0.84,0.13 -1.27,0.18 -0.43,0.05 -0.85,0.03 -1.27,-0.01 -0.16,-0.02 -0.32,0.05 -0.47,0.07 -0.55,0.06 -1.07,0.24 -1.65,0.17 -0.51,-0.06 -1.05,-0.11 -1.58,-0.06 -0.15,0.01 -0.3,0.03 -0.44,0.07 -0.23,0.07 -0.42,0.07 -0.48,-0.22 -0.02,-0.1 -0.09,-0.11 -0.17,-0.07 -0.1,0.05 -0.19,0.1 -0.3,0.08 -0.19,-0.04 -0.38,-0.21 -0.54,0.09 -0.04,0.07 -0.25,0.04 -0.37,-0.04 -0.12,-0.08 -0.24,-0.07 -0.38,-0.06 -0.49,0.03 -0.99,0.23 -1.47,-0.05 -0.45,0.09 -0.9,-0.13 -1.36,0.06 -0.2,0.08 -0.44,0.07 -0.64,0.19 -0.1,0.06 -0.2,0 -0.3,-0.03 -0.19,-0.06 -0.41,-0.11 -0.57,-0.04 -0.27,0.13 -0.49,0.19 -0.74,-0.02 -0.06,-0.05 -0.15,-0.04 -0.19,0.03 -0.11,0.17 -0.26,0.16 -0.39,0.08 -0.19,-0.12 -0.39,-0.1 -0.59,-0.08 -0.21,0.02 -0.43,0.11 -0.63,-0.06 -0.04,-0.04 -0.12,-0.03 -0.17,0.01 -0.23,0.18 -0.46,0.06 -0.64,-0.07 -0.16,-0.12 -0.34,-0.1 -0.5,-0.17 -0.06,-0.02 -0.12,-0.02 -0.17,0.02 -0.31,0.25 -0.7,0.23 -1.07,0.3 -0.01,0 -0.03,0 -0.04,0 -0.27,-0.11 -0.54,-0.06 -0.82,-0.03 -0.32,0.04 -0.65,0.01 -0.97,0.13 -0.21,0.08 -0.46,0.07 -0.7,0.07 -0.3,0 -0.94,-0.66 -0.95,-0.95 0,-0.55 0,-1.09 -0.1,-1.64 -0.02,-0.09 0,-0.19 0.09,-0.23 0.16,-0.07 0.21,-0.15 0.1,-0.3 -0.04,-0.05 -0.04,-0.11 0,-0.16 0.27,-0.28 0.13,-0.57 0,-0.85 -0.1,-0.22 -0.02,-0.42 0.04,-0.6 0.08,-0.25 0.1,-0.5 0.06,-0.75 -0.03,-0.21 -0.08,-0.42 0,-0.62 0.09,-0.22 -0.17,-0.32 -0.13,-0.49 0.03,-0.16 0.22,-0.27 0.15,-0.48 -0.11,-0.33 -0.06,-0.67 -0.05,-1.02 0.01,-0.3 0.23,-0.52 0.29,-0.79 0.06,-0.26 -0.16,-0.48 -0.15,-0.77 0.01,-0.39 0.04,-0.76 0.18,-1.12 0.03,-0.09 0.06,-0.18 0,-0.26 -0.19,-0.27 -0.11,-0.56 -0.1,-0.86 0.02,-0.53 -0.03,-1.06 0.1,-1.59 0.03,-0.12 -0.03,-0.24 -0.09,-0.34 -0.12,-0.21 -0.2,-0.44 -0.21,-0.68 -0.02,-0.68 -0.13,-1.36 0.1,-2.03 0.03,-0.09 0.05,-0.23 0.01,-0.31 -0.26,-0.49 -0.01,-0.99 -0.02,-1.49 0,-0.32 0,-0.64 -0.06,-0.96 0,-0.01 -0.02,-0.03 -0.02,-0.04 0.24,-0.49 -0.1,-1.01 0.09,-1.51 0.05,-0.13 0.08,-0.25 0.22,-0.32 0.1,-0.05 0.16,-0.13 0.2,-0.23 0.03,-0.08 0.02,-0.17 -0.08,-0.16 -0.36,0.04 -0.26,-0.16 -0.22,-0.36 0.06,-0.29 0.09,-0.59 0.14,-0.88 0.05,-0.29 0.11,-0.31 0.38,-0.27 0.19,0.03 0.36,0.12 0.52,0.21 0.12,-0.08 0.11,-0.2 0.14,-0.29 q 0.09,-0.26 0.39,-0.12 c 0.02,-0.19 -0.11,-0.31 -0.17,-0.45 -0.11,-0.25 -0.03,-0.44 0.22,-0.59 0.21,-0.12 0.46,-0.08 0.58,0.14 0.09,0.17 0.23,0.33 0.24,0.52 0.01,0.35 0.19,0.61 0.43,0.84 -0.05,0.12 -0.4,0.08 -0.16,0.33 0.06,0.06 0.06,0.16 0.09,0.25 q 0.13,0.39 -0.23,0.56 h 0.01 z m -0.25,16.11 c -0.01,-0.1 -0.06,-0.17 -0.16,-0.18 -0.11,0 -0.16,0.07 -0.17,0.17 0,0.11 0.05,0.21 0.18,0.2 0.1,0 0.14,-0.09 0.15,-0.19 z m 1.91,4.55 c 0.2,0 0.32,-0.04 0.41,-0.14 0.02,-0.03 0.02,-0.09 0,-0.12 -0.02,-0.03 -0.08,-0.05 -0.11,-0.04 -0.12,0.05 -0.21,0.15 -0.3,0.3 z m -3.73,-6.68 c 0,0 -0.09,0.01 -0.09,0.06 -0.01,0.07 0.03,0.11 0.09,0.12 0.06,0.01 0.13,0 0.12,-0.08 0,-0.06 -0.07,-0.09 -0.12,-0.11 z m 1.82,-12.37 c 0.08,0 0.14,-0.03 0.16,-0.11 0,-0.06 -0.04,-0.1 -0.1,-0.1 -0.06,0 -0.11,0.04 -0.13,0.09 -0.02,0.06 0,0.11 0.07,0.12 z m 16.68,18.55 c 0.07,0 0.12,-0.02 0.14,-0.08 0.03,-0.09 -0.02,-0.14 -0.1,-0.15 -0.06,0 -0.11,0.03 -0.12,0.1 0,0.06 0.01,0.11 0.08,0.12 z m -0.47,-0.34 c 0,0 -0.03,-0.08 -0.08,-0.09 -0.06,0 -0.12,0.02 -0.13,0.09 0,0.05 0.03,0.08 0.08,0.09 0.06,0.01 0.11,-0.01 0.13,-0.08 z m 7.65,-0.28 c 0,-0.05 -0.03,-0.08 -0.08,-0.08 -0.06,0 -0.11,0.03 -0.12,0.1 0,0.05 0.03,0.08 0.08,0.08 0.06,0 0.11,-0.03 0.12,-0.09 z m -24.35,1.13 c -0.02,-0.06 -0.06,-0.06 -0.1,-0.04 -0.02,0.01 -0.04,0.04 -0.04,0.07 0,0.05 0.03,0.07 0.08,0.06 0.04,-0.01 0.07,-0.05 0.06,-0.09 z m 45.87,-23.46 c 0,0 -0.02,-0.06 -0.03,-0.07 -0.04,0 -0.09,0 -0.11,0.02 -0.04,0.04 0,0.07 0.04,0.08 0.04,0.01 0.08,0 0.1,-0.04 z m -47.29,17.31 c -0.06,0.04 -0.07,0.09 -0.06,0.15 0,0.05 0.04,0.09 0.09,0.06 0.03,-0.02 0.04,-0.08 0.04,-0.12 0,-0.04 0,-0.09 -0.06,-0.1 z m 1.5,-15.93 c 0,0 -0.04,-0.04 -0.06,-0.05 -0.04,0 -0.09,0 -0.06,0.07 0,0.02 0.05,0.03 0.07,0.03 0.02,0 0.03,-0.03 0.05,-0.05 z"
         id="path1908"
         style="fill:#e6deca" />
      <path
         class="cls-2"
         d="m 205.59,54.6 c -0.03,-0.25 -0.02,-0.4 0.25,-0.42 0.2,0 0.33,-0.2 0.45,-0.35 0.19,-0.22 0.03,-0.41 -0.11,-0.58 0.08,-0.13 0.17,-0.04 0.24,-0.03 0.15,0.02 0.2,-0.02 0.2,-0.19 0.01,-0.36 0.17,-0.67 0.41,-0.94 0.14,-0.16 0.27,-0.31 0.5,-0.33 0.19,-0.02 0.34,-0.12 0.35,-0.34 0,-0.18 0.13,-0.26 0.27,-0.32 0.24,-0.11 0.4,-0.29 0.51,-0.53 0.19,-0.42 0.34,-0.86 0.76,-1.12 0.01,0 0.03,-0.02 0.03,-0.03 0.04,-0.35 0.29,-0.32 0.52,-0.27 0.26,0.05 0.54,0.09 0.63,0.41 0.12,0.38 0.52,0.42 0.78,0.61 0.16,0.12 0.27,0.17 0.15,0.36 -0.11,0.17 -0.04,0.28 0.09,0.38 0.22,0.18 0.36,0.39 0.33,0.69 -0.01,0.12 0.06,0.15 0.17,0.11 0.13,-0.05 0.23,0.01 0.32,0.1 0.13,0.12 0.31,0.22 0.38,0.37 0.21,0.43 0.62,0.67 0.96,0.96 0.24,0.21 0.58,0.27 0.86,0.46 0.2,0.14 0.31,0.4 0.61,0.41 0.17,0 0.31,0.15 0.51,0.07 0.11,-0.05 0.29,0.04 0.27,0.16 -0.06,0.28 0.16,0.34 0.29,0.49 0.15,0.16 0.25,0.37 0.33,0.57 0.05,0.15 0.12,0.23 0.27,0.26 0.12,0.03 0.23,0.08 0.3,0.18 0.22,0.35 0.41,0.72 0.62,1.07 0.09,0.15 0.11,0.35 0.3,0.45 0.08,0.05 0.14,0.16 0.18,0.25 0.27,0.49 0.69,0.8 1.19,1.02 0.08,0.04 0.22,0.06 0.23,0.11 0.12,0.37 0.46,0.41 0.74,0.52 0.19,0.08 0.16,0.19 0.14,0.32 -0.01,0.14 -0.12,0.23 -0.25,0.18 -0.21,-0.07 -0.39,0.11 -0.61,0.01 -0.16,-0.07 -0.24,0.07 -0.18,0.26 0.07,0.21 0.14,0.42 -0.06,0.57 -0.18,0.13 -0.38,0.21 -0.61,0.25 -0.59,0.11 -1.15,-0.09 -1.72,-0.13 -0.25,-0.02 -0.45,-0.16 -0.5,-0.44 -0.02,-0.14 -0.08,-0.25 -0.14,-0.37 -0.09,-0.18 0,-0.28 0.19,-0.29 0.07,0 0.15,0.03 0.22,0.02 0.07,-0.02 0.13,-0.09 0.13,-0.17 0,-0.18 -0.43,-0.6 -0.63,-0.59 -0.31,0.02 -0.54,0.02 -0.74,-0.32 -0.14,-0.25 -0.37,-0.45 -0.38,-0.76 0,-0.06 0,-0.12 -0.02,-0.18 -0.07,-0.19 -0.2,-0.3 -0.41,-0.27 -0.09,0.01 -0.17,0.06 -0.26,0.06 -0.08,0 -0.13,-0.07 -0.14,-0.15 -0.01,-0.09 0.04,-0.14 0.13,-0.14 0.1,0 0.2,0.01 0.39,0.03 -0.53,-0.5 -0.84,-1.09 -1.3,-1.54 -0.06,-0.06 -0.1,-0.16 -0.21,-0.16 -0.14,0 -0.12,-0.06 -0.1,-0.17 0.04,-0.23 -0.09,-0.37 -0.31,-0.4 -0.25,-0.03 -0.48,-0.16 -0.75,-0.06 -0.19,0.07 -0.26,-0.03 -0.25,-0.23 0,-0.55 -0.26,-0.98 -0.64,-1.35 -0.09,-0.08 -0.17,-0.18 -0.31,-0.11 -0.11,0.06 -0.19,0.18 -0.16,0.3 0.13,0.46 -0.17,0.96 0.15,1.39 0.05,0.07 0,0.14 -0.06,0.19 -0.08,0.07 -0.07,0.16 -0.04,0.25 0.14,0.5 0.07,0.94 -0.4,1.26 -0.04,0.03 -0.07,0.09 -0.1,0.15 -0.01,0.02 0,0.06 0,0.08 0.06,0.07 0.1,0.02 0.14,-0.02 0.12,-0.14 0.24,-0.09 0.34,0.02 0.11,0.11 0.13,0.25 0.01,0.36 -0.16,0.15 -0.25,0.36 -0.47,0.47 -0.18,0.09 -0.28,0.25 -0.28,0.46 0.19,0.11 0.24,-0.15 0.43,-0.12 -0.06,0.19 -0.08,0.34 0.15,0.47 0.18,0.1 0.19,0.38 0.36,0.54 0.09,0.08 0.03,0.24 -0.1,0.29 -0.19,0.07 -0.22,0.27 -0.37,0.37 -0.06,0.04 -0.09,0.12 -0.04,0.2 0.04,0.06 0.1,0.02 0.16,0.01 0.33,-0.05 0.46,0.08 0.34,0.38 -0.12,0.3 -0.09,0.62 -0.17,0.92 -0.04,0.17 0.1,0.39 0.18,0.58 0.08,0.18 0.09,0.37 -0.02,0.51 -0.18,0.22 -0.12,0.45 -0.07,0.68 0.03,0.17 0.07,0.35 0.13,0.52 0.03,0.1 0.04,0.18 -0.05,0.23 -0.15,0.09 -0.14,0.24 -0.09,0.36 0.11,0.26 0.14,0.52 0.07,0.79 0,0.02 0.04,0.07 0.03,0.08 -0.28,0.43 0.04,0.82 0.08,1.23 0.03,0.32 0.09,0.65 0.06,0.98 -0.04,0.48 0.08,0.98 -0.16,1.45 -0.06,0.11 -0.06,0.23 0.03,0.34 0.16,0.19 0.1,0.39 0.04,0.59 -0.08,0.28 -0.06,0.54 -0.02,0.83 0.04,0.27 0.11,0.54 0.1,0.82 0,0.16 0.03,0.29 0.06,0.44 0.04,0.15 0.08,0.29 0,0.44 -0.05,0.1 -0.05,0.19 0,0.3 0.13,0.29 -0.19,0.5 -0.16,0.78 0,0 -0.02,0.03 -0.03,0.03 -0.43,0.07 -0.77,0.54 -1.28,0.28 -0.05,-0.03 -0.12,-0.02 -0.18,-0.03 -0.21,-0.04 -0.34,-0.3 -0.24,-0.48 0.05,-0.08 0.12,-0.06 0.2,-0.05 0.28,0.01 0.27,0.01 0.18,-0.27 -0.09,-0.28 -0.31,-0.45 -0.49,-0.65 -0.11,-0.11 -0.16,-0.21 -0.1,-0.35 0.03,-0.08 0.06,-0.17 0.04,-0.26 -0.15,-0.52 -0.11,-1.02 0.08,-1.52 0.03,-0.09 -0.04,-0.08 -0.09,-0.11 -0.27,-0.17 -0.3,-0.26 -0.14,-0.52 0.06,-0.09 0.06,-0.15 0.01,-0.23 -0.13,-0.25 -0.1,-0.48 0.05,-0.72 0.1,-0.16 0.18,-0.31 -0.08,-0.47 -0.22,-0.14 -0.21,-0.53 -0.04,-0.76 0.09,-0.12 0.07,-0.21 0.04,-0.35 -0.05,-0.28 -0.02,-0.58 -0.01,-0.88 0.01,-0.43 0.07,-0.85 -0.03,-1.28 -0.06,-0.27 -0.01,-0.56 0.02,-0.84 0.02,-0.21 0.09,-0.41 0.02,-0.62 -0.03,-0.08 -0.01,-0.15 0.07,-0.19 0.1,-0.06 0.07,-0.11 0,-0.16 -0.14,-0.1 -0.15,-0.23 -0.04,-0.34 0.13,-0.15 0.11,-0.29 0.04,-0.45 -0.17,-0.41 -0.15,-0.83 0.01,-1.25 0.08,-0.21 0.24,-0.44 -0.03,-0.64 -0.02,-0.02 -0.04,-0.06 -0.03,-0.08 0.17,-0.31 -0.11,-0.67 0.1,-0.97 0.05,-0.08 0.1,-0.18 0.07,-0.25 -0.12,-0.29 -0.04,-0.6 -0.07,-0.89 -0.05,-0.41 0.12,-0.84 -0.08,-1.23 0,-0.01 0,-0.03 0,-0.04 0.18,-0.32 0.11,-0.66 0.1,-1.01 0,-0.23 0,-0.49 -0.05,-0.69 -0.09,-0.41 0,-0.8 0,-1.19 0,-0.33 -0.19,-0.55 -0.52,-0.56 -0.09,0 -0.15,0.06 -0.13,0.14 0.16,0.44 -0.07,0.67 -0.43,0.84 -0.09,0.04 -0.13,0.12 -0.18,0.19 -0.03,0.05 -0.1,0.13 -0.12,0.12 -0.37,-0.2 -0.46,0.26 -0.72,0.31 -0.15,0.03 -0.23,0.17 -0.14,0.35 0.07,0.13 -0.01,0.2 -0.13,0.23 -0.31,0.07 -0.62,0.15 -0.57,0.58 -0.27,0.1 -0.27,0.49 -0.6,0.53 -0.14,0.02 -0.28,0.09 -0.42,0.15 -0.05,0.02 -0.14,0.05 -0.15,0.09 -0.05,0.27 -0.32,0.48 -0.36,0.69 -0.06,0.36 -0.34,0.48 -0.54,0.67 -0.25,0.24 -0.48,0.47 -0.67,0.77 -0.41,0.66 -0.82,1.34 -1.57,1.71 -0.16,0.08 -0.3,0.22 -0.32,0.45 -0.02,0.25 -0.2,0.43 -0.4,0.57 -0.18,0.12 -0.32,0.23 -0.28,0.5 0.03,0.21 -0.17,0.31 -0.36,0.21 -0.04,-0.02 -0.09,-0.04 -0.1,-0.08 -0.21,-0.42 -0.55,-0.65 -1,-0.74 -0.07,-0.01 -0.09,-0.09 -0.07,-0.14 0.04,-0.15 -0.04,-0.24 -0.1,-0.36 -0.1,-0.21 -0.02,-0.44 0.11,-0.62 0.17,-0.24 0.39,-0.45 0.58,-0.68 0.11,-0.13 0.26,-0.19 0.38,-0.28 0.35,-0.29 0.84,-0.46 1.01,-0.94 0.05,-0.13 0.13,-0.25 0.25,-0.3 0.23,-0.1 0.19,-0.36 0.33,-0.51 0.16,-0.18 0.41,-0.03 0.58,-0.19 0.24,-0.23 0.45,-0.48 0.5,-0.82 0.02,-0.12 0.02,-0.23 0.11,-0.33 0.47,-0.49 0.91,-1.02 1.44,-1.45 0.34,-0.27 0.42,-0.25 0.85,0.05 z m 5.39,5.73 c -0.22,0.09 -0.38,0.16 -0.47,-0.1 -0.03,-0.09 -0.18,-0.04 -0.19,0.06 -0.02,0.28 0.05,0.54 0.22,0.76 0.04,0.05 0.1,0.07 0.16,0.04 0.07,-0.05 0.02,-0.1 -0.03,-0.14 -0.06,-0.05 -0.06,-0.12 0.01,-0.12 0.37,0.01 0.26,-0.25 0.28,-0.51 z m -10.24,0.15 c -0.13,0.03 -0.37,0.4 -0.38,0.58 0,0.06 0.01,0.16 0.03,0.16 0.08,0 0.07,-0.08 0.1,-0.13 0.09,-0.15 0.31,-0.2 0.36,-0.39 0.01,-0.05 0.01,-0.12 0,-0.17 -0.01,-0.03 -0.07,-0.04 -0.09,-0.06 z m 9.58,4.64 c 0.12,0.02 0.18,-0.06 0.25,-0.1 0.08,-0.04 0.24,-0.04 0.16,-0.19 -0.08,-0.15 -0.2,-0.06 -0.31,-0.02 -0.13,0.05 -0.16,0.16 -0.11,0.31 z m 0.54,-2.13 c 0,0 0.09,-0.03 0.07,-0.08 0,-0.02 -0.04,-0.04 -0.07,-0.04 -0.04,0 -0.09,0 -0.09,0.06 0,0.05 0.05,0.06 0.09,0.06 z m -1.44,5.5 c 0,0 0.04,-0.05 0.04,-0.07 0,-0.02 -0.03,-0.06 -0.05,-0.06 -0.05,0 -0.07,0.04 -0.05,0.08 0,0.02 0.04,0.03 0.06,0.04 z m -8.37,-8.17 c 0,0 0.04,-0.03 0.06,-0.05 -0.02,-0.02 -0.03,-0.05 -0.05,-0.05 -0.02,0 -0.04,0.03 -0.05,0.05 0,0.01 0.03,0.03 0.04,0.05 z"
         id="path1909"
         style="fill:#e6deca" />
      <path
         class="cls-2"
         d="m 212.45,55.26 c 0,-0.28 0.06,-0.31 0.28,-0.19 0.07,0.04 0.14,0.04 0.21,0.06 0.23,0.06 0.37,0.39 0.26,0.59 -0.07,0.14 -0.28,0.19 -0.42,0.08 -0.19,-0.15 -0.33,-0.34 -0.33,-0.54 z"
         id="path1910"
         style="fill:#e6deca" />
      <path
         class="cls-2"
         d="m 206,53.58 c -0.12,0.09 -0.04,0.3 -0.2,0.39 -0.04,0.02 -0.09,-0.01 -0.11,-0.05 -0.08,-0.17 0.03,-0.31 0.09,-0.46 0.02,-0.06 0.08,-0.08 0.15,-0.05 0.06,0.03 0.08,0.08 0.08,0.17 z"
         id="path1911"
         style="fill:#e6deca" />
      <path
         class="cls-2"
         d="m 234.26,82.08 c 0,0.08 0,0.18 -0.1,0.21 -0.06,0.02 -0.1,-0.05 -0.1,-0.11 0,-0.09 0,-0.19 0.1,-0.22 0.06,-0.02 0.09,0.05 0.1,0.12 z"
         id="path1912"
         style="fill:#e6deca" />
      <path
         class="cls-2"
         d="m 216.44,59.32 c 0,0 -0.03,0.03 -0.07,0.03 -0.06,0.01 -0.07,-0.03 -0.07,-0.08 0,-0.05 0.03,-0.08 0.08,-0.09 0.05,0 0.08,0.02 0.06,0.13 z"
         id="path1913"
         style="fill:#e6deca" />
      <path
         class="cls-2"
         d="m 187.22,70.68 c 0,0 0.05,0.07 0.08,0.1 0.03,0.04 0.02,0.09 -0.02,0.11 -0.02,0.01 -0.07,0.02 -0.08,0.01 -0.02,-0.04 -0.03,-0.08 -0.03,-0.12 0,-0.04 0.04,-0.08 0.06,-0.12 0,0 0,0 0,0 z"
         id="path1914"
         style="fill:#e6deca" />
      <path
         class="cls-2"
         d="m 215.01,57.66 c 0,0 -0.06,-0.05 -0.07,-0.09 0,-0.03 0.02,-0.05 0.05,-0.04 0.02,0.01 0.03,0.04 0.05,0.06 0.02,0.03 0,0.05 -0.03,0.06 z"
         id="path1915"
         style="fill:#e6deca" />
    </g>
  </g>
</svg>
