<svg width="22" height="22" viewBox="0 0 22 22" fill="none" xmlns="http://www.w3.org/2000/svg">
<g clip-path="url(#clip0_41_225)">
<path d="M0 22C0.626512 20.1465 1.2253 18.37 1.83518 16.5935C1.91835 16.357 1.89617 16.181 1.77419 15.9555C-1.34173 10.296 1.06452 3.36599 7.01361 0.846995C13.2566 -1.79301 20.442 1.99649 21.7893 8.63499C22.9647 14.4375 19.128 20.119 13.2676 21.241C10.8836 21.6975 8.58821 21.395 6.40373 20.3225C6.11542 20.1795 5.86593 20.1355 5.54435 20.24C3.90323 20.779 2.25101 21.2905 0.604335 21.813C0.426915 21.868 0.249496 21.923 0 22ZM2.7999 19.2665C3.86441 18.9255 4.85131 18.623 5.83266 18.2875C6.11542 18.1885 6.3372 18.216 6.59778 18.37C8.43851 19.4535 10.4234 19.8495 12.5413 19.5415C17.3816 18.8265 20.8468 14.2835 20.0761 9.3225C19.25 4.015 13.6447 0.549995 8.48841 2.22749C2.75 4.09199 0.421371 10.6755 3.73689 15.6805C3.8755 15.895 3.89768 16.0655 3.80897 16.302C3.46522 17.259 3.14919 18.2215 2.79435 19.2665H2.7999Z" fill="#3D3F20"/>
<path d="M7.86183 5.5275C8.42181 5.39 8.66577 5.753 8.8321 6.2535C9.00952 6.798 9.19802 7.3425 9.43643 7.8595C9.62494 8.272 9.55841 8.602 9.28119 8.9265C9.22575 8.9925 9.1703 9.0585 9.11486 9.1245C8.4828 9.823 8.48835 9.8175 9.01506 10.626C9.8079 11.8525 10.8724 12.76 12.2031 13.376C12.5246 13.5245 12.7741 13.508 13.0015 13.222C13.2454 12.9195 13.5171 12.6445 13.761 12.3365C13.9606 12.0835 14.1769 12.067 14.4374 12.21C15.136 12.5785 15.8402 12.947 16.5443 13.31C16.7882 13.4365 16.8381 13.6345 16.8104 13.8875C16.6718 15.07 16.0342 15.7245 14.6315 16.0325C13.5448 16.2745 12.6355 15.7245 11.6985 15.356C9.58058 14.52 8.13351 12.9305 6.92484 11.088C6.49792 10.439 6.10427 9.7735 5.91577 9.009C5.61083 7.7605 5.91577 6.688 6.85276 5.797C7.12444 5.5385 7.44601 5.4615 7.86183 5.522V5.5275Z" fill="#3D3F20"/>
</g>
<defs>
<clipPath id="clip0_41_225">
<rect width="22" height="22" fill="white"/>
</clipPath>
</defs>
</svg>
