<svg width="27" height="20" viewBox="0 0 27 20" fill="none" xmlns="http://www.w3.org/2000/svg">
<g clip-path="url(#clip0_41_223)">
<path d="M13.7351 7.49854e-06C15.6641 0.0571504 17.8848 0.0971503 20.1055 0.200007C21.2456 0.251436 22.3803 0.394293 23.515 0.525722C24.8766 0.680008 26.222 1.66858 26.5678 3.69715C26.7893 5.00001 26.8866 6.30858 26.946 7.62287C27.0487 9.79429 27.0109 11.96 26.8272 14.1257C26.7515 15.0229 26.6434 15.92 26.4489 16.7943C26.1085 18.3086 25.1576 19.2514 23.7095 19.4914C22.4992 19.6914 21.2726 19.7943 20.0461 19.8514C17.874 19.9429 15.7019 20.0229 13.5244 20.0057C10.9957 19.9886 8.46694 19.8857 5.93822 19.7886C5.11693 19.7543 4.29563 19.6457 3.47974 19.52C1.80474 19.2572 0.783526 18.2 0.448525 16.4457C0.210783 15.2 0.129734 13.9372 0.0594919 12.6686C-0.0323632 10.9086 -0.0323632 9.14287 0.0594919 7.38286C0.129734 6.05144 0.205379 4.71429 0.491751 3.40572C0.869978 1.73715 1.98305 0.69715 3.59321 0.474293C5.0737 0.268579 6.55959 0.182865 8.04548 0.131436C9.84476 0.0742932 11.644 0.0457218 13.7351 -0.00570679V7.49854e-06ZM17.8362 10.0172C15.4749 8.58287 13.1624 7.17144 10.8282 5.75429V14.2857C13.1624 12.8629 15.4749 11.4572 17.8362 10.0229V10.0172Z" fill="#3D3F20"/>
</g>
<defs>
<clipPath id="clip0_41_223">
<rect width="27" height="20" fill="white"/>
</clipPath>
</defs>
</svg>
